<svg xmlns="http://www.w3.org/2000/svg" style="border: 0 !important; clip: rect(0 0 0 0) !important; height: 1px !important; margin: -1px !important; overflow: hidden !important; padding: 0 !important; position: absolute !important; width: 1px !important;" class="root-svg-symbols-element">
    <symbol id="apple-store" viewBox="0 0 14 17">
       <path fill="#2B2B2B" fill-rule="evenodd" d="M13.18 11.82c-.358.838-.531 1.21-.995 1.953-.646 1.035-1.56 2.325-2.69 2.334-1.004.01-1.262-.687-2.626-.678-1.362.008-1.647.69-2.651.68-1.13-.01-1.995-1.173-2.642-2.209-1.81-2.892-2-6.288-.883-8.094.794-1.283 2.045-2.033 3.222-2.033 1.196 0 1.95.69 2.94.69.961 0 1.547-.692 2.932-.692 1.048 0 2.157.6 2.947 1.634-2.59 1.492-2.17 5.375.447 6.415zM8.738 2.615C9.24 1.937 9.622.978 9.484 0 8.66.059 7.699.609 7.138 1.325c-.51.649-.93 1.614-.768 2.551.9.03 1.829-.534 2.367-1.261z"/> 
    </symbol>
    <symbol id="apple" viewBox="0 0 14 17">
       <!-- Generator: sketchtool 50.2 (55047) - http://www.bohemiancoding.com/sketch --> <title>937255E9-073B-4176-8129-00D4A5D893C0</title> <desc>Created with sketchtool.</desc>  <g id="UI_desktop" stroke="none" stroke-width="1" fill-rule="evenodd"> <g id="UI_LEKKI" transform="translate(-610.000000, -211.000000)"> <g id="HEADER" transform="translate(48.000000, 152.000000)"> <path d="M575.18091,70.8196114 C574.821943,71.6577809 574.648774,72.0309321 574.185184,72.7734462 C573.538504,73.8076622 572.625756,75.0975909 571.494742,75.1070617 C570.490899,75.1174797 570.232949,74.4204257 568.869238,74.4289494 C567.507331,74.4365261 567.222323,75.1193738 566.217578,75.109903 C565.087466,75.0994851 564.223422,73.9355185 563.575839,72.9003555 C561.766578,70.0079602 561.576271,66.6117161 562.692855,64.8056264 C563.486549,63.5232744 564.737519,62.7731836 565.914531,62.7731836 C567.111386,62.7731836 567.864493,63.462661 568.855709,63.462661 C569.816259,63.462661 570.401609,62.7712895 571.786965,62.7712895 C572.835002,62.7712895 573.94437,63.3707938 574.734457,64.4050098 C572.144128,65.8966675 572.564425,69.7797129 575.18091,70.8196114 L575.18091,70.8196114 Z M570.737125,61.6148996 C571.239497,60.9367873 571.621913,59.978338 571.483919,59 C570.661363,59.0587192 569.699009,59.6089752 569.138011,60.3249709 C568.627522,60.9737236 568.207225,61.9388024 568.370473,62.8764158 C569.270594,62.9057754 570.198675,62.3422603 570.737125,61.6148996 L570.737125,61.6148996 Z" id="Shape"/> </g> </g> </g> 
    </symbol>
    <symbol id="arrow-bottom" viewBox="0 0 12.5 7">
       <g> <path class="st0" d="M6.3,4.9L11,0.3c0.4-0.3,0.9-0.3,1.3,0c0.3,0.3,0.3,0.9,0,1.2c0,0,0,0,0,0L6.9,6.7C6.5,7.1,6,7.1,5.6,6.7
		L0.3,1.5c-0.3-0.3-0.3-0.9,0-1.2c0,0,0,0,0,0c0.4-0.3,0.9-0.3,1.3,0L6.3,4.9z"/> </g> 
    </symbol>
    <symbol id="arrow-left" viewBox="0 0 15 13">
       <!-- Generator: sketchtool 50.2 (55047) - http://www.bohemiancoding.com/sketch --> <title>BFC33F19-5689-4046-AE88-5A78B0C242E3</title> <desc>Created with sketchtool.</desc>  <g id="UI_desktop" stroke="none" stroke-width="1" fill-rule="evenodd"> <g id="UI_LEKKI" transform="translate(-797.000000, -382.000000)" fill-rule="nonzero"> <g id="Group-5" transform="translate(784.000000, 368.000000)"> <path d="M16.0779191,21.2916667 L19.4764595,24.6902071 C19.7856246,24.9993722 19.7856246,25.5006278 19.4764595,25.8097929 C19.1672945,26.1189579 18.6660389,26.1189579 18.3568738,25.8097929 L13.6068738,21.0597929 C13.2977087,20.7506278 13.2977087,20.2493722 13.6068738,19.9402071 L18.3568738,15.1902071 C18.6660389,14.8810421 19.1672945,14.8810421 19.4764595,15.1902071 C19.7856246,15.4993722 19.7856246,16.0006278 19.4764595,16.3097929 L16.0779191,19.7083333 L26.8333333,19.7083333 C27.2705588,19.7083333 27.625,20.0627746 27.625,20.5 C27.625,20.9372254 27.2705588,21.2916667 26.8333333,21.2916667 L16.0779191,21.2916667 Z" id="Combined-Shape"/> </g> </g> </g> 
    </symbol>
    <symbol id="arrow-right" viewBox="0 0 15 13">
       <!-- Generator: sketchtool 50.2 (55047) - http://www.bohemiancoding.com/sketch --> <title>5C90D3CC-958D-41D5-B17D-1D060428EC6C</title> <desc>Created with sketchtool.</desc>  <g id="UI_desktop" stroke="none" stroke-width="1" fill-rule="evenodd"> <g id="UI_LEKKI" transform="translate(-853.000000, -382.000000)" fill-rule="nonzero"> <g id="Group-5" transform="translate(784.000000, 368.000000)"> <path d="M80.9220809,19.7083333 L77.5235405,16.3097929 C77.2143754,16.0006278 77.2143754,15.4993722 77.5235405,15.1902071 C77.8327055,14.8810421 78.3339611,14.8810421 78.6431262,15.1902071 L83.3931262,19.9402071 C83.7022913,20.2493722 83.7022913,20.7506278 83.3931262,21.0597929 L78.6431262,25.8097929 C78.3339611,26.1189579 77.8327055,26.1189579 77.5235405,25.8097929 C77.2143754,25.5006278 77.2143754,24.9993722 77.5235405,24.6902071 L80.9220809,21.2916667 L70.1666667,21.2916667 C69.7294412,21.2916667 69.375,20.9372254 69.375,20.5 C69.375,20.0627746 69.7294412,19.7083333 70.1666667,19.7083333 L80.9220809,19.7083333 Z" id="Mask"/> </g> </g> </g> 
    </symbol>
    <symbol id="arrow-top-default" viewBox="0 0 9 10">
       <path fill-rule="nonzero" d="M4.667 1.992L7.17 4.496a.583.583 0 0 0 .825-.825l-3.5-3.5a.583.583 0 0 0-.825 0l-3.5 3.5a.583.583 0 0 0 .825.825L3.5 1.992v6.925a.583.583 0 1 0 1.167 0V1.992z"/> 
    </symbol>
    <symbol id="arrow-top-sm" viewBox="0 0 9 10">
       <path fill="#EA2B16" fill-rule="nonzero" d="M4.667 1.992L7.17 4.496a.583.583 0 0 0 .825-.825l-3.5-3.5a.583.583 0 0 0-.825 0l-3.5 3.5a.583.583 0 0 0 .825.825L3.5 1.992v6.925a.583.583 0 1 0 1.167 0V1.992z"/> 
    </symbol>
    <symbol id="arrow-top" viewBox="0 0 12.5 7">
       <g> <path class="st0" d="M6.3,2.1L1.5,6.7c-0.4,0.3-0.9,0.3-1.3,0c-0.3-0.3-0.3-0.9,0-1.2c0,0,0,0,0,0l5.4-5.3c0.4-0.3,0.9-0.3,1.3,0
		l5.4,5.3c0.3,0.3,0.3,0.9,0,1.2c0,0,0,0,0,0c-0.4,0.3-0.9,0.3-1.3,0L6.3,2.1z"/> </g> 
    </symbol>
    <symbol id="attention-tiangle" viewBox="0 0 18 16">
       <path fill="#EA2B16" fill-rule="nonzero" d="M6.833 1.115a2.31 2.31 0 0 1 3.953 0l6.525 10.893a2.309 2.309 0 0 1-1.983 3.463H2.283a2.309 2.309 0 0 1-1.968-3.474L6.833 1.115zM1.642 12.777a.77.77 0 0 0 .65 1.155H15.32a.77.77 0 0 0 .664-1.144L9.468 1.91a.77.77 0 0 0-1.315-.002l-6.511 10.87zm6.398-7.31a.77.77 0 0 1 1.54 0v3.078a.77.77 0 0 1-1.54 0V5.466zm.225 5.93a.77.77 0 1 1 1.089-1.088.77.77 0 0 1-1.089 1.089z"/> 
    </symbol>
    <symbol id="attention" viewBox="0 0 18 16">
       <path fill="#EA2B16" fill-rule="nonzero" d="M6.833 1.115a2.31 2.31 0 0 1 3.953 0l6.525 10.893a2.309 2.309 0 0 1-1.983 3.463H2.283a2.309 2.309 0 0 1-1.968-3.474L6.833 1.115zM1.642 12.777a.77.77 0 0 0 .65 1.155H15.32a.77.77 0 0 0 .664-1.144L9.468 1.91a.77.77 0 0 0-1.315-.002l-6.511 10.87zm6.398-7.31a.77.77 0 0 1 1.54 0v3.078a.77.77 0 0 1-1.54 0V5.466zm.225 5.93a.77.77 0 1 1 1.089-1.088.77.77 0 0 1-1.089 1.089z"/> 
    </symbol>
    <symbol id="bus-order" viewBox="0 0 18 18">
       <g fill="#000" fill-rule="nonzero"> <path d="M14.786 0H3.214A3.218 3.218 0 0 0 0 3.214v11.572c0 .355.288.643.643.643h1.286v.642a1.929 1.929 0 0 0 3.857 0v-.642h6.428v.642a1.929 1.929 0 0 0 3.857 0v-.642h1.286a.643.643 0 0 0 .643-.643V3.214A3.218 3.218 0 0 0 14.786 0zM4.5 16.071a.643.643 0 0 1-1.286 0v-.642H4.5v.642zm10.286 0a.643.643 0 0 1-1.286 0v-.642h1.286v.642zm1.928-1.928H1.286V3.214c0-1.065.863-1.928 1.928-1.928h11.572c1.065 0 1.928.863 1.928 1.928v10.929z"/> <path d="M14.786 2.571H3.214a.643.643 0 0 0-.643.643v3.857c0 .355.288.643.643.643h11.572a.643.643 0 0 0 .643-.643V3.214a.643.643 0 0 0-.643-.643zM3.857 3.857h4.5V6.43h-4.5V3.857zM14.143 6.43h-4.5V3.857h4.5V6.43z"/> <circle cx="5.143" cy="10.929" r="1.286"/> <circle cx="12.857" cy="10.929" r="1.286"/> </g> 
    </symbol>
    <symbol id="car-order" viewBox="0 0 20 19">
       <g fill="#000" fill-rule="nonzero"> <path d="M17.484 6.994h-.825l-.95-4.745A2.805 2.805 0 0 0 12.968 0H6.615a2.805 2.805 0 0 0-2.743 2.25l-.949 4.744h-.825C.94 6.994 0 7.933 0 9.092v4.196a2.098 2.098 0 0 0 1.399 1.969v.828a2.098 2.098 0 1 0 4.196 0v-.7h8.392v.7a2.098 2.098 0 1 0 4.196 0v-.828a2.098 2.098 0 0 0 1.399-1.97V9.093c0-1.16-.94-2.098-2.098-2.098zM5.245 2.524a1.404 1.404 0 0 1 1.37-1.125h6.352a1.404 1.404 0 0 1 1.37 1.124l.895 4.47H4.35l.895-4.47zM4.196 16.084a.7.7 0 0 1-1.399 0v-.7h1.4v.7zm12.588 0a.7.7 0 0 1-1.398 0v-.7h1.398v.7zm1.4-2.797a.7.7 0 0 1-.7.699H2.098a.7.7 0 0 1-.7-.7V9.093a.7.7 0 0 1 .7-.7h15.386a.7.7 0 0 1 .7.7v4.196z"/> <circle cx="4.196" cy="11.19" r="1.399"/> <circle cx="15.386" cy="11.19" r="1.399"/> <path d="M7.898 3.002L5.8 5.1a.7.7 0 1 0 .989.99L8.887 3.99a.7.7 0 1 0-.99-.989zM12.094 3.002L9.996 5.1a.7.7 0 1 0 .989.99l2.098-2.099a.7.7 0 1 0-.99-.989zM11.889 10.49H7.693a.7.7 0 0 0 0 1.399h4.196a.7.7 0 1 0 0-1.399z"/> </g> 
    </symbol>
    <symbol id="card-view-one" viewBox="0 0 16 16">
       <g fill="none" fill-rule="evenodd" stroke-width="1.5"> <path d="M.75 1.25V6.5H15V1.25H.75zM.75 9.5v5.25H15V9.5H.75z"/> </g> 
    </symbol>
    <symbol id="card-view-two" viewBox="0 0 15 16">
       <path fill-rule="nonzero" d="M1.5 2v3.75h3.75V2H1.5zM.75.5H6a.75.75 0 0 1 .75.75V6.5a.75.75 0 0 1-.75.75H.75A.75.75 0 0 1 0 6.5V1.25A.75.75 0 0 1 .75.5zM9 .5h5.25a.75.75 0 0 1 .75.75V6.5a.75.75 0 0 1-.75.75H9a.75.75 0 0 1-.75-.75V1.25A.75.75 0 0 1 9 .5zm.75 5.25h3.75V2H9.75v3.75zm-.75 3h5.25a.75.75 0 0 1 .75.75v5.25a.75.75 0 0 1-.75.75H9a.75.75 0 0 1-.75-.75V9.5A.75.75 0 0 1 9 8.75zM9.75 14h3.75v-3.75H9.75V14zm-9-5.25H6a.75.75 0 0 1 .75.75v5.25a.75.75 0 0 1-.75.75H.75a.75.75 0 0 1-.75-.75V9.5a.75.75 0 0 1 .75-.75zM1.5 14h3.75v-3.75H1.5V14z"/> 
    </symbol>
    <symbol id="card" viewBox="0 0 18 14">
       <path fill="#000" fill-rule="evenodd" d="M16.5 4.75V2.5a.75.75 0 0 0-.75-.75H2.25a.75.75 0 0 0-.75.75v2.25h15zm0 1.5h-15v5.25c0 .414.336.75.75.75h13.5a.75.75 0 0 0 .75-.75V6.25zM2.25.25h13.5A2.25 2.25 0 0 1 18 2.5v9a2.25 2.25 0 0 1-2.25 2.25H2.25A2.25 2.25 0 0 1 0 11.5v-9A2.25 2.25 0 0 1 2.25.25z"/> 
    </symbol>
    <symbol id="cart" viewBox="0 0 20 18">
       <!-- Generator: sketchtool 50.2 (55047) - http://www.bohemiancoding.com/sketch --> <title>FA93280C-7D32-4E97-9DE4-2D6CCB4E18EC</title> <desc>Created with sketchtool.</desc>  <g id="UI_desktop" stroke="none" stroke-width="1" fill-rule="evenodd"> <g id="UI_LEKKI" transform="translate(-721.000000, -378.000000)" fill-rule="nonzero"> <g id="Group-3" transform="translate(584.000000, 368.000000)"> <path d="M155.724783,13.5672598 L141.844691,13.5672598 L141.687981,12.2480076 C141.571677,11.2585147 140.813962,10.4652433 139.829839,10.3026696 L138.03886,10.0119869 C137.804304,9.97324767 137.563952,10.0292574 137.370778,10.1676712 C137.177604,10.306085 137.047466,10.5155408 137.009047,10.7498737 C136.940761,11.2347726 137.266059,11.6876705 137.747826,11.7784432 L139.538805,12.0691259 C139.731252,12.0989891 139.878809,12.2555801 139.897001,12.4492495 L141.262623,23.7635144 C141.39487,24.8158301 142.242434,25.6344628 143.299862,25.7312126 C143.691763,26.6430979 144.589816,27.2341862 145.583361,27.2341862 C146.576907,27.2341862 147.474959,26.6430979 147.86686,25.7312126 L149.478742,25.7312126 C149.951449,26.8740125 151.200106,27.48866 152.395456,27.1669554 C153.590805,26.8452508 154.361223,25.687209 154.195061,24.4619085 C154.028899,23.236608 152.977814,22.3249827 151.739853,22.3324611 C150.711793,22.3410136 149.795154,22.9809965 149.433967,23.942396 L147.889247,23.942396 C147.54922,22.9736995 146.637963,22.3216257 145.610266,22.3116115 C144.582568,22.3015973 143.658747,22.9357895 143.299862,23.8976756 C143.158359,23.8324797 143.063878,23.6952184 143.053603,23.5399123 L142.874505,22.0864988 L153.060701,22.0864988 C154.092321,22.0938695 154.992614,21.3893372 155.232263,20.3871231 L156.597885,14.66291 C156.660932,14.3988194 156.603541,14.1204009 156.441174,13.9026629 C156.269708,13.6830097 156.003505,13.5583779 155.724783,13.5672598 Z M151.739853,24.1212777 C151.919841,24.1149641 152.094367,24.1836086 152.221715,24.3108036 C152.349064,24.4379986 152.417792,24.6123138 152.41147,24.7920839 C152.41147,25.16256 152.110777,25.4628901 151.739853,25.4628901 C151.389857,25.463098 151.102692,25.1861698 151.090623,24.8368043 L151.090623,24.7250033 C151.114193,24.3844497 151.398075,24.120465 151.739853,24.1212777 Z M145.583361,24.1212777 C145.759393,24.1152113 145.930338,24.180842 146.056978,24.3031129 C146.183618,24.4253839 146.255083,24.5938 146.254978,24.7697237 C146.2613,24.9494938 146.192572,25.123809 146.065223,25.251004 C145.937875,25.3781991 145.763349,25.4468436 145.583361,25.4405299 C145.217362,25.4289163 144.923372,25.1352812 144.911744,24.7697237 C144.923822,24.4080081 145.221007,24.1210766 145.583361,24.1212777 Z M154.60542,15.3560764 L154.269612,16.6976889 L142.225275,16.6976889 L142.068564,15.3560764 L154.60542,15.3560764 Z M153.060701,20.2976822 L142.650632,20.2976822 L142.42676,18.4865055 L153.844254,18.4865055 L153.486058,19.9622791 C153.443157,20.1615004 153.264673,20.3022383 153.060701,20.2976822 Z" id="Shape"/> </g> </g> </g> 
    </symbol>
    <symbol id="close" viewBox="0 0 14 14">
       <path fill-rule="nonzero" d="M8.414 7l5.293 5.293a1 1 0 0 1-1.414 1.414L7 8.414l-5.293 5.293a1 1 0 1 1-1.414-1.414L5.586 7 .293 1.707A1 1 0 0 1 1.707.293L7 5.586 12.293.293a1 1 0 0 1 1.414 1.414L8.414 7z"/> 
    </symbol>
    <symbol id="cross" viewBox="0 0 14 14">
       <!-- Generator: sketchtool 50.2 (55047) - http://www.bohemiancoding.com/sketch --> <title>6E98FE80-B0A0-400E-9573-820421BCE553</title> <desc>Created with sketchtool.</desc>  <g id="UI_desktop" stroke="none" stroke-width="1" fill-rule="evenodd"> <g id="UI_LEKKI" transform="translate(-668.000000, -978.000000)" fill-rule="nonzero"> <g id="x" transform="translate(668.000000, 950.000000)"> <g id="Combined-Shape-Copy"> <path d="M8.41421356,35 L13.7071068,40.2928932 C14.0976311,40.6834175 14.0976311,41.3165825 13.7071068,41.7071068 C13.3165825,42.0976311 12.6834175,42.0976311 12.2928932,41.7071068 L7,36.4142136 L1.70710678,41.7071068 C1.31658249,42.0976311 0.683417511,42.0976311 0.292893219,41.7071068 C-0.0976310729,41.3165825 -0.0976310729,40.6834175 0.292893219,40.2928932 L5.58578644,35 L0.292893219,29.7071068 C-0.0976310729,29.3165825 -0.0976310729,28.6834175 0.292893219,28.2928932 C0.683417511,27.9023689 1.31658249,27.9023689 1.70710678,28.2928932 L7,33.5857864 L12.2928932,28.2928932 C12.6834175,27.9023689 13.3165825,27.9023689 13.7071068,28.2928932 C14.0976311,28.6834175 14.0976311,29.3165825 13.7071068,29.7071068 L8.41421356,35 Z"/> </g> </g> </g> </g> 
    </symbol>
    <symbol id="delete" viewBox="0 0 15 17">
       <path fill-rule="nonzero" d="M11.25 3h3a.75.75 0 1 1 0 1.5h-.75v9.75a2.25 2.25 0 0 1-2.25 2.25h-7.5a2.25 2.25 0 0 1-2.25-2.25V4.5H.75a.75.75 0 1 1 0-1.5h3v-.75A2.25 2.25 0 0 1 6 0h3a2.25 2.25 0 0 1 2.25 2.25V3zm-1.5 0v-.75A.75.75 0 0 0 9 1.5H6a.75.75 0 0 0-.75.75V3h4.5zM12 4.5H3v9.75c0 .414.336.75.75.75h7.5a.75.75 0 0 0 .75-.75V4.5zm-6.75 3a.75.75 0 1 1 1.5 0V12a.75.75 0 1 1-1.5 0V7.5zm3 0a.75.75 0 1 1 1.5 0V12a.75.75 0 1 1-1.5 0V7.5z"/> 
    </symbol>
    <symbol id="delivery" viewBox="0 0 19 17">
       <path fill="#2B2B2B" fill-rule="evenodd" stroke="#2B2B2B" stroke-width=".4" d="M13.804 9.481c.487 0 .882.396.882.885a.884.884 0 1 1-1.765 0c0-.489.395-.885.883-.885zm-8.759 0c.488 0 .883.396.883.885a.884.884 0 1 1-1.765 0c0-.489.395-.885.882-.885zm11.793 3.46H2.185c-.02-.94-.046-2.846.013-4.097.049-1.056.857-1.102 1.1-1.094h.04c.106 0 10.657-.098 12.334 0 1.096.062 1.164 1.188 1.166 1.413v3.778zM5.288 2.962c.007-.02.013-.035.018-.054.002-.008.24-.753.878-.742.719.008 6.212 0 6.477 0 .003 0 .435-.019.636.466.258.625 1.13 2.757 1.608 3.93-2.615-.047-9.248.003-11.102.019l1.484-3.619zm10.91 3.693c-.352-.862-1.522-3.728-1.828-4.47-.41-.99-1.305-1.207-1.742-1.183-.057 0-5.72.007-6.434 0h-.019c-1.172 0-1.785.95-1.972 1.541L2.492 6.717a2.14 2.14 0 0 0-.749.43c-.436.397-.673.948-.706 1.643-.081 1.747-.004 4.628 0 4.752a.579.579 0 0 0 .58.563h1.578v1.313a.581.581 0 1 0 1.161 0v-1.313h10.116v1.313a.581.581 0 1 0 1.162 0v-1.313h1.785c.321 0 .581-.26.581-.582v-4.36c0-.769-.393-2.178-1.801-2.508z"/> 
    </symbol>
    <symbol id="email" viewBox="0 0 17 17">
       <path fill="#EA2B16" fill-rule="nonzero" d="M12.364 8.5v.773a1.545 1.545 0 1 0 3.09 0V8.5a6.954 6.954 0 1 0-2.726 5.522.773.773 0 0 1 .94 1.227A8.5 8.5 0 1 1 17 8.5v.773a3.09 3.09 0 0 1-5.61 1.791 3.864 3.864 0 1 1 .974-2.564zM8.5 10.818a2.318 2.318 0 1 0 0-4.636 2.318 2.318 0 0 0 0 4.636z"/> 
    </symbol>
    <symbol id="eye" viewBox="0 0 18 14">
       <path fill-rule="nonzero" d="M.08 6.415c.105-.211.302-.563.59-1.01a15.37 15.37 0 0 1 1.69-2.168C4.245 1.224 6.464 0 9 0c2.535 0 4.754 1.224 6.64 3.237a15.37 15.37 0 0 1 1.69 2.169c.288.446.485.798.59 1.009a.75.75 0 0 1 0 .67c-.105.211-.302.563-.59 1.01a15.37 15.37 0 0 1-1.69 2.168C13.755 12.276 11.536 13.5 9 13.5c-2.535 0-4.754-1.224-6.64-3.237A15.37 15.37 0 0 1 .67 8.094a11.39 11.39 0 0 1-.59-1.009.75.75 0 0 1 0-.67zm1.85.866c.432.667.941 1.335 1.523 1.956C5.083 10.974 6.941 12 9 12c2.059 0 3.918-1.026 5.547-2.763a13.885 13.885 0 0 0 1.847-2.487 13.885 13.885 0 0 0-1.848-2.487C12.919 2.526 11.06 1.5 9 1.5S5.082 2.526 3.453 4.263A13.885 13.885 0 0 0 1.606 6.75c.094.163.202.341.325.53zM9 9.75a3 3 0 1 1 0-6 3 3 0 0 1 0 6zm0-1.5a1.5 1.5 0 1 0 0-3 1.5 1.5 0 0 0 0 3z"/> 
    </symbol>
    <symbol id="fb" viewBox="0 0 9 18">
       <!-- Generator: sketchtool 50.2 (55047) - http://www.bohemiancoding.com/sketch --> <title>EFBFAB8C-F719-4BD3-916F-F3C74B8610E6</title> <desc>Created with sketchtool.</desc>  <g id="UI_desktop" stroke="none" stroke-width="1" fill-rule="evenodd"> <g id="UI_LEKKI" transform="translate(-264.000000, -955.000000)"> <g id="Group-12" transform="translate(248.000000, 944.000000)"> <path d="M21.9847592,29 L17.9941069,29 L17.9941069,19.9988639 L16,19.9988639 L16,16.8973744 L17.9941069,16.8973744 L17.9941069,15.0353446 C17.9941069,12.5053017 19.1194879,11 22.3188376,11 L24.981711,11 L24.981711,14.1026256 L23.3174152,14.1026256 C22.0719366,14.1026256 21.9896363,14.5360389 21.9896363,15.3449255 L21.9841496,16.8973744 L25,16.8973744 L24.647023,19.9988639 L21.9841496,19.9988639 L21.9841496,29 L21.9847592,29 Z" id="Shape"/> </g> </g> </g> 
    </symbol>
    <symbol id="google-play" viewBox="0 0 14 15">
       <path fill="#2B2B2B" fill-rule="evenodd" d="M8.07 7.76L.78 14.795l-.008.009-.21.196 6.42-3.599 3.07-1.73-.097-.086L8.07 7.76zm2.36-2.268l-.044.043h-.01l-.07.076-.894.862-.956.92-.018.01v.007l-.07.06 1.939 1.876.07.077h.009l.043.042 2.939-1.653c.321-.181.34-.423.13-.589-.014-.012-.034-.023-.052-.034l-.052-.035c-.29-.151-2.64-1.48-2.965-1.662zM.087.068A.472.472 0 0 0 0 .358v14.378c0 .077.017.143.044.195l.01-.007h.008l.096-.103 7.614-7.35-.062-.06h-.008l-.027-.017L.202.17.123.094.088.068zM.614 0l.15.137.017.017h.008L8.07 7.19l.773-.742 1.113-1.075.097-.085-3.07-1.73L.693.025C.685.02.675.02.667.018.649.008.63.008.614 0z"/> 
    </symbol>
    <symbol id="heart" viewBox="0 0 18 16">
       <!-- Generator: sketchtool 50.2 (55047) - http://www.bohemiancoding.com/sketch --> <title>58709569-B8FD-426C-AB74-499414118621</title> <desc>Created with sketchtool.</desc>  <g id="UI_desktop" stroke="none" stroke-width="1" fill-rule="evenodd"> <g id="UI_LEKKI" transform="translate(-1051.000000, -220.000000)" fill-rule="nonzero"> <g id="HEADER" transform="translate(48.000000, 152.000000)"> <path d="M1011.85301,69.4286636 C1012.76732,68.5139288 1014.00764,68 1015.30097,68 C1016.59429,68 1017.83462,68.5139288 1018.74892,69.4286636 C1019.66341,70.3427202 1020.17734,71.5830423 1020.17734,72.8763692 C1020.17734,74.1696961 1019.66341,75.4100182 1018.7488,76.3241993 L1012.1188,82.9541993 C1011.8259,83.2470925 1011.35103,83.2470925 1011.05814,82.9541993 L1004.42814,76.3241993 C1002.52395,74.4200153 1002.52395,71.3327231 1004.42814,69.4285392 C1006.33232,67.5243552 1009.41961,67.5243552 1011.3238,69.4285391 L1011.58847,69.6932091 L1011.85301,69.4286636 Z M1011.58847,81.363209 L1016.89314,76.0585391 L1017.68826,75.2634147 C1018.32154,74.6304339 1018.67734,73.7717494 1018.67734,72.8763692 C1018.67734,71.9809891 1018.32154,71.1223045 1017.68826,70.4893238 C1017.05503,69.8557968 1016.19635,69.5 1015.30097,69.5 C1014.40559,69.5 1013.5469,69.8557968 1012.9138,70.4891993 L1012.1188,71.2841993 C1011.8259,71.5770925 1011.35103,71.5770925 1011.05814,71.2841993 L1010.26314,70.4891993 C1008.94474,69.1708018 1006.8072,69.1708018 1005.4888,70.4891993 C1004.1704,71.8075969 1004.1704,73.9451416 1005.4888,75.2635391 L1011.58847,81.363209 Z" id="Shape"/> </g> </g> </g> 
    </symbol>
    <symbol id="insta" viewBox="0 0 18 18">
       <path fill-rule="evenodd" d="M9 1.622c2.403 0 2.688.009 3.637.052.877.04 1.354.187 1.67.31.421.163.72.358 1.036.673.315.315.51.615.673 1.035.123.317.27.794.31 1.671.043.95.052 1.234.052 3.637s-.009 2.688-.052 3.637c-.04.877-.187 1.354-.31 1.671-.163.42-.358.72-.673 1.035-.315.315-.615.51-1.035.673-.317.123-.794.27-1.671.31-.95.043-1.234.052-3.637.052s-2.688-.009-3.637-.052c-.877-.04-1.354-.187-1.67-.31a2.788 2.788 0 0 1-1.036-.673 2.788 2.788 0 0 1-.673-1.035c-.123-.317-.27-.794-.31-1.671-.043-.95-.052-1.234-.052-3.637s.009-2.688.052-3.637c.04-.877.187-1.354.31-1.67.163-.421.358-.72.673-1.036.315-.315.615-.51 1.035-.673.317-.123.794-.27 1.671-.31.95-.043 1.234-.052 3.637-.052M9 0c2.444 0 2.75.01 3.71.054.959.044 1.613.196 2.185.419.592.23 1.094.537 1.594 1.038.5.5.808 1.002 1.038 1.594.223.572.375 1.226.419 2.184C17.99 6.25 18 6.556 18 9s-.01 2.75-.054 3.71c-.044.959-.196 1.613-.419 2.185a4.412 4.412 0 0 1-1.038 1.594c-.5.5-1.002.809-1.594 1.039-.572.222-1.226.374-2.184.418C11.75 17.99 11.444 18 9 18s-2.75-.01-3.71-.054c-.959-.044-1.613-.196-2.185-.418a4.412 4.412 0 0 1-1.594-1.039c-.5-.5-.809-1.002-1.039-1.594-.222-.572-.374-1.226-.418-2.184C.01 11.75 0 11.444 0 9s.01-2.75.054-3.71C.098 4.33.25 3.676.472 3.104A4.412 4.412 0 0 1 1.511 1.51c.5-.5 1.002-.808 1.594-1.038C3.677.25 4.33.098 5.289.054 6.25.01 6.556 0 9 0zm.018 4.393a4.625 4.625 0 1 0 0 9.25 4.625 4.625 0 0 0 0-9.25zm0 7.627a3.002 3.002 0 1 1 0-6.004 3.002 3.002 0 0 1 0 6.004zm5.84-7.841a1.071 1.071 0 1 0-2.144 0 1.071 1.071 0 0 0 2.143 0z"/> 
    </symbol>
    <symbol id="location" viewBox="0 0 15 18">
       <!-- Generator: sketchtool 50.2 (55047) - http://www.bohemiancoding.com/sketch --> <title>1292D3D0-B9CB-445C-8461-06AE1CAD5BF7</title> <desc>Created with sketchtool.</desc>  <g id="UI_desktop" stroke="none" stroke-width="1" fill-rule="evenodd"> <g id="UI_LEKKI" transform="translate(-144.000000, -163.000000)" fill-rule="nonzero"> <g id="HEADER" transform="translate(48.000000, 152.000000)"> <path d="M107.419465,25.8595584 C106.655252,26.6662276 105.83869,27.4011332 105.021883,28.0515538 C104.735549,28.2795602 104.46913,28.481082 104.229157,28.654396 C104.082918,28.7600131 103.976359,28.833815 103.916025,28.8740376 C103.664101,29.0419873 103.335899,29.0419873 103.083975,28.8740376 C103.023641,28.833815 102.917082,28.7600131 102.770843,28.654396 C102.53087,28.481082 102.264451,28.2795602 101.978117,28.0515538 C101.16131,27.4011332 100.344748,26.6662276 99.5805355,25.8595584 C97.3518012,23.5070055 96,21.0287033 96,18.4999999 C96.0000001,14.3578643 99.3578644,11 103.5,11 C107.642136,11 111,14.3578643 111,18.4999999 C111,21.0287033 109.648199,23.5070055 107.419465,25.8595584 Z M104.087492,26.8781335 C104.852716,26.2687884 105.618186,25.579866 106.330535,24.8279414 C108.320551,22.7273693 109.5,20.5650465 109.5,18.4999999 C109.5,15.1862914 106.813708,12.5 103.5,12.5 C100.186292,12.5 97.5,15.1862914 97.5,18.4999999 C97.5,20.5650465 98.6794488,22.7273693 100.669465,24.8279414 C101.381814,25.579866 102.147284,26.2687884 102.912508,26.8781335 C103.121378,27.0444565 103.318266,27.1952076 103.5,27.3294625 C103.681734,27.1952076 103.878622,27.0444565 104.087492,26.8781335 Z M103.5,21.4999999 C101.843146,21.4999999 100.5,20.1568541 100.5,18.4999999 C100.5,16.8431456 101.843146,15.4999999 103.5,15.4999999 C105.156854,15.4999999 106.5,16.8431456 106.5,18.4999999 C106.5,20.1568541 105.156854,21.4999999 103.5,21.4999999 Z M103.5,19.9999999 C104.328427,19.9999999 105,19.328427 105,18.4999999 C105,17.6715728 104.328427,16.9999999 103.5,16.9999999 C102.671573,16.9999999 102,17.6715728 102,18.4999999 C102,19.328427 102.671573,19.9999999 103.5,19.9999999 Z" id="Combined-Shape"/> </g> </g> </g> 
    </symbol>
    <symbol id="mark" viewBox="0 0 10 8">
       <path fill="#EA2B16" fill-rule="nonzero" stroke="#EA2B16" stroke-width="2" d="M1.759 3.797a.444.444 0 0 0-.629.628l2.222 2.223a.444.444 0 0 0 .629 0l4.889-4.89a.444.444 0 1 0-.629-.628L3.667 5.705 1.759 3.797z"/> 
    </symbol>
    <symbol id="menu-default" viewBox="0 0 16 14">
       <!-- Generator: sketchtool 50.2 (55047) - http://www.bohemiancoding.com/sketch --> <title>A9D3B04A-3F9B-48A5-B202-83169BC5CE67</title> <desc>Created with sketchtool.</desc>  <g id="UI_desktop" stroke="none" stroke-width="1" fill-rule="evenodd"> <g id="UI_LEKKI" transform="translate(-161.000000, -293.000000)" fill-rule="nonzero"> <g id="HEADER" transform="translate(48.000000, 152.000000)"> <path d="M114.066667,143 C113.477563,143 113,142.552285 113,142 C113,141.447715 113.477563,141 114.066667,141 L127.933333,141 C128.522437,141 129,141.447715 129,142 C129,142.552285 128.522437,143 127.933333,143 L114.066667,143 Z M114.066667,149 C113.477563,149 113,148.552285 113,148 C113,147.447715 113.477563,147 114.066667,147 L127.933333,147 C128.522437,147 129,147.447715 129,148 C129,148.552285 128.522437,149 127.933333,149 L114.066667,149 Z M114.066667,155 C113.477563,155 113,154.552285 113,154 C113,153.447715 113.477563,153 114.066667,153 L127.933333,153 C128.522437,153 129,153.447715 129,154 C129,154.552285 128.522437,155 127.933333,155 L114.066667,155 Z" id="Combined-Shape"/> </g> </g> </g> 
    </symbol>
    <symbol id="minus" viewBox="0 0 16 2">
       <path fill-rule="nonzero" transform="translate(-16 -20)" d="M17 22h14a1 1 0 0 0 0-2H17a1 1 0 0 0 0 2z"/> 
    </symbol>
    <symbol id="odnoklassniki" viewBox="0 0 14 24">
       <path fill-rule="evenodd" d="M6.984 3.63a2.576 2.576 0 0 1 2.583 2.564 2.576 2.576 0 0 1-2.583 2.563c-1.423 0-2.583-1.15-2.583-2.563 0-1.414 1.16-2.564 2.583-2.564zm0 8.755c-3.44 0-6.238-2.777-6.238-6.191C.746 2.778 3.544 0 6.984 0c3.44 0 6.238 2.778 6.238 6.194 0 3.414-2.797 6.191-6.238 6.191zm2.54 5.055l3.487 3.463a1.804 1.804 0 0 1 0 2.566 1.835 1.835 0 0 1-2.583 0l-3.429-3.403-3.425 3.403a1.832 1.832 0 0 1-1.293.53 1.83 1.83 0 0 1-1.292-.53 1.806 1.806 0 0 1 0-2.566l3.487-3.463a11.751 11.751 0 0 1-3.623-1.489 1.807 1.807 0 0 1-.572-2.502 1.833 1.833 0 0 1 2.52-.57 7.968 7.968 0 0 0 8.398 0 1.834 1.834 0 0 1 2.52.57c.538.847.28 1.968-.573 2.502a11.733 11.733 0 0 1-3.622 1.49z"/> 
    </symbol>
    <symbol id="page-next" viewBox="0 0 11 9">
       <path fill-rule="nonzero" d="M8.69 4.5L5.47 7.72a.75.75 0 0 0 1.06 1.06l3.75-3.75a.75.75 0 0 0 0-1.06L6.53.22a.75.75 0 1 0-1.06 1.06L8.69 4.5zM.22 1.28L3.44 4.5.22 7.72a.75.75 0 0 0 1.06 1.06l3.75-3.75a.75.75 0 0 0 0-1.06L1.28.22A.75.75 0 1 0 .22 1.28z"/> 
    </symbol>
    <symbol id="page-prev" viewBox="0 0 11 9">
       <path fill-rule="nonzero" d="M1.81 4.5l3.22 3.22a.75.75 0 0 1-1.06 1.06L.22 5.03a.75.75 0 0 1 0-1.06L3.97.22a.75.75 0 0 1 1.06 1.06L1.81 4.5zm8.47-3.22L7.06 4.5l3.22 3.22a.75.75 0 0 1-1.06 1.06L5.47 5.03a.75.75 0 0 1 0-1.06L9.22.22a.75.75 0 0 1 1.06 1.06z"/> 
    </symbol>
    <symbol id="person" viewBox="0 0 15 18">
       <path fill="#000" fill-rule="nonzero" d="M14.506 7.745l-2.478-.61-2.05-1.511a3.176 3.176 0 0 0 .349-4.475A3.296 3.296 0 0 0 5.79.703a3.177 3.177 0 0 0-.557 4.455h-.017a.657.657 0 0 0-.46.188L.19 9.84a.635.635 0 0 0 0 .908l1.304 1.284a.66.66 0 0 0 .869.047l2.201-1.733v1.156l-.571 2.25-1.747 1.145a.634.634 0 0 0-.18.89l1.303 1.927c.194.284.58.37.879.192l3.26-1.926a.644.644 0 0 0 .284-.348l.23-.68 1.869 2.76c.182.27.54.364.834.22l2.609-1.285a.645.645 0 0 0 .327-.371.633.633 0 0 0-.035-.49l-1.956-3.854a.672.672 0 0 0-.042-.069l-.958-1.413 2.917.479a.651.651 0 0 0 .727-.432l.652-1.927a.633.633 0 0 0-.047-.512.65.65 0 0 0-.414-.314zM5.87 3.231c0-1.064.876-1.926 1.957-1.926 1.08 0 1.956.862 1.956 1.926s-.875 1.927-1.956 1.927c-1.08 0-1.957-.863-1.957-1.927zM4.11 16.493l-.598-.883 1.414-.928a.642.642 0 0 0 .27-.38l.415-1.629 1.446 1.068-.427 1.262-2.52 1.49zm8.057-.707l-1.51.744-2.29-3.382a.573.573 0 0 0-.07-.072.533.533 0 0 0-.065-.064c-.007-.006-.012-.015-.019-.02l-2.343-1.734V9.01a.641.641 0 0 0-.37-.579.66.66 0 0 0-.69.078l-2.804 2.21-.43-.424 3.912-3.853h3.078l.572 3.944a.636.636 0 0 0 .103.265l1.281 1.891 1.645 3.244zm1.085-6.216l-2.986-.489-.267-1.838 1.35.997c.07.051.148.088.233.11l1.925.473-.255.747z"/> 
    </symbol>
    <symbol id="phone" viewBox="0 0 17 17">
       <path fill="#EA2B16" fill-rule="nonzero" d="M15.346 12.284a.776.776 0 0 0-.656-.801c-.799-.105-1.583-.3-2.34-.583a.77.77 0 0 0-.81.17l-.98.98a.772.772 0 0 1-.927.126 13.118 13.118 0 0 1-4.92-4.92.772.772 0 0 1 .126-.926l.977-.977a.772.772 0 0 0 .173-.816 10.662 10.662 0 0 1-.581-2.33.774.774 0 0 0-.78-.664H2.314a.772.772 0 0 0-.769.83A14.506 14.506 0 0 0 3.798 8.73a14.284 14.284 0 0 0 4.398 4.396 14.486 14.486 0 0 0 6.31 2.248.772.772 0 0 0 .84-.775v-2.315zM9.47 10.96l.927-.125c-.17-.096-.337-.197-.5-.301l-.427.426zm7.42 3.637a2.315 2.315 0 0 1-2.537 2.314 16.034 16.034 0 0 1-6.99-2.485A15.81 15.81 0 0 1 2.5 9.563a16.053 16.053 0 0 1-2.49-7.04A2.315 2.315 0 0 1 2.313 0h2.308a2.317 2.317 0 0 1 2.316 1.998c.09.683.257 1.354.497 1.998.318.846.115 1.8-.524 2.445l-.553.553a11.575 11.575 0 0 0 3.538 3.539l.557-.557a2.314 2.314 0 0 1 2.44-.521c.646.24 1.316.408 2.006.499a2.315 2.315 0 0 1 1.992 2.339v2.303z"/> 
    </symbol>
    <symbol id="play-market" viewBox="0 0 14 15">
       <!-- Generator: sketchtool 50.2 (55047) - http://www.bohemiancoding.com/sketch --> <title>D2895947-1B4D-4E9B-BD7A-2D63DC283B26</title> <desc>Created with sketchtool.</desc>  <g id="UI_desktop" stroke="none" stroke-width="1" fill="none" fill-rule="evenodd"> <g id="UI_LEKKI" transform="translate(-727.000000, -212.000000)" fill="#2B2B2B"> <g id="HEADER" transform="translate(48.000000, 152.000000)"> <path d="M687.069712,67.7604567 L679.780831,74.7952574 L679.771797,74.80404 L679.561769,75 C679.883022,74.8194094 685.981743,71.4013613 685.981743,71.4013613 L689.051994,69.6701065 L688.955448,69.5850258 L687.069712,67.7604567 Z M689.429141,65.4918213 L689.385667,65.5346361 L689.376634,65.5346361 L689.306625,65.6114831 L688.411747,66.4727193 L687.455892,67.3937864 L687.437826,67.4025689 L687.437826,67.4102536 L687.367816,67.4706334 L689.306625,69.346251 L689.376634,69.423098 L689.385667,69.423098 L689.429141,69.4653639 L692.367842,67.8115051 C692.689095,67.6309145 692.708291,67.3888462 692.498827,67.2230761 C692.484148,67.2110001 692.463822,67.200022 692.44632,67.1890438 L692.393813,67.1544626 C692.103613,67.0029641 689.754346,65.6746075 689.429141,65.4918213 L689.429141,65.4918213 Z M679.088076,60.0680646 C679.035569,60.1372269 679,60.2343836 679,60.3584367 L679,67.4788671 L679,74.7359754 C679,74.8128225 679.016938,74.8786914 679.044038,74.9313865 L679.053072,74.9237018 L679.061541,74.9237018 L679.158086,74.8210561 L686.771607,67.4706334 L686.710067,67.4102536 L686.701598,67.4102536 L686.675062,67.3937864 L679.201559,60.1707103 L679.123081,60.0938632 L679.087512,60.0680646 L679.088076,60.0680646 Z M679.614276,60 L679.763328,60.136678 L679.780831,60.1542431 L679.789299,60.1542431 L687.069712,67.1890438 L687.841509,66.4469206 L688.955448,65.3721594 L689.051994,65.2870787 L685.981743,63.5563728 L679.693319,60.0257987 C679.68485,60.0208585 679.675252,60.0214074 679.666783,60.017565 C679.649281,60.0082336 679.631214,60.0076847 679.614276,60 L679.614276,60 Z" id="Shape"/> </g> </g> </g> 
    </symbol>
    <symbol id="plus" viewBox="0 0 16 16">
        <path class="st0" d="M9,7h6c0.6,0,1,0.4,1,1s-0.4,1-1,1H9v6c0,0.6-0.4,1-1,1s-1-0.4-1-1V9H1C0.4,9,0,8.6,0,8s0.4-1,1-1h6V1
	c0-0.6,0.4-1,1-1s1,0.4,1,1V7z"/> 
    </symbol>
    <symbol id="rubl" viewBox="0 0 13 14">
       <path fill="#2B2B2B" fill-rule="evenodd" d="M2.089 13.6a.438.438 0 0 1-.128-.323v-2.55H.451a.438.438 0 0 1-.451-.45v-.432a.438.438 0 0 1 .451-.451h1.51V8.276H.451A.438.438 0 0 1 0 7.825v-.628a.438.438 0 0 1 .451-.45h1.51V.47c0-.144.04-.259.118-.344A.431.431 0 0 1 2.412 0h4.962c1.477 0 2.638.356 3.481 1.069.843.712 1.265 1.749 1.265 3.108 0 1.334-.422 2.35-1.265 3.05-.843.7-2.004 1.05-3.481 1.05h-3.53v1.117h3.844a.438.438 0 0 1 .45.451v.432a.438.438 0 0 1-.45.45H3.844v2.55c0 .13-.046.239-.137.324a.472.472 0 0 1-.334.127h-.96a.438.438 0 0 1-.324-.127zm5.187-6.854c.98 0 1.72-.215 2.216-.647.497-.431.745-1.072.745-1.922 0-.823-.248-1.46-.745-1.912-.497-.45-1.235-.676-2.216-.676H3.824v5.157h3.452z"/> 
    </symbol>
    <symbol id="search" viewBox="0 0 16 16">
       <!-- Generator: sketchtool 50.2 (55047) - http://www.bohemiancoding.com/sketch --> <title>4692329B-B6B8-4EAC-8C64-97417407DCE9</title> <desc>Created with sketchtool.</desc>  <g id="UI_desktop" stroke="none" stroke-width="1" fill-rule="evenodd"> <g id="UI_LEKKI" transform="translate(-344.000000, -292.000000)" fill-rule="nonzero"> <g id="HEADER" transform="translate(48.000000, 152.000000)"> <path d="M308.14082,151.009449 L311.765685,154.634315 C312.078105,154.946734 312.078105,155.453266 311.765685,155.765685 C311.453266,156.078105 310.946734,156.078105 310.634315,155.765685 L307.009449,152.14082 C305.851615,153.054637 304.389496,153.6 302.8,153.6 C299.044464,153.6 296,150.555536 296,146.8 C296,143.044464 299.044464,140 302.8,140 C306.555536,140 309.6,143.044464 309.6,146.8 C309.6,148.389496 309.054637,149.851615 308.14082,151.009449 Z M306.527807,150.425395 C307.438894,149.488734 308,148.209894 308,146.8 C308,143.928119 305.671881,141.6 302.8,141.6 C299.928119,141.6 297.6,143.928119 297.6,146.8 C297.6,149.671881 299.928119,152 302.8,152 C304.209894,152 305.488734,151.438894 306.425395,150.527807 C306.440748,150.509427 306.457054,150.491575 306.474315,150.474315 C306.491575,150.457054 306.509427,150.440748 306.527807,150.425395 Z" id="Combined-Shape"/> </g> </g> </g> 
    </symbol>
    <symbol id="settings" viewBox="0 0 18 18">
       <path fill-rule="evenodd" d="M1.738 17.348c0 .357.28.636.636.636a.63.63 0 0 0 .636-.636V4.737A2.408 2.408 0 0 0 2.39 0 2.395 2.395 0 0 0 0 2.407C0 3.51.745 4.442 1.753 4.721v12.627h-.015zM1.24 2.408a1.14 1.14 0 0 1 1.133-1.134c.62 0 1.133.512 1.133 1.133a1.14 1.14 0 0 1-1.133 1.134 1.14 1.14 0 0 1-1.133-1.134zM8.984 0a.63.63 0 0 1 .637.637V7.16a2.417 2.417 0 0 1 1.784 2.33c0 1.117-.76 2.05-1.784 2.329v5.544a.63.63 0 0 1-.637.637.63.63 0 0 1-.636-.637V11.82a2.403 2.403 0 0 1 0-4.628V.637A.63.63 0 0 1 8.984 0zm1.164 9.505A1.13 1.13 0 0 0 9.015 8.37a1.14 1.14 0 0 0-1.132 1.134 1.14 1.14 0 0 0 1.132 1.133 1.14 1.14 0 0 0 1.133-1.133zm6.083 3.758c1.024.28 1.784 1.212 1.769 2.314a2.398 2.398 0 0 1-2.405 2.407 2.408 2.408 0 0 1-2.406-2.407 2.4 2.4 0 0 1 1.77-2.314V.637A.63.63 0 0 1 15.594 0a.63.63 0 0 1 .636.637v12.626zm-.62 3.448a1.14 1.14 0 0 0 1.132-1.134 1.14 1.14 0 0 0-1.133-1.134 1.14 1.14 0 0 0-1.133 1.134 1.14 1.14 0 0 0 1.133 1.134z"/> 
    </symbol>
    <symbol id="star-empty" viewBox="0 0 30 30">
        <g> <path class="st0" d="M30,11.3L19.6,9.7L15,0l-4.6,9.7L0,11.3l7.5,7.6L5.7,29.5l9.3-5l9.3,5l-1.8-10.7L30,11.3"/> </g> 
    </symbol>
    <symbol id="star-stroke-red" viewBox="0 0 17 17">
       <g id="UI_desktop" fill="#EA2B16" stroke="none" stroke-width="1" fill-rule="evenodd"> <g id="UI_LEKKI" transform="translate(-450.000000, -1072.000000)" fill-rule="nonzero"> <g id="ICON" transform="translate(48.000000, 1071.000000)"> <path d="M408.806024,6.95202757 C408.693561,7.17986427 408.476282,7.33785553 408.224872,7.37460287 L404.433705,7.92873876 L407.176362,10.6000869 C407.358628,10.7776141 407.441822,11.0334881 407.398811,11.2842608 L406.751708,15.0572022 L410.141174,13.2747159 C410.366334,13.1563068 410.635348,13.1563068 410.860508,13.2747159 L414.249974,15.0572022 L413.602871,11.2842608 C413.55986,11.0334881 413.643054,10.7776141 413.82532,10.6000869 L416.567977,7.92873876 L412.77681,7.37460287 C412.5254,7.33785553 412.308121,7.17986427 412.195658,6.95202757 L410.500841,3.51851472 L408.806024,6.95202757 Z M407.599821,5.90408744 L409.807931,1.4306997 C410.091394,0.856433433 410.910288,0.856433433 411.193751,1.4306997 L413.401861,5.90408744 L418.339872,6.62585167 C418.973442,6.71845748 419.225957,7.49724392 418.767271,7.94400399 L415.19479,11.4236007 L416.037902,16.3393756 C416.146176,16.9706646 415.483524,17.4520451 414.916629,17.1539204 L410.500841,14.831702 L406.085053,17.1539204 C405.518158,17.4520451 404.855506,16.9706646 404.96378,16.3393756 L405.806892,11.4236007 L402.234411,7.94400399 C401.775725,7.49724392 402.02824,6.71845748 402.66181,6.62585167 L407.599821,5.90408744 Z" id="Shape"/> </g> </g> </g> 
    </symbol>
    <symbol id="star-stroke" viewBox="0 0 17 17">
       <g id="UI_desktop" stroke="none" stroke-width="1" fill-rule="evenodd"> <g id="UI_LEKKI" transform="translate(-450.000000, -1072.000000)" fill-rule="nonzero"> <g id="ICON" transform="translate(48.000000, 1071.000000)"> <path d="M408.806024,6.95202757 C408.693561,7.17986427 408.476282,7.33785553 408.224872,7.37460287 L404.433705,7.92873876 L407.176362,10.6000869 C407.358628,10.7776141 407.441822,11.0334881 407.398811,11.2842608 L406.751708,15.0572022 L410.141174,13.2747159 C410.366334,13.1563068 410.635348,13.1563068 410.860508,13.2747159 L414.249974,15.0572022 L413.602871,11.2842608 C413.55986,11.0334881 413.643054,10.7776141 413.82532,10.6000869 L416.567977,7.92873876 L412.77681,7.37460287 C412.5254,7.33785553 412.308121,7.17986427 412.195658,6.95202757 L410.500841,3.51851472 L408.806024,6.95202757 Z M407.599821,5.90408744 L409.807931,1.4306997 C410.091394,0.856433433 410.910288,0.856433433 411.193751,1.4306997 L413.401861,5.90408744 L418.339872,6.62585167 C418.973442,6.71845748 419.225957,7.49724392 418.767271,7.94400399 L415.19479,11.4236007 L416.037902,16.3393756 C416.146176,16.9706646 415.483524,17.4520451 414.916629,17.1539204 L410.500841,14.831702 L406.085053,17.1539204 C405.518158,17.4520451 404.855506,16.9706646 404.96378,16.3393756 L405.806892,11.4236007 L402.234411,7.94400399 C401.775725,7.49724392 402.02824,6.71845748 402.66181,6.62585167 L407.599821,5.90408744 Z" id="Shape"/> </g> </g> </g> 
    </symbol>
    <symbol id="star" viewBox="0 0 30 30">
        <g> <path class="st0" d="M30,11.3L19.6,9.7L15,0l-4.6,9.7L0,11.3l7.5,7.6L5.7,29.5l9.3-5l9.3,5l-1.8-10.7L30,11.3 M68,11.3L57.6,9.7
		L53,0l-4.6,9.7L38,11.3l7.5,7.6l-1.8,10.7l9.3-5l9.3,5l-1.8-10.7L68,11.3 M107,11.3L96.6,9.7L92,0l-4.6,9.7L77,11.3l7.5,7.6
		l-1.8,10.7l9.3-5l9.3,5l-1.8-10.7L107,11.3 M145,11.3l-10.4-1.6L130,0l-4.6,9.7L115,11.3l7.5,7.6l-1.8,10.7l9.3-5l9.3,5l-1.8-10.7
		L145,11.3"/> </g> 
    </symbol>
    <symbol id="sticker" viewBox="0 0 40 40">
       <!-- Generator: sketchtool 50.2 (55047) - http://www.bohemiancoding.com/sketch --> <title>F4A67A05-43D0-459F-9DFD-DB5BE13436F8</title> <desc>Created with sketchtool.</desc>  <g id="UI_desktop" stroke="none" stroke-width="1" fill-rule="evenodd"> <g id="UI_LEKKI" transform="translate(-257.000000, -368.000000)"> <g id="sale-10" transform="translate(257.000000, 368.000000)"> <path d="M27.7454905,0.358328227 C28.0594066,0.491691597 28.3619856,0.655963745 28.6478662,0.837024325 C29.9925893,1.68933489 31.17884,3.02157297 32.1230029,4.29150094 C33.4120233,6.02506056 34.4939082,7.9670184 35.4098309,9.92178307 C36.5052629,12.25948 37.4003125,14.7074716 38.1167123,17.1877265 C38.8331122,19.6679404 39.3814216,22.2167036 39.7015996,24.7796693 C39.9692673,26.9226779 40.0899224,29.143923 39.9244514,31.3000668 C39.8563885,32.1884581 39.7378207,33.0805437 39.5396484,33.9496016 C39.37385,34.6774151 39.1483379,35.4071988 38.8285692,36.0826357 C38.4414333,36.9002611 37.8921007,37.6776189 37.1216353,38.1400191 C36.9142133,38.281633 36.6973779,38.4099476 36.4770637,38.5259889 C35.0687388,39.2678406 33.3251336,39.6320552 31.7566174,39.8171795 C29.6150714,40.069909 27.3973179,40.0387129 25.2515154,39.8568314 C22.6850982,39.6393616 20.123715,39.1928057 17.6239282,38.5749586 C15.1240185,37.9571114 12.6490339,37.1589015 10.2758367,36.155454 C8.29137151,35.3165659 6.31308641,34.3106556 4.53399682,33.0889174 C3.2307745,32.1939174 1.8555193,31.0589947 0.952243228,29.7458027 C0.802324776,29.5278814 0.662310846,29.2995752 0.538872667,29.0630594 C0.319827197,28.6905943 0.179117495,28.2784772 0.096484311,27.850639 C0.0829372163,27.7827875 0.0713137273,27.7148538 0.0615729161,27.6464276 C0.00447866531,27.26407 -0.00955956266,26.8724357 0.00578835421,26.4878616 C0.0355837768,25.7407558 0.174001523,24.9895452 0.364274764,24.2678068 C0.591546717,23.4058501 0.899896599,22.5607639 1.25109787,21.7423175 C2.10358256,19.7559052 3.23949212,17.8452256 4.46937186,16.0723424 C5.94031621,13.9521152 7.60664978,11.9506796 9.39003679,10.0883128 C11.1735466,8.22594612 13.1002217,6.47547492 15.1533637,4.91587466 C16.8699566,3.61175412 18.7277094,2.39641935 20.6722291,1.46197271 C22.0966795,0.777587526 23.7642818,0.150545715 25.3498649,0.0225595695 C25.6735627,-0.00350560135 26.0037271,-0.00863654049 26.3302079,0.0159098724 C26.5940284,0.0276494611 26.855516,0.07107773 27.1121741,0.139134507" id="Clip-5"/> </g> </g> </g> 
    </symbol>
    <symbol id="telegram" viewBox="0 0 18 18">
       <path fill-rule="evenodd" d="M17.99.753l-2.57 15.429a.633.633 0 0 1-.322.452.616.616 0 0 1-.553.03l-4.55-1.858-2.43 2.963a.591.591 0 0 1-.493.23.543.543 0 0 1-.22-.04.63.63 0 0 1-.307-.236.627.627 0 0 1-.115-.366V13.85l8.678-10.637L4.37 12.505.403 10.878C.155 10.784.02 10.6 0 10.326a.595.595 0 0 1 .322-.593L17.037.09a.623.623 0 0 1 .683.02c.22.161.31.375.27.643z"/> 
    </symbol>
    <symbol id="tw" viewBox="0 0 16 14">
       <!-- Generator: sketchtool 50.2 (55047) - http://www.bohemiancoding.com/sketch --> <title>A3A3AA70-BBB1-47D7-9EEB-AF54E0C6E2D1</title> <desc>Created with sketchtool.</desc>  <g id="UI_desktop" stroke="none" stroke-width="1" fill-rule="evenodd"> <g id="UI_LEKKI" transform="translate(-428.000000, -957.000000)"> <g id="Group-12" transform="translate(248.000000, 944.000000)"> <path d="M194.115161,15.2133468 C194.793215,14.776542 195.313494,14.0839232 195.557669,13.2588473 C194.922815,13.6643074 194.221283,13.9575329 193.472795,14.1162791 C192.875506,13.4287159 192.021835,13 191.077068,13 C189.264542,13 187.795739,14.5824065 187.795739,16.5338726 C187.795739,16.8109201 187.822974,17.0808898 187.879321,17.338726 C185.152081,17.1911021 182.733815,15.7856421 181.113811,13.6461072 C180.831132,14.1698686 180.669601,14.776542 180.669601,15.4236603 C180.669601,16.6491405 181.249046,17.7310415 182.129952,18.3660263 C181.59183,18.3478261 181.085637,18.1870576 180.642367,17.9241658 L180.642367,17.9676441 C180.642367,19.6804853 181.773082,21.1092012 183.276633,21.4327604 C183.000528,21.5156724 182.711275,21.5571284 182.410753,21.5571284 C182.199448,21.5571284 181.992839,21.5358948 181.793743,21.4944388 C182.210718,22.8978766 183.423138,23.9211325 184.860011,23.9484328 C183.735869,24.8968655 182.320596,25.4610718 180.783236,25.4610718 C180.518401,25.4610718 180.256383,25.445905 180,25.4125379 C181.452838,26.4145602 183.178024,27 185.031872,27 C191.070494,27 194.370605,21.6147624 194.370605,16.9443883 C194.370605,16.7906977 194.368727,16.6380182 194.362153,16.487361 C195.00358,15.9888777 195.561425,15.3660263 196,14.6572295 C195.411164,14.9383215 194.778189,15.1284125 194.115161,15.2133468 Z" id="Shape"/> </g> </g> </g> 
    </symbol>
    <symbol id="twitter" viewBox="0 0 21 18">
       <path fill-rule="evenodd" d="M18.526 2.846A4.51 4.51 0 0 0 20.42.333a8.355 8.355 0 0 1-2.736 1.102A4.194 4.194 0 0 0 14.539 0c-2.38 0-4.307 2.035-4.307 4.544 0 .356.036.703.11 1.034-3.58-.19-6.754-1.996-8.88-4.747a4.724 4.724 0 0 0-.583 2.285c0 1.576.76 2.967 1.917 3.783a4.154 4.154 0 0 1-1.953-.568v.056c0 2.202 1.484 4.04 3.458 4.455a4.01 4.01 0 0 1-1.137.16c-.277 0-.548-.027-.81-.08.548 1.804 2.139 3.12 4.025 3.155-1.476 1.219-3.333 1.944-5.351 1.944-.348 0-.691-.02-1.028-.062A11.747 11.747 0 0 0 6.604 18c7.926 0 12.257-6.924 12.257-12.929 0-.197-.002-.394-.01-.587A9.006 9.006 0 0 0 21 2.13a8.257 8.257 0 0 1-2.474.715z"/> 
    </symbol>
    <symbol id="user-red" viewBox="0 0 15 17">
       <!-- Generator: sketchtool 50.2 (55047) - http://www.bohemiancoding.com/sketch --> <title>57D3F553-5F6E-4F42-AD82-39D52A35CA2D</title> <desc>Created with sketchtool.</desc>  <g id="UI_desktop" fill="#EA2B16" stroke="none" stroke-width="1" fill-rule="evenodd"> <g id="UI_LEKKI" transform="translate(-368.000000, -1072.000000)" fill-rule="nonzero"> <g id="ICON" transform="translate(48.000000, 1071.000000)"> <path d="M335,16.8333333 C335,17.2935706 334.626904,17.6666667 334.166667,17.6666667 C333.706429,17.6666667 333.333333,17.2935706 333.333333,16.8333333 L333.333333,15.1666667 C333.333333,13.7859548 332.214045,12.6666667 330.833333,12.6666667 L324.166667,12.6666667 C322.785955,12.6666667 321.666667,13.7859548 321.666667,15.1666667 L321.666667,16.8333333 C321.666667,17.2935706 321.293571,17.6666667 320.833333,17.6666667 C320.373096,17.6666667 320,17.2935706 320,16.8333333 L320,15.1666667 C320,12.8654802 321.86548,11 324.166667,11 L330.833333,11 C333.13452,11 335,12.8654802 335,15.1666667 L335,16.8333333 Z M327.5,9.33333333 C325.198814,9.33333333 323.333333,7.46785312 323.333333,5.16666667 C323.333333,2.86548021 325.198814,1 327.5,1 C329.801186,1 331.666667,2.86548021 331.666667,5.16666667 C331.666667,7.46785312 329.801186,9.33333333 327.5,9.33333333 Z M327.5,7.66666667 C328.880712,7.66666667 330,6.54737854 330,5.16666667 C330,3.78595479 328.880712,2.66666667 327.5,2.66666667 C326.119288,2.66666667 325,3.78595479 325,5.16666667 C325,6.54737854 326.119288,7.66666667 327.5,7.66666667 Z" id="Combined-Shape"/> </g> </g> </g> 
    </symbol>
    <symbol id="user" viewBox="0 0 15 17">
       <!-- Generator: sketchtool 50.2 (55047) - http://www.bohemiancoding.com/sketch --> <title>57D3F553-5F6E-4F42-AD82-39D52A35CA2D</title> <desc>Created with sketchtool.</desc>  <g id="UI_desktop" stroke="none" stroke-width="1" fill-rule="evenodd"> <g id="UI_LEKKI" transform="translate(-368.000000, -1072.000000)" fill-rule="nonzero"> <g id="ICON" transform="translate(48.000000, 1071.000000)"> <path d="M335,16.8333333 C335,17.2935706 334.626904,17.6666667 334.166667,17.6666667 C333.706429,17.6666667 333.333333,17.2935706 333.333333,16.8333333 L333.333333,15.1666667 C333.333333,13.7859548 332.214045,12.6666667 330.833333,12.6666667 L324.166667,12.6666667 C322.785955,12.6666667 321.666667,13.7859548 321.666667,15.1666667 L321.666667,16.8333333 C321.666667,17.2935706 321.293571,17.6666667 320.833333,17.6666667 C320.373096,17.6666667 320,17.2935706 320,16.8333333 L320,15.1666667 C320,12.8654802 321.86548,11 324.166667,11 L330.833333,11 C333.13452,11 335,12.8654802 335,15.1666667 L335,16.8333333 Z M327.5,9.33333333 C325.198814,9.33333333 323.333333,7.46785312 323.333333,5.16666667 C323.333333,2.86548021 325.198814,1 327.5,1 C329.801186,1 331.666667,2.86548021 331.666667,5.16666667 C331.666667,7.46785312 329.801186,9.33333333 327.5,9.33333333 Z M327.5,7.66666667 C328.880712,7.66666667 330,6.54737854 330,5.16666667 C330,3.78595479 328.880712,2.66666667 327.5,2.66666667 C326.119288,2.66666667 325,3.78595479 325,5.16666667 C325,6.54737854 326.119288,7.66666667 327.5,7.66666667 Z" id="Combined-Shape"/> </g> </g> </g> 
    </symbol>
    <symbol id="vk" viewBox="0 0 19 11">
       <!-- Generator: sketchtool 50.2 (55047) - http://www.bohemiancoding.com/sketch --> <title>CE366E30-7210-4D5F-9E7A-75FF49E14D61</title> <desc>Created with sketchtool.</desc>  <g id="UI_desktop" stroke="none" stroke-width="1" fill-rule="evenodd"> <g id="UI_LEKKI" transform="translate(-313.000000, -959.000000)"> <g id="Group-12" transform="translate(248.000000, 944.000000)"> <path d="M75.4317885,25.9496068 C75.4317885,25.9496068 75.7746968,25.9135194 75.9503327,25.7348424 C76.1111,25.5711286 76.1055243,25.2621847 76.1055243,25.2621847 C76.1055243,25.2621847 76.0841506,23.8195665 76.7913408,23.6065625 C77.4883089,23.3970792 78.3832158,25.0016509 79.3329509,25.6186584 C80.0503633,26.0851548 80.5949277,25.9830537 80.5949277,25.9830537 L83.1328206,25.9496068 C83.1328206,25.9496068 84.4598478,25.8721508 83.830718,24.8837065 C83.7786777,24.8027297 83.4636481,24.1522753 81.9442578,22.8161591 C80.3523828,21.4175499 80.5661197,21.6437567 82.4823171,19.2241365 C83.6495063,17.7507119 84.1160102,16.851166 83.9701116,16.4665264 C83.8316473,16.0986104 82.9729826,16.1963106 82.9729826,16.1963106 L80.116343,16.213034 C80.116343,16.213034 79.9044647,16.1857484 79.7474146,16.2746468 C79.5940816,16.3617848 79.4946475,16.5651068 79.4946475,16.5651068 C79.4946475,16.5651068 79.0430122,17.7049425 78.4399025,18.674903 C77.1677036,20.7204458 76.6593815,20.8287082 76.4512204,20.701962 C75.96706,20.4053407 76.0878678,19.511956 76.0878678,18.8773448 C76.0878678,16.8942949 76.4056852,16.067804 75.4698894,15.8539198 C75.1595063,15.7826251 74.9309008,15.7359754 74.1363573,15.7280538 C73.1169254,15.7183718 72.2545436,15.7315745 71.7657367,15.9577813 C71.4404849,16.1082924 71.1895764,16.4445219 71.3429094,16.4638859 C71.5315554,16.4876508 71.9590291,16.5730285 72.1857761,16.8652489 C72.4785026,17.2428469 72.4682804,18.089582 72.4682804,18.089582 C72.4682804,18.089582 72.6364821,20.4238245 72.0751905,20.7134044 C71.6904641,20.9123255 71.162627,20.5065616 70.027963,18.6502579 C69.4471563,17.6996614 69.0085311,16.6487241 69.0085311,16.6487241 C69.0085311,16.6487241 68.9239657,16.4524435 68.7724913,16.3468217 C68.589421,16.2191953 68.3338661,16.1795871 68.3338661,16.1795871 L65.6194079,16.1963106 C65.6194079,16.1963106 65.2114493,16.2068728 65.0618335,16.3749875 C64.9289449,16.5237383 65.0516113,16.8326821 65.0516113,16.8326821 C65.0516113,16.8326821 67.1768991,21.5425358 69.5837621,23.9163865 C71.7908275,26.0921963 74.2961953,25.9496068 74.2961953,25.9496068 L75.4317885,25.9496068 Z" id="Shape"/> </g> </g> </g> 
    </symbol>
    <symbol id="wallet" viewBox="0 0 18 17">
       <g fill="none" fill-rule="evenodd" stroke="#2B2B2B" stroke-linecap="round" stroke-linejoin="round" stroke-width="1.5"> <path d="M16.619 15.476H1.381a.381.381 0 0 1-.381-.38V1.38c0-.21.17-.381.381-.381h15.238c.21 0 .381.17.381.381v13.714c0 .21-.17.381-.381.381z"/> <path d="M17 11.571h-2.286c-2.104 0-3.81-1.395-3.81-3.117v-.623c0-1.721 1.706-3.117 3.81-3.117H17"/> <path fill="#2B2B2B" d="M14.714 8.143a.381.381 0 1 1-.762 0 .381.381 0 0 1 .762 0z"/> </g> 
    </symbol>
    <symbol id="youtube" viewBox="0 0 18 13">
       <path fill-rule="evenodd" d="M18 9.508V3.092S18 0 14.898 0H3.101S0 0 0 3.092v6.416S0 12.6 3.1 12.6h11.798S18 12.6 18 9.508m-5.505-3.199l-5.893 3.45V2.858l5.893 3.451"/> 
    </symbol></svg>