<?xml version="1.0" encoding="utf-8"?>
<!-- Generator: Adobe Illustrator 22.1.0, SVG Export Plug-In . SVG Version: 6.00 Build 0)  -->
<svg version="1.1" id="Layer_1" xmlns="http://www.w3.org/2000/svg" xmlns:xlink="http://www.w3.org/1999/xlink" x="0px" y="0px"
	 style="enable-background:new 0 0 85.5 26;" xml:space="preserve">
<style type="text/css">
	.st0{fill:#2B2B2B;}
	.st1{fill:#FFFFFF;}
	.st2{fill:url(#SVGID_1_);}
	.st3{fill:url(#SVGID_2_);}
	.st4{fill:url(#SVGID_3_);}
	.st5{fill:url(#SVGID_4_);}
	.st6{opacity:0.2;enable-background:new    ;}
	.st7{opacity:0.12;enable-background:new    ;}
	.st8{opacity:0.25;fill:#FFFFFF;enable-background:new    ;}
	.st9{fill:#FFFFFF;stroke:#FFFFFF;stroke-width:0.2;}
</style>
<g>
	<path class="st0" d="M3.2,0h79.1c1.8,0,3.2,1.5,3.2,3.3v19.5c0,1.8-1.4,3.3-3.2,3.3H3.2C1.4,26,0,24.5,0,22.8V3.3
		C0,1.5,1.4,0,3.2,0z"/>
	<path class="st1" d="M43.6,13.9c-1.5,0-2.7,1.2-2.7,2.7c0,1.5,1.2,2.7,2.7,2.7c1.5,0,2.7-1.2,2.7-2.7c0-0.7-0.3-1.4-0.8-1.9
		C45,14.1,44.3,13.8,43.6,13.9z M43.6,18.2c-0.7,0-1.3-0.3-1.6-0.9c-0.3-0.6-0.2-1.3,0.3-1.8c0.5-0.5,1.2-0.7,1.8-0.4
		c0.6,0.2,1.1,0.8,1.1,1.5c0,0.4-0.1,0.8-0.4,1.1C44.4,18,44,18.2,43.6,18.2z M37.6,13.9c-1.5,0-2.7,1.2-2.7,2.7
		c0,1.5,1.2,2.7,2.7,2.7c1.5,0,2.7-1.2,2.7-2.7c0-0.7-0.3-1.4-0.8-1.9C39,14.1,38.3,13.8,37.6,13.9L37.6,13.9L37.6,13.9z M37.6,18.2
		c-0.7,0.1-1.3-0.3-1.6-0.9c-0.3-0.6-0.2-1.3,0.3-1.8c0.5-0.5,1.2-0.7,1.8-0.4c0.6,0.2,1.1,0.8,1.1,1.5c0,0.4-0.1,0.8-0.4,1.1
		C38.4,18,38,18.2,37.6,18.2L37.6,18.2L37.6,18.2z M30.4,14.7v1.1h2.8c0,0.5-0.3,1-0.6,1.4c-0.6,0.6-1.3,0.9-2.1,0.8
		c-1.7,0-3.1-1.4-3.1-3.1s1.4-3.1,3.1-3.1c0.8,0,1.5,0.3,2.1,0.8l0.8-0.8c-0.8-0.8-1.8-1.2-2.9-1.2c-1.6-0.1-3,0.7-3.8,2.1
		c-0.8,1.3-0.8,3,0,4.3c0.8,1.3,2.3,2.1,3.8,2.1c1.1,0.1,2.2-0.4,3-1.2c0.7-0.7,1-1.7,1-2.7c0-0.2,0-0.5-0.1-0.7L30.4,14.7
		L30.4,14.7z M59.6,15.6c-0.3-1-1.3-1.7-2.3-1.7c-0.7,0-1.4,0.3-1.9,0.8c-0.5,0.5-0.7,1.2-0.7,1.9c0,0.7,0.3,1.4,0.8,1.9
		c0.5,0.5,1.2,0.8,1.9,0.8c0.9,0,1.8-0.4,2.3-1.2l-0.9-0.6c-0.3,0.5-0.8,0.8-1.3,0.8c-0.6,0-1.1-0.3-1.3-0.8l3.7-1.5L59.6,15.6
		L59.6,15.6z M55.9,16.5c0-0.4,0.1-0.8,0.4-1.1c0.3-0.3,0.6-0.5,1.1-0.5c0.4,0,0.8,0.2,1,0.6L55.9,16.5z M52.9,19.1h1.2v-8h-1.2
		V19.1z M50.9,14.5L50.9,14.5c-0.4-0.4-0.9-0.6-1.5-0.6c-1.5,0.1-2.6,1.3-2.6,2.7c0,1.4,1.1,2.6,2.6,2.7c0.6,0,1.1-0.2,1.4-0.6h0V19
		c0,1-0.6,1.6-1.5,1.6c-0.6,0-1.2-0.4-1.4-1l-1,0.4c0.4,1,1.4,1.6,2.4,1.6c1.4,0,2.6-0.8,2.6-2.8V14h-1.1
		C50.9,14,50.9,14.5,50.9,14.5z M49.5,18.2c-0.9-0.1-1.5-0.8-1.5-1.6c0-0.9,0.7-1.6,1.5-1.6c0.4,0,0.8,0.2,1.1,0.5
		c0.3,0.3,0.4,0.7,0.4,1.1c0,0.4-0.1,0.8-0.4,1.1C50.3,18,50,18.2,49.5,18.2C49.5,18.2,49.5,18.2,49.5,18.2z M65.2,11.2h-2.9v8h1.2
		v-3h1.7c0.9,0.1,1.8-0.4,2.3-1.2c0.5-0.8,0.5-1.8,0-2.6C67.1,11.5,66.2,11.1,65.2,11.2C65.3,11.2,65.2,11.2,65.2,11.2z M65.2,15
		h-1.7v-2.7h1.7c0.8,0,1.4,0.6,1.4,1.4S66,15,65.2,15L65.2,15z M72.7,13.8c-0.9-0.1-1.7,0.4-2.1,1.2l1.1,0.4
		c0.2-0.4,0.6-0.6,1.1-0.6c0.3,0,0.6,0.1,0.9,0.2c0.2,0.2,0.4,0.5,0.4,0.8V16c-0.4-0.2-0.8-0.3-1.3-0.3c-1.2,0-2.3,0.6-2.3,1.8
		c0,0.5,0.2,1,0.6,1.3c0.4,0.3,0.9,0.5,1.4,0.5c0.6,0,1.2-0.2,1.5-0.8h0v0.6h1.2v-3.1C75.1,14.7,74.1,13.8,72.7,13.8L72.7,13.8
		L72.7,13.8z M72.5,18.2c-0.4,0-0.9-0.2-0.9-0.7c0-0.6,0.7-0.8,1.3-0.8c0.4,0,0.8,0.1,1.1,0.3C73.9,17.7,73.3,18.2,72.5,18.2
		L72.5,18.2L72.5,18.2z M79.4,14L78,17.5h0L76.5,14h-1.3l2.1,4.8l-1.2,2.7h1.3l3.3-7.5H79.4L79.4,14z M68.5,19.1h1.2v-8h-1.2V19.1
		L68.5,19.1z"/>
	
		<linearGradient id="SVGID_1_" gradientUnits="userSpaceOnUse" x1="-209.8712" y1="408.3227" x2="-210.5745" y2="407.96" gradientTransform="matrix(15.0001 0 0 -29.001 3162.0281 11847.4209)">
		<stop  offset="0" style="stop-color:#00A0FF"/>
		<stop  offset="1.000000e-02" style="stop-color:#00A1FF"/>
		<stop  offset="0.26" style="stop-color:#00BEFF"/>
		<stop  offset="0.51" style="stop-color:#00D2FF"/>
		<stop  offset="0.76" style="stop-color:#00DFFF"/>
		<stop  offset="1" style="stop-color:#00E3FF"/>
	</linearGradient>
	<path class="st2" d="M6.8,4.9C6.6,5.2,6.5,5.5,6.5,5.8v13.9c0,0.3,0.1,0.6,0.3,0.9l0,0l7.8-7.8v-0.2L6.8,4.9L6.8,4.9z"/>
	
		<linearGradient id="SVGID_2_" gradientUnits="userSpaceOnUse" x1="-206.6983" y1="384.4542" x2="-207.9892" y2="384.4542" gradientTransform="matrix(12.0002 0 0 -10 2502.0559 3857)">
		<stop  offset="0" style="stop-color:#FFE000"/>
		<stop  offset="0.41" style="stop-color:#FFBD00"/>
		<stop  offset="0.78" style="stop-color:#FFA500"/>
		<stop  offset="1" style="stop-color:#FF9C00"/>
	</linearGradient>
	<path class="st3" d="M17.3,15.2l-2.6-2.6v-0.2l2.6-2.6l0.1,0l3.1,1.8c0.9,0.5,0.9,1.3,0,1.8L17.3,15.2L17.3,15.2z"/>
	
		<linearGradient id="SVGID_3_" gradientUnits="userSpaceOnUse" x1="-213.5581" y1="396.8733" x2="-214.2968" y2="395.9155" gradientTransform="matrix(20 0 0 -15.0004 4287 5967.1509)">
		<stop  offset="0" style="stop-color:#FF3A44"/>
		<stop  offset="1" style="stop-color:#C31162"/>
	</linearGradient>
	<path class="st4" d="M17.3,15.1l-2.7-2.7l-8.1,7.9c0.4,0.3,0.9,0.3,1.4,0L17.3,15.1"/>
	
		<linearGradient id="SVGID_4_" gradientUnits="userSpaceOnUse" x1="-214.1267" y1="396.8044" x2="-213.797" y2="396.3766" gradientTransform="matrix(20 0 0 -15.0004 4287 5952.1528)">
		<stop  offset="0" style="stop-color:#32A071"/>
		<stop  offset="7.000000e-02" style="stop-color:#2DA771"/>
		<stop  offset="0.48" style="stop-color:#15CF74"/>
		<stop  offset="0.8" style="stop-color:#06E775"/>
		<stop  offset="1" style="stop-color:#00F076"/>
	</linearGradient>
	<path class="st5" d="M17.3,9.8L7.9,4.6c-0.4-0.3-1-0.3-1.4,0l8.1,7.9L17.3,9.8z"/>
	<path class="st6" d="M17.3,15.2l-9.4,5.1c-0.4,0.3-0.9,0.3-1.3,0l0,0l0,0c0.4,0.3,0.9,0.3,1.3,0L17.3,15.2L17.3,15.2z"/>
	<path class="st7" d="M6.8,20.5c-0.2-0.3-0.3-0.6-0.3-0.9v0.1C6.5,20,6.6,20.3,6.8,20.5L6.8,20.5L6.8,20.5z M20.5,13.3l-3.2,1.8
		l0.1,0.1L20.5,13.3c0.4-0.1,0.6-0.4,0.6-0.8C21.1,12.8,20.8,13.1,20.5,13.3z"/>
	<path class="st8" d="M8.1,4.6l12.4,7c0.3,0.2,0.6,0.5,0.6,0.8c0-0.4-0.3-0.7-0.6-0.9L8.1,4.6C7.2,4,6.5,4.5,6.5,5.5v0.1
		C6.5,4.6,7.2,4.1,8.1,4.6z"/>
	<path class="st9" d="M27,9.2h-0.5V7.9h0.4c0.4-0.4,0.6-1,0.5-1.5v-2H30v3.5h0.4v1.3H30V8.4H27C27,8.4,27,9.2,27,9.2z M27.9,6.4
		c0,0.5-0.1,1.1-0.4,1.5h1.9v-3h-1.6V6.4z M34.3,7.9c-0.8,0.8-2,0.8-2.8,0c0,0,0,0,0,0c-0.8-0.8-0.8-2.1,0-2.9
		c0.4-0.4,0.9-0.6,1.4-0.6c0.5,0,1,0.2,1.4,0.6C35,5.8,35,7,34.3,7.9z M31.8,7.5c0.6,0.6,1.5,0.6,2.1,0c0,0,0,0,0,0
		c0.6-0.6,0.6-1.6,0-2.3c-0.6-0.6-1.5-0.6-2.1,0c0,0,0,0,0,0C31.2,5.9,31.2,6.9,31.8,7.5z M37.3,8.5c-0.5,0-1.1-0.2-1.4-0.6
		c-0.4-0.4-0.6-0.9-0.6-1.5c0-0.5,0.2-1.1,0.6-1.5c0.4-0.4,0.9-0.6,1.4-0.6c0.5,0,1.1,0.2,1.4,0.7l-0.3,0.3
		c-0.3-0.3-0.7-0.5-1.1-0.5c-0.4,0-0.8,0.1-1.1,0.4c-0.6,0.7-0.6,1.6,0,2.3C36.5,7.8,36.9,8,37.3,8c0.5,0,0.9-0.2,1.2-0.6l0.3,0.4
		c-0.2,0.2-0.4,0.4-0.6,0.5C37.9,8.4,37.6,8.5,37.3,8.5L37.3,8.5z M40.9,8.4h-0.5V4.9h-1.1V4.4h2.6v0.5h-1.1L40.9,8.4L40.9,8.4z
		 M45.3,4.4l-1.5,3.3c-0.1,0.4-0.5,0.7-0.9,0.7c-0.1,0-0.3,0-0.4-0.1l0.1-0.5C42.8,8,42.9,8,43,8c0.1,0,0.2,0,0.3-0.1
		c0.1-0.1,0.1-0.2,0.2-0.2l0.1-0.3l-1.3-2.9h0.6l1,2.3l0.9-2.3H45.3z M45.9,8.4V4.4h2.8v3.9h-0.5V4.9h-1.8v3.5
		C46.4,8.4,45.9,8.4,45.9,8.4z M49.6,8.4V4.4h0.5v1.7H52V4.4h0.5v3.9H52V6.6h-1.9v1.8H49.6z M56.5,7.9c-0.8,0.8-2,0.8-2.8,0
		c0,0,0,0,0,0c-0.8-0.8-0.8-2.1,0-2.9c0.4-0.4,0.9-0.6,1.4-0.6c0.5,0,1,0.2,1.4,0.6C57.3,5.8,57.3,7,56.5,7.9L56.5,7.9z M54.1,7.5
		c0.6,0.6,1.5,0.6,2.1,0c0,0,0,0,0,0c0.6-0.6,0.6-1.6,0-2.3c-0.6-0.6-1.5-0.6-2.1,0c0,0,0,0,0,0C53.5,5.9,53.5,6.9,54.1,7.5z
		 M59.1,8.4V4.4h1.4c0.3,0,0.6,0.1,0.8,0.3c0.2,0.2,0.3,0.5,0.3,0.8c0,0.2,0,0.3-0.1,0.5c-0.1,0.1-0.2,0.3-0.4,0.3
		c0.2,0.1,0.3,0.2,0.5,0.3c0.1,0.2,0.2,0.4,0.2,0.6c0,0.3-0.1,0.6-0.3,0.8c-0.2,0.2-0.5,0.3-0.8,0.3L59.1,8.4z M59.6,6.1h0.9
		c0.2,0,0.3-0.1,0.4-0.2c0.2-0.2,0.3-0.6,0-0.8c0,0,0,0,0,0c-0.1-0.1-0.3-0.2-0.4-0.2h-0.9C59.6,4.9,59.6,6.1,59.6,6.1z M59.6,7.9h1
		c0.2,0,0.3-0.1,0.5-0.2c0.1-0.1,0.2-0.3,0.2-0.4c0-0.4-0.3-0.7-0.6-0.7h-1C59.6,6.6,59.6,7.9,59.6,7.9z"/>
</g>
</svg>
