<svg xmlns="http://www.w3.org/2000/svg" width="18" height="16" viewBox="0 0 18 16">
    <path fill="#EA2B16" fill-rule="nonzero" d="M6.833 1.115a2.31 2.31 0 0 1 3.953 0l6.525 10.893a2.309 2.309 0 0 1-1.983 3.463H2.283a2.309 2.309 0 0 1-1.968-3.474L6.833 1.115zM1.642 12.777a.77.77 0 0 0 .65 1.155H15.32a.77.77 0 0 0 .664-1.144L9.468 1.91a.77.77 0 0 0-1.315-.002l-6.511 10.87zm6.398-7.31a.77.77 0 0 1 1.54 0v3.078a.77.77 0 0 1-1.54 0V5.466zm.225 5.93a.77.77 0 1 1 1.089-1.088.77.77 0 0 1-1.089 1.089z"/>
</svg>
