<!-- Generated by IcoMoon.io -->
<svg version="1.1" xmlns="http://www.w3.org/2000/svg" width="32" height="32" viewBox="0 0 32 32">
<title>box</title>
<path d="M17.333 28.195l9.927-4.964c0.441-0.223 0.739-0.672 0.74-1.19v-12.204l-10.667 5.333v13.025zM14.667 28.201v-13.032l-10.667-5.333v12.199c-0.004 0.507 0.28 0.972 0.729 1.199l9.937 4.967zM26.347 7.68l-9.753-4.876c-0.172-0.087-0.376-0.138-0.591-0.138s-0.419 0.051-0.599 0.142l0.008-0.003-9.756 4.876 10.347 5.173 10.344-5.173zM17.78 0.417l10.667 5.333c1.326 0.67 2.22 2.022 2.22 3.582 0 0 0 0 0 0.001v0 12.707c-0.001 1.559-0.893 2.909-2.195 3.568l-0.023 0.011-10.667 5.333c-0.521 0.266-1.137 0.423-1.789 0.423s-1.268-0.156-1.812-0.433l0.023 0.011-10.671-5.336c-1.315-0.672-2.2-2.018-2.2-3.57 0-0.007 0-0.015 0-0.022v0.001-12.693c0.001-1.559 0.893-2.909 2.195-3.568l0.023-0.011 10.669-5.336c0.519-0.264 1.131-0.418 1.78-0.418s1.261 0.154 1.803 0.428l-0.023-0.011z"></path>
</svg>
