<svg xmlns="http://www.w3.org/2000/svg" width="15" height="17" viewBox="0 0 15 17">
    <path fill-rule="nonzero" d="M11.25 3h3a.75.75 0 1 1 0 1.5h-.75v9.75a2.25 2.25 0 0 1-2.25 2.25h-7.5a2.25 2.25 0 0 1-2.25-2.25V4.5H.75a.75.75 0 1 1 0-1.5h3v-.75A2.25 2.25 0 0 1 6 0h3a2.25 2.25 0 0 1 2.25 2.25V3zm-1.5 0v-.75A.75.75 0 0 0 9 1.5H6a.75.75 0 0 0-.75.75V3h4.5zM12 4.5H3v9.75c0 .414.336.75.75.75h7.5a.75.75 0 0 0 .75-.75V4.5zm-6.75 3a.75.75 0 1 1 1.5 0V12a.75.75 0 1 1-1.5 0V7.5zm3 0a.75.75 0 1 1 1.5 0V12a.75.75 0 1 1-1.5 0V7.5z"/>
</svg>
