<?xml version="1.0" encoding="UTF-8"?>
<svg width="18px" height="16px" viewBox="0 0 18 16" version="1.1" xmlns="http://www.w3.org/2000/svg" xmlns:xlink="http://www.w3.org/1999/xlink">
    <!-- Generator: sketchtool 50.2 (55047) - http://www.bohemiancoding.com/sketch -->
    <title>58709569-B8FD-426C-AB74-499414118621</title>
    <desc>Created with sketchtool.</desc>
    <defs></defs>
    <g id="UI_desktop" stroke="none" stroke-width="1" fill-rule="evenodd">
        <g id="UI_LEKKI" transform="translate(-1051.000000, -220.000000)" fill-rule="nonzero">
            <g id="HEADER" transform="translate(48.000000, 152.000000)">
                <path d="M1011.85301,69.4286636 C1012.76732,68.5139288 1014.00764,68 1015.30097,68 C1016.59429,68 1017.83462,68.5139288 1018.74892,69.4286636 C1019.66341,70.3427202 1020.17734,71.5830423 1020.17734,72.8763692 C1020.17734,74.1696961 1019.66341,75.4100182 1018.7488,76.3241993 L1012.1188,82.9541993 C1011.8259,83.2470925 1011.35103,83.2470925 1011.05814,82.9541993 L1004.42814,76.3241993 C1002.52395,74.4200153 1002.52395,71.3327231 1004.42814,69.4285392 C1006.33232,67.5243552 1009.41961,67.5243552 1011.3238,69.4285391 L1011.58847,69.6932091 L1011.85301,69.4286636 Z M1011.58847,81.363209 L1016.89314,76.0585391 L1017.68826,75.2634147 C1018.32154,74.6304339 1018.67734,73.7717494 1018.67734,72.8763692 C1018.67734,71.9809891 1018.32154,71.1223045 1017.68826,70.4893238 C1017.05503,69.8557968 1016.19635,69.5 1015.30097,69.5 C1014.40559,69.5 1013.5469,69.8557968 1012.9138,70.4891993 L1012.1188,71.2841993 C1011.8259,71.5770925 1011.35103,71.5770925 1011.05814,71.2841993 L1010.26314,70.4891993 C1008.94474,69.1708018 1006.8072,69.1708018 1005.4888,70.4891993 C1004.1704,71.8075969 1004.1704,73.9451416 1005.4888,75.2635391 L1011.58847,81.363209 Z" id="Shape"></path>
            </g>
        </g>
    </g>
</svg>