<svg xmlns="http://www.w3.org/2000/svg" width="18" height="18" viewBox="0 0 18 18">
    <path fill-rule="evenodd" d="M9 1.622c2.403 0 2.688.009 3.637.052.877.04 1.354.187 1.67.31.421.163.72.358 1.036.673.315.315.51.615.673 1.035.123.317.27.794.31 1.671.043.95.052 1.234.052 3.637s-.009 2.688-.052 3.637c-.04.877-.187 1.354-.31 1.671-.163.42-.358.72-.673 1.035-.315.315-.615.51-1.035.673-.317.123-.794.27-1.671.31-.95.043-1.234.052-3.637.052s-2.688-.009-3.637-.052c-.877-.04-1.354-.187-1.67-.31a2.788 2.788 0 0 1-1.036-.673 2.788 2.788 0 0 1-.673-1.035c-.123-.317-.27-.794-.31-1.671-.043-.95-.052-1.234-.052-3.637s.009-2.688.052-3.637c.04-.877.187-1.354.31-1.67.163-.421.358-.72.673-1.036.315-.315.615-.51 1.035-.673.317-.123.794-.27 1.671-.31.95-.043 1.234-.052 3.637-.052M9 0c2.444 0 2.75.01 3.71.054.959.044 1.613.196 2.185.419.592.23 1.094.537 1.594 1.038.5.5.808 1.002 1.038 1.594.223.572.375 1.226.419 2.184C17.99 6.25 18 6.556 18 9s-.01 2.75-.054 3.71c-.044.959-.196 1.613-.419 2.185a4.412 4.412 0 0 1-1.038 1.594c-.5.5-1.002.809-1.594 1.039-.572.222-1.226.374-2.184.418C11.75 17.99 11.444 18 9 18s-2.75-.01-3.71-.054c-.959-.044-1.613-.196-2.185-.418a4.412 4.412 0 0 1-1.594-1.039c-.5-.5-.809-1.002-1.039-1.594-.222-.572-.374-1.226-.418-2.184C.01 11.75 0 11.444 0 9s.01-2.75.054-3.71C.098 4.33.25 3.676.472 3.104A4.412 4.412 0 0 1 1.511 1.51c.5-.5 1.002-.808 1.594-1.038C3.677.25 4.33.098 5.289.054 6.25.01 6.556 0 9 0zm.018 4.393a4.625 4.625 0 1 0 0 9.25 4.625 4.625 0 0 0 0-9.25zm0 7.627a3.002 3.002 0 1 1 0-6.004 3.002 3.002 0 0 1 0 6.004zm5.84-7.841a1.071 1.071 0 1 0-2.144 0 1.071 1.071 0 0 0 2.143 0z"/>
</svg>
