<?xml version="1.0" encoding="UTF-8"?>
<svg width="11px" height="20px" viewBox="0 0 11 20" version="1.1" xmlns="http://www.w3.org/2000/svg" xmlns:xlink="http://www.w3.org/1999/xlink">
    <!-- Generator: sketchtool 50.2 (55047) - http://www.bohemiancoding.com/sketch -->
    <title>AA2E0D5F-D316-4D98-8E91-4EE8075F96BF</title>
    <desc>Created with sketchtool.</desc>
    <defs></defs>
    <g id="UI_desktop" stroke="none" stroke-width="1" fill-rule="evenodd">
        <g id="UI_LEKKI" transform="translate(-374.000000, -954.000000)">
            <g id="Group-12" transform="translate(248.000000, 944.000000)">
                <path d="M131.487549,13.0247168 C132.606583,13.0247168 133.516824,13.9829297 133.516824,15.1613186 C133.516824,16.3387811 132.606583,17.2976117 131.487549,17.2976117 C130.369394,17.2976117 129.458273,16.3387811 129.458273,15.1613186 C129.458273,13.9829297 130.369394,13.0247168 131.487549,13.0247168 L131.487549,13.0247168 Z M131.487549,20.3210932 C128.784682,20.3210932 126.586496,18.0066213 126.586496,15.1613186 C126.586496,12.3150895 128.784682,10 131.487549,10 C134.191001,10 136.388601,12.3150895 136.388601,15.1613186 C136.388601,18.0066213 134.191001,20.3210932 131.487549,20.3210932 Z M133.483027,24.5335849 L136.222842,27.4190319 C136.784119,28.0088439 136.784119,28.9667481 136.222842,29.5571778 C135.662152,30.1476074 134.753377,30.1476074 134.193273,29.5571778 L131.499498,26.7217567 L128.808068,29.5571778 C128.52743,29.8520838 128.159697,29.9996912 127.791964,29.9996912 C127.424818,29.9996912 127.057671,29.8520838 126.777033,29.5571778 C126.216343,28.9667481 126.216343,28.0094615 126.776447,27.4190319 L129.516555,24.5335849 C128.518926,24.2942633 127.556779,23.877998 126.670584,23.2925092 C125.999926,22.8472165 125.798465,21.9143253 126.221035,21.2074773 C126.642432,20.4997028 127.528628,20.2866294 128.200459,20.731922 C130.206861,22.0610063 132.791548,22.0613151 134.799123,20.731922 C135.470954,20.2866294 136.356856,20.4997028 136.779133,21.2074773 C137.201704,21.9137077 136.999656,22.8472165 136.328998,23.2925092 C135.442803,23.8786156 134.480656,24.2942633 133.483027,24.5335849 Z" id="Shape"></path>
            </g>
        </g>
    </g>
</svg>