<svg xmlns="http://www.w3.org/2000/svg" width="85" height="26" viewBox="0 0 85 26">
    <g fill="none" fill-rule="nonzero">
        <rect width="84.24" height="26" fill="#2B2B2B" rx="3"/>
        <g fill="#FFF">
            <path d="M17.078 12.22a3.626 3.626 0 0 1 1.68-3.028 3.594 3.594 0 0 0-2.847-1.574c-1.198-.128-2.359.733-2.97.733-.622 0-1.562-.72-2.574-.699a3.782 3.782 0 0 0-3.19 1.99c-1.38 2.441-.351 6.03.97 8.003.662.966 1.434 2.046 2.446 2.008.99-.042 1.359-.645 2.553-.645 1.184 0 1.53.645 2.562.62 1.062-.017 1.73-.97 2.369-1.946.475-.689.84-1.45 1.083-2.255-1.26-.545-2.08-1.808-2.082-3.208zm-1.95-5.9c.58-.71.865-1.623.796-2.545a3.512 3.512 0 0 0-2.288 1.21 3.428 3.428 0 0 0-.816 2.451 2.9 2.9 0 0 0 2.309-1.116zM29.586 17.206H26.21l-.81 2.447h-1.431l3.198-9.054h1.487l3.198 9.054h-1.455l-.81-2.447zm-3.027-1.13h2.677l-1.32-3.971h-.037l-1.32 3.972zm12.2.277c0 2.051-1.075 3.37-2.696 3.37a2.18 2.18 0 0 1-2.032-1.156H34v3.27h-1.327v-8.785h1.284v1.098h.024a2.28 2.28 0 0 1 2.057-1.167c1.64 0 2.72 1.324 2.72 3.37zm-1.363 0c0-1.337-.676-2.215-1.707-2.215-1.013 0-1.694.897-1.694 2.215 0 1.33.681 2.22 1.694 2.22 1.031 0 1.707-.871 1.707-2.22zm8.472 0c0 2.051-1.075 3.37-2.696 3.37a2.18 2.18 0 0 1-2.032-1.156h-.03v3.27h-1.327v-8.785h1.284v1.098h.024a2.28 2.28 0 0 1 2.057-1.167c1.64 0 2.72 1.324 2.72 3.37zm-1.363 0c0-1.337-.676-2.215-1.707-2.215-1.013 0-1.694.897-1.694 2.215 0 1.33.681 2.22 1.694 2.22 1.031 0 1.707-.871 1.707-2.22zm6.061.778c.098.897.952 1.487 2.118 1.487 1.118 0 1.922-.59 1.922-1.4 0-.702-.485-1.123-1.633-1.411l-1.149-.283c-1.626-.402-2.382-1.18-2.382-2.441 0-1.562 1.332-2.635 3.224-2.635 1.872 0 3.155 1.073 3.198 2.635h-1.338c-.08-.904-.81-1.449-1.879-1.449-1.068 0-1.799.552-1.799 1.355 0 .64.467 1.017 1.609 1.305l.976.245c1.818.44 2.573 1.186 2.573 2.51 0 1.694-1.32 2.755-3.42 2.755-1.965 0-3.291-1.036-3.377-2.674h1.357zm8.301-5.642v1.563h1.228v1.073h-1.228v3.64c0 .565.246.828.786.828.146-.002.291-.013.436-.031v1.066c-.243.047-.49.068-.736.063-1.308 0-1.818-.502-1.818-1.782v-3.784h-.939v-1.073h.94v-1.563h1.331zm1.94 4.864c0-2.077 1.197-3.382 3.063-3.382 1.873 0 3.064 1.305 3.064 3.382 0 2.083-1.185 3.382-3.064 3.382-1.878 0-3.063-1.3-3.063-3.382zm4.776 0c0-1.425-.639-2.266-1.713-2.266s-1.712.847-1.712 2.266c0 1.43.638 2.265 1.712 2.265 1.074 0 1.713-.835 1.713-2.265zm2.444-3.301h1.265v1.123h.03a1.546 1.546 0 0 1 1.554-1.192c.153 0 .305.016.454.05v1.268a1.816 1.816 0 0 0-.595-.082 1.322 1.322 0 0 0-1.033.434 1.385 1.385 0 0 0-.349 1.085v3.915h-1.326v-6.601zm9.416 4.662c-.178 1.199-1.32 2.021-2.781 2.021-1.88 0-3.045-1.286-3.045-3.35 0-2.071 1.172-3.414 2.99-3.414 1.786 0 2.91 1.254 2.91 3.256v.464h-4.562v.082c-.043.492.123.978.456 1.336.332.358.8.552 1.281.534a1.459 1.459 0 0 0 1.492-.929h1.259zm-4.482-1.97h3.23a1.608 1.608 0 0 0-.435-1.191 1.537 1.537 0 0 0-1.15-.484 1.617 1.617 0 0 0-1.164.487 1.69 1.69 0 0 0-.48 1.188z"/>
            <g>
                <path d="M25.611 5.6h.57a.709.709 0 0 0 .549-.166.727.727 0 0 0 .252-.521c0-.398-.295-.654-.796-.654a.752.752 0 0 0-.57.154.77.77 0 0 0-.288.52h-.625c.022-.374.196-.722.481-.96a1.322 1.322 0 0 1 1.023-.3c.837 0 1.427.475 1.427 1.159a.998.998 0 0 1-.773.986v.05c.545.025.968.49.947 1.042-.04.385-.23.738-.529.98-.299.24-.681.35-1.06.302a1.402 1.402 0 0 1-1.067-.294 1.437 1.437 0 0 1-.532-.982h.634c.039.413.413.679.964.679.552 0 .912-.299.912-.72 0-.427-.34-.69-.932-.69h-.587V5.6zm2.918 1.568c0-.586.43-.923 1.194-.971l.87-.051v-.28c0-.344-.223-.538-.657-.538-.354 0-.599.131-.67.361h-.613c.064-.558.584-.917 1.313-.917.805 0 1.259.406 1.259 1.093v2.222h-.611V7.63h-.05a1.077 1.077 0 0 1-.965.51.962.962 0 0 1-.748-.245.988.988 0 0 1-.322-.727zm2.064-.278v-.272l-.784.05c-.442.03-.643.183-.643.47 0 .292.25.463.595.463a.75.75 0 0 0 .565-.177.77.77 0 0 0 .267-.534zM32.907 5.376v2.711h-.634V4.835h2.115v.54zM38.229 6.46c0 1.033-.516 1.68-1.327 1.68a1.044 1.044 0 0 1-.988-.545h-.05v1.573h-.634V4.835h.61v.538h.047c.2-.374.59-.602 1.009-.592.817 0 1.333.645 1.333 1.679zm-.652 0c0-.687-.321-1.102-.858-1.102-.534 0-.867.424-.867 1.105 0 .677.333 1.102.864 1.102.54 0 .86-.415.86-1.105zm1.496 2.792V8.7c.068.01.138.013.207.012a.55.55 0 0 0 .58-.453l.048-.159-1.162-3.264h.69l.805 2.583h.05l.802-2.583h.673l-1.198 3.387c-.274.791-.578 1.045-1.233 1.045-.052 0-.203-.006-.262-.015zm3.186-2.088h.631c.062.287.328.437.699.437.422 0 .681-.189.681-.481 0-.314-.233-.463-.681-.463h-.48v-.5h.472c.383 0 .578-.148.578-.42 0-.239-.19-.421-.578-.421-.355 0-.614.152-.655.409h-.61a1.128 1.128 0 0 1 1.265-.953c.763 0 1.2.35 1.2.9a.667.667 0 0 1-.507.665v.05a.727.727 0 0 1 .628.733c0 .618-.52 1.027-1.313 1.027-.701 0-1.271-.326-1.33-.983zM45.815 8.087V4.835h.628v2.237h.05l1.48-2.237h.628v3.252h-.628V5.838h-.047l-1.483 2.25zM52.062 5.376h-1.011v2.711h-.635V5.376h-1.011v-.54h2.657zM55.476 7.21a1.305 1.305 0 0 1-1.392.94 1.45 1.45 0 0 1-1.125-.492 1.49 1.49 0 0 1-.359-1.187c-.057-.43.074-.865.358-1.191a1.473 1.473 0 0 1 1.123-.508c.894 0 1.434.619 1.434 1.64v.224h-2.268v.036c-.02.241.06.48.224.657a.843.843 0 0 0 .631.274.767.767 0 0 0 .763-.394h.611zm-2.23-1.049h1.622a.79.79 0 0 0-.21-.598.77.77 0 0 0-.58-.244.815.815 0 0 0-.591.243.836.836 0 0 0-.24.6zm4.917-1.326h1.448c.629 0 .997.322.997.827a.697.697 0 0 1-.543.687v.05c.39.026.692.355.687.75 0 .568-.421.938-1.126.938h-1.463V4.835zm.629.493v.842h.628c.383 0 .566-.15.566-.424 0-.254-.16-.418-.496-.418h-.698zm0 1.314v.953h.751c.375 0 .575-.168.575-.475 0-.326-.227-.478-.654-.478h-.672z"/>
            </g>
        </g>
    </g>
</svg>
