<svg width="14" height="17" viewBox="0 0 14 17" xmlns="http://www.w3.org/2000/svg"><g id="UI_desktop" stroke="none" stroke-width="1" fill-rule="evenodd"><g id="UI_LEKKI" transform="translate(-610 -211)"><g id="HEADER" transform="translate(48 152)"><path d="M575.18091,70.8196114 C574.821943,71.6577809 574.648774,72.0309321 574.185184,72.7734462 C573.538504,73.8076622 572.625756,75.0975909 571.494742,75.1070617 C570.490899,75.1174797 570.232949,74.4204257 568.869238,74.4289494 C567.507331,74.4365261 567.222323,75.1193738 566.217578,75.109903 C565.087466,75.0994851 564.223422,73.9355185 563.575839,72.9003555 C561.766578,70.0079602 561.576271,66.6117161 562.692855,64.8056264 C563.486549,63.5232744 564.737519,62.7731836 565.914531,62.7731836 C567.111386,62.7731836 567.864493,63.462661 568.855709,63.462661 C569.816259,63.462661 570.401609,62.7712895 571.786965,62.7712895 C572.835002,62.7712895 573.94437,63.3707938 574.734457,64.4050098 C572.144128,65.8966675 572.564425,69.7797129 575.18091,70.8196114 L575.18091,70.8196114 Z M570.737125,61.6148996 C571.239497,60.9367873 571.621913,59.978338 571.483919,59 C570.661363,59.0587192 569.699009,59.6089752 569.138011,60.3249709 C568.627522,60.9737236 568.207225,61.9388024 568.370473,62.8764158 C569.270594,62.9057754 570.198675,62.3422603 570.737125,61.6148996 L570.737125,61.6148996 Z" id="Shape"/></g></g></g></svg>