<svg width="15" height="13" viewBox="0 0 15 13" xmlns="http://www.w3.org/2000/svg"><g id="UI_desktop" stroke="none" stroke-width="1" fill-rule="evenodd"><g id="UI_LEKKI" transform="translate(-797 -382)" fill-rule="nonzero"><g id="Group-5" transform="translate(784 368)"><path d="M16.0779191,21.2916667 L19.4764595,24.6902071 C19.7856246,24.9993722 19.7856246,25.5006278 19.4764595,25.8097929 C19.1672945,26.1189579 18.6660389,26.1189579 18.3568738,25.8097929 L13.6068738,21.0597929 C13.2977087,20.7506278 13.2977087,20.2493722 13.6068738,19.9402071 L18.3568738,15.1902071 C18.6660389,14.8810421 19.1672945,14.8810421 19.4764595,15.1902071 C19.7856246,15.4993722 19.7856246,16.0006278 19.4764595,16.3097929 L16.0779191,19.7083333 L26.8333333,19.7083333 C27.2705588,19.7083333 27.625,20.0627746 27.625,20.5 C27.625,20.9372254 27.2705588,21.2916667 26.8333333,21.2916667 L16.0779191,21.2916667 Z" id="Combined-Shape"/></g></g></g></svg>