<svg width="15" height="13" viewBox="0 0 15 13" xmlns="http://www.w3.org/2000/svg"><g id="UI_desktop" stroke="none" stroke-width="1" fill-rule="evenodd"><g id="UI_LEKKI" transform="translate(-853 -382)" fill-rule="nonzero"><g id="Group-5" transform="translate(784 368)"><path d="M80.9220809,19.7083333 L77.5235405,16.3097929 C77.2143754,16.0006278 77.2143754,15.4993722 77.5235405,15.1902071 C77.8327055,14.8810421 78.3339611,14.8810421 78.6431262,15.1902071 L83.3931262,19.9402071 C83.7022913,20.2493722 83.7022913,20.7506278 83.3931262,21.0597929 L78.6431262,25.8097929 C78.3339611,26.1189579 77.8327055,26.1189579 77.5235405,25.8097929 C77.2143754,25.5006278 77.2143754,24.9993722 77.5235405,24.6902071 L80.9220809,21.2916667 L70.1666667,21.2916667 C69.7294412,21.2916667 69.375,20.9372254 69.375,20.5 C69.375,20.0627746 69.7294412,19.7083333 70.1666667,19.7083333 L80.9220809,19.7083333 Z" id="Mask"/></g></g></g></svg>