<svg xmlns="http://www.w3.org/2000/svg" width="32" height="32" viewBox="0 0 32 32"><path d="M12.020 20.567l-1 7.533 4.293-2.576c0.196-0.12 0.433-0.19 0.687-0.19s0.491 0.071 0.693 0.194l-0.006-0.003 4.293 2.576-0.999-7.533c-1.174 0.485-2.537 0.767-3.965 0.767-0.006 0-0.011 0-0.017 0h0.001c-0.004 0-0.010 0-0.015 0-1.429 0-2.792-0.282-4.036-0.792l0.071 0.026zM9.519 19.14c-2.555-1.969-4.185-5.030-4.185-8.472 0-5.891 4.776-10.667 10.667-10.667s10.667 4.776 10.667 10.667c0 3.442-1.63 6.503-4.16 8.453l-0.025 0.018 1.507 11.351c0.007 0.053 0.012 0.114 0.012 0.176 0 0.736-0.597 1.333-1.333 1.333-0.253 0-0.489-0.070-0.691-0.193l0.006 0.003-5.981-3.591-5.981 3.588c-0.196 0.119-0.432 0.189-0.685 0.189-0.736 0-1.333-0.597-1.333-1.333 0-0.062 0.004-0.122 0.012-0.182l-0.001 0.007 1.507-11.351zM20.441 17.321c2.159-1.455 3.56-3.891 3.56-6.655 0-4.418-3.582-8-8-8s-8 3.582-8 8c0 4.418 3.581 7.999 7.999 8v0c1.551 0 3-0.441 4.227-1.207 0.062-0.050 0.132-0.096 0.206-0.135l0.007-0.003z"/></svg>