<svg xmlns="http://www.w3.org/2000/svg" width="39" height="32" viewBox="0 0 39 32"><path d="M36.103 9.334c1.007 0 1.822 0.994 1.822 2.22 0 1.228-0.815 2.223-1.822 2.223h-32.822c-1.007 0-1.822-0.994-1.822-2.223 0-1.226 0.815-2.22 1.822-2.22h32.822zM36.103 0.446c1.007 0 1.822 0.994 1.822 2.22 0 1.228-0.815 2.223-1.822 2.223h-32.822c-1.007 0-1.822-0.994-1.822-2.223 0-1.226 0.815-2.22 1.822-2.22h32.822zM36.103 18.223c1.007 0 1.822 0.994 1.822 2.223 0 1.226-0.815 2.22-1.822 2.22h-32.822c-1.007 0-1.822-0.994-1.822-2.22 0-1.228 0.815-2.223 1.822-2.223h32.822zM36.103 27.109c1.007 0 1.822 0.997 1.822 2.225 0 1.226-0.815 2.22-1.822 2.22h-32.822c-1.007 0-1.822-0.994-1.822-2.22 0-1.228 0.815-2.223 1.822-2.223h32.822z"/></svg>