<svg xmlns="http://www.w3.org/2000/svg" width="18" height="18" viewBox="0 0 18 18"><path d="M14.786 0H3.214A3.218 3.218 0 0 0 0 3.214v11.572c0 .355.288.643.643.643h1.286v.642a1.929 1.929 0 0 0 3.857 0v-.642h6.428v.642a1.929 1.929 0 0 0 3.857 0v-.642h1.286a.643.643 0 0 0 .643-.643V3.214A3.218 3.218 0 0 0 14.786 0zM4.5 16.071a.643.643 0 0 1-1.286 0v-.642H4.5v.642zm10.286 0a.643.643 0 0 1-1.286 0v-.642h1.286v.642zm1.928-1.928H1.286V3.214c0-1.065.863-1.928 1.928-1.928h11.572c1.065 0 1.928.863 1.928 1.928v10.929z"/><path d="M14.786 2.571H3.214a.643.643 0 0 0-.643.643v3.857c0 .355.288.643.643.643h11.572a.643.643 0 0 0 .643-.643V3.214a.643.643 0 0 0-.643-.643zM3.857 3.857h4.5V6.43h-4.5V3.857zM14.143 6.43h-4.5V3.857h4.5V6.43z"/><circle cx="5.143" cy="10.929" r="1.286"/><circle cx="12.857" cy="10.929" r="1.286"/></svg>