<svg xmlns="http://www.w3.org/2000/svg" width="20" height="19" viewBox="0 0 20 19"><path d="M17.484 6.994h-.825l-.95-4.745A2.805 2.805 0 0 0 12.968 0H6.615a2.805 2.805 0 0 0-2.743 2.25l-.949 4.744h-.825C.94 6.994 0 7.933 0 9.092v4.196a2.098 2.098 0 0 0 1.399 1.969v.828a2.098 2.098 0 1 0 4.196 0v-.7h8.392v.7a2.098 2.098 0 1 0 4.196 0v-.828a2.098 2.098 0 0 0 1.399-1.97V9.093c0-1.16-.94-2.098-2.098-2.098zM5.245 2.524a1.404 1.404 0 0 1 1.37-1.125h6.352a1.404 1.404 0 0 1 1.37 1.124l.895 4.47H4.35l.895-4.47zM4.196 16.084a.7.7 0 0 1-1.399 0v-.7h1.4v.7zm12.588 0a.7.7 0 0 1-1.398 0v-.7h1.398v.7zm1.4-2.797a.7.7 0 0 1-.7.699H2.098a.7.7 0 0 1-.7-.7V9.093a.7.7 0 0 1 .7-.7h15.386a.7.7 0 0 1 .7.7v4.196z"/><circle cx="4.196" cy="11.19" r="1.399"/><circle cx="15.386" cy="11.19" r="1.399"/><path d="M7.898 3.002L5.8 5.1a.7.7 0 1 0 .989.99L8.887 3.99a.7.7 0 1 0-.99-.989zM12.094 3.002L9.996 5.1a.7.7 0 1 0 .989.99l2.098-2.099a.7.7 0 1 0-.99-.989zM11.889 10.49H7.693a.7.7 0 0 0 0 1.399h4.196a.7.7 0 1 0 0-1.399z"/></svg>