<svg xmlns="http://www.w3.org/2000/svg" width="19" height="17" viewBox="0 0 19 17"><path fill="#2B2B2B" fill-rule="evenodd" stroke="#2B2B2B" stroke-width=".4" d="M13.804 9.481c.487 0 .882.396.882.885a.884.884 0 1 1-1.765 0c0-.489.395-.885.883-.885zm-8.759 0c.488 0 .883.396.883.885a.884.884 0 1 1-1.765 0c0-.489.395-.885.882-.885zm11.793 3.46H2.185c-.02-.94-.046-2.846.013-4.097.049-1.056.857-1.102 1.1-1.094h.04c.106 0 10.657-.098 12.334 0 1.096.062 1.164 1.188 1.166 1.413v3.778zM5.288 2.962c.007-.02.013-.035.018-.054.002-.008.24-.753.878-.742.719.008 6.212 0 6.477 0 .003 0 .435-.019.636.466.258.625 1.13 2.757 1.608 3.93-2.615-.047-9.248.003-11.102.019l1.484-3.619zm10.91 3.693c-.352-.862-1.522-3.728-1.828-4.47-.41-.99-1.305-1.207-1.742-1.183-.057 0-5.72.007-6.434 0h-.019c-1.172 0-1.785.95-1.972 1.541L2.492 6.717a2.14 2.14 0 0 0-.749.43c-.436.397-.673.948-.706 1.643-.081 1.747-.004 4.628 0 4.752a.579.579 0 0 0 .58.563h1.578v1.313a.581.581 0 1 0 1.161 0v-1.313h10.116v1.313a.581.581 0 1 0 1.162 0v-1.313h1.785c.321 0 .581-.26.581-.582v-4.36c0-.769-.393-2.178-1.801-2.508z"/></svg>