<svg width="15" height="18" viewBox="0 0 15 18" xmlns="http://www.w3.org/2000/svg"><g id="UI_desktop" stroke="none" stroke-width="1" fill-rule="evenodd"><g id="UI_LEKKI" transform="translate(-144 -163)" fill-rule="nonzero"><g id="HEADER" transform="translate(48 152)"><path d="M107.419465,25.8595584 C106.655252,26.6662276 105.83869,27.4011332 105.021883,28.0515538 C104.735549,28.2795602 104.46913,28.481082 104.229157,28.654396 C104.082918,28.7600131 103.976359,28.833815 103.916025,28.8740376 C103.664101,29.0419873 103.335899,29.0419873 103.083975,28.8740376 C103.023641,28.833815 102.917082,28.7600131 102.770843,28.654396 C102.53087,28.481082 102.264451,28.2795602 101.978117,28.0515538 C101.16131,27.4011332 100.344748,26.6662276 99.5805355,25.8595584 C97.3518012,23.5070055 96,21.0287033 96,18.4999999 C96.0000001,14.3578643 99.3578644,11 103.5,11 C107.642136,11 111,14.3578643 111,18.4999999 C111,21.0287033 109.648199,23.5070055 107.419465,25.8595584 Z M104.087492,26.8781335 C104.852716,26.2687884 105.618186,25.579866 106.330535,24.8279414 C108.320551,22.7273693 109.5,20.5650465 109.5,18.4999999 C109.5,15.1862914 106.813708,12.5 103.5,12.5 C100.186292,12.5 97.5,15.1862914 97.5,18.4999999 C97.5,20.5650465 98.6794488,22.7273693 100.669465,24.8279414 C101.381814,25.579866 102.147284,26.2687884 102.912508,26.8781335 C103.121378,27.0444565 103.318266,27.1952076 103.5,27.3294625 C103.681734,27.1952076 103.878622,27.0444565 104.087492,26.8781335 Z M103.5,21.4999999 C101.843146,21.4999999 100.5,20.1568541 100.5,18.4999999 C100.5,16.8431456 101.843146,15.4999999 103.5,15.4999999 C105.156854,15.4999999 106.5,16.8431456 106.5,18.4999999 C106.5,20.1568541 105.156854,21.4999999 103.5,21.4999999 Z M103.5,19.9999999 C104.328427,19.9999999 105,19.328427 105,18.4999999 C105,17.6715728 104.328427,16.9999999 103.5,16.9999999 C102.671573,16.9999999 102,17.6715728 102,18.4999999 C102,19.328427 102.671573,19.9999999 103.5,19.9999999 Z" id="Combined-Shape"/></g></g></g></svg>