<svg width="16" height="14" viewBox="0 0 16 14" xmlns="http://www.w3.org/2000/svg"><g id="UI_desktop" stroke="none" stroke-width="1" fill-rule="evenodd"><g id="UI_LEKKI" transform="translate(-161 -293)" fill-rule="nonzero"><g id="HEADER" transform="translate(48 152)"><path d="M114.066667,143 C113.477563,143 113,142.552285 113,142 C113,141.447715 113.477563,141 114.066667,141 L127.933333,141 C128.522437,141 129,141.447715 129,142 C129,142.552285 128.522437,143 127.933333,143 L114.066667,143 Z M114.066667,149 C113.477563,149 113,148.552285 113,148 C113,147.447715 113.477563,147 114.066667,147 L127.933333,147 C128.522437,147 129,147.447715 129,148 C129,148.552285 128.522437,149 127.933333,149 L114.066667,149 Z M114.066667,155 C113.477563,155 113,154.552285 113,154 C113,153.447715 113.477563,153 114.066667,153 L127.933333,153 C128.522437,153 129,153.447715 129,154 C129,154.552285 128.522437,155 127.933333,155 L114.066667,155 Z" id="Combined-Shape"/></g></g></g></svg>