<svg xmlns="http://www.w3.org/2000/svg" width="14" height="24" viewBox="0 0 14 24"><path fill-rule="evenodd" d="M6.984 3.63a2.576 2.576 0 0 1 2.583 2.564 2.576 2.576 0 0 1-2.583 2.563c-1.423 0-2.583-1.15-2.583-2.563 0-1.414 1.16-2.564 2.583-2.564zm0 8.755c-3.44 0-6.238-2.777-6.238-6.191C.746 2.778 3.544 0 6.984 0c3.44 0 6.238 2.778 6.238 6.194 0 3.414-2.797 6.191-6.238 6.191zm2.54 5.055l3.487 3.463a1.804 1.804 0 0 1 0 2.566 1.835 1.835 0 0 1-2.583 0l-3.429-3.403-3.425 3.403a1.832 1.832 0 0 1-1.293.53 1.83 1.83 0 0 1-1.292-.53 1.806 1.806 0 0 1 0-2.566l3.487-3.463a11.751 11.751 0 0 1-3.623-1.489 1.807 1.807 0 0 1-.572-2.502 1.833 1.833 0 0 1 2.52-.57 7.968 7.968 0 0 0 8.398 0 1.834 1.834 0 0 1 2.52.57c.538.847.28 1.968-.573 2.502a11.733 11.733 0 0 1-3.622 1.49z"/></svg>