<svg width="14" height="15" viewBox="0 0 14 15" xmlns="http://www.w3.org/2000/svg"><g id="UI_desktop" stroke="none" stroke-width="1" fill="none" fill-rule="evenodd"><g id="UI_LEKKI" transform="translate(-727 -212)" fill="#2B2B2B"><g id="HEADER" transform="translate(48 152)"><path d="M687.069712,67.7604567 L679.780831,74.7952574 L679.771797,74.80404 L679.561769,75 C679.883022,74.8194094 685.981743,71.4013613 685.981743,71.4013613 L689.051994,69.6701065 L688.955448,69.5850258 L687.069712,67.7604567 Z M689.429141,65.4918213 L689.385667,65.5346361 L689.376634,65.5346361 L689.306625,65.6114831 L688.411747,66.4727193 L687.455892,67.3937864 L687.437826,67.4025689 L687.437826,67.4102536 L687.367816,67.4706334 L689.306625,69.346251 L689.376634,69.423098 L689.385667,69.423098 L689.429141,69.4653639 L692.367842,67.8115051 C692.689095,67.6309145 692.708291,67.3888462 692.498827,67.2230761 C692.484148,67.2110001 692.463822,67.200022 692.44632,67.1890438 L692.393813,67.1544626 C692.103613,67.0029641 689.754346,65.6746075 689.429141,65.4918213 L689.429141,65.4918213 Z M679.088076,60.0680646 C679.035569,60.1372269 679,60.2343836 679,60.3584367 L679,67.4788671 L679,74.7359754 C679,74.8128225 679.016938,74.8786914 679.044038,74.9313865 L679.053072,74.9237018 L679.061541,74.9237018 L679.158086,74.8210561 L686.771607,67.4706334 L686.710067,67.4102536 L686.701598,67.4102536 L686.675062,67.3937864 L679.201559,60.1707103 L679.123081,60.0938632 L679.087512,60.0680646 L679.088076,60.0680646 Z M679.614276,60 L679.763328,60.136678 L679.780831,60.1542431 L679.789299,60.1542431 L687.069712,67.1890438 L687.841509,66.4469206 L688.955448,65.3721594 L689.051994,65.2870787 L685.981743,63.5563728 L679.693319,60.0257987 C679.68485,60.0208585 679.675252,60.0214074 679.666783,60.017565 C679.649281,60.0082336 679.631214,60.0076847 679.614276,60 L679.614276,60 Z" id="Shape"/></g></g></g></svg>