<svg xmlns="http://www.w3.org/2000/svg" width="32" height="32" viewBox="0 0 32 32"><path d="M25.333 25.333v4c0 0.736-0.597 1.333-1.333 1.333v0h-16c-0.736 0-1.333-0.597-1.333-1.333v0-4h-1.333c-2.209 0-4-1.791-4-4v0-6.667c0-2.209 1.791-4 4-4v0h1.333v-8c0-0.736 0.597-1.333 1.333-1.333v0h16c0.736 0 1.333 0.597 1.333 1.333v0 8h1.333c2.209 0 4 1.791 4 4v0 6.667c0 2.209-1.791 4-4 4v0h-1.333zM25.333 22.667h1.333c0.736 0 1.333-0.597 1.333-1.333v0-6.667c0-0.736-0.597-1.333-1.333-1.333v0h-21.333c-0.736 0-1.333 0.597-1.333 1.333v0 6.667c0 0.736 0.597 1.333 1.333 1.333v0h1.333v-4c0-0.736 0.597-1.333 1.333-1.333v0h16c0.736 0 1.333 0.597 1.333 1.333v0 4zM9.333 10.667h13.333v-6.667h-13.333v6.667zM9.333 28h13.333v-8h-13.333v8z"/></svg>