<svg width="16" height="16" viewBox="0 0 16 16" xmlns="http://www.w3.org/2000/svg"><g id="UI_desktop" stroke="none" stroke-width="1" fill-rule="evenodd"><g id="UI_LEKKI" transform="translate(-344 -292)" fill-rule="nonzero"><g id="HEADER" transform="translate(48 152)"><path d="M308.14082,151.009449 L311.765685,154.634315 C312.078105,154.946734 312.078105,155.453266 311.765685,155.765685 C311.453266,156.078105 310.946734,156.078105 310.634315,155.765685 L307.009449,152.14082 C305.851615,153.054637 304.389496,153.6 302.8,153.6 C299.044464,153.6 296,150.555536 296,146.8 C296,143.044464 299.044464,140 302.8,140 C306.555536,140 309.6,143.044464 309.6,146.8 C309.6,148.389496 309.054637,149.851615 308.14082,151.009449 Z M306.527807,150.425395 C307.438894,149.488734 308,148.209894 308,146.8 C308,143.928119 305.671881,141.6 302.8,141.6 C299.928119,141.6 297.6,143.928119 297.6,146.8 C297.6,149.671881 299.928119,152 302.8,152 C304.209894,152 305.488734,151.438894 306.425395,150.527807 C306.440748,150.509427 306.457054,150.491575 306.474315,150.474315 C306.491575,150.457054 306.509427,150.440748 306.527807,150.425395 Z" id="Combined-Shape"/></g></g></g></svg>