<svg version="1.1" id="Layer_1" xmlns="http://www.w3.org/2000/svg" x="0" y="0" viewBox="0 0 30 30" xml:space="preserve"><path d="M30,11.3L19.6,9.7L15,0l-4.6,9.7L0,11.3l7.5,7.6L5.7,29.5l9.3-5l9.3,5l-1.8-10.7L30,11.3 M68,11.3L57.6,9.7 L53,0l-4.6,9.7L38,11.3l7.5,7.6l-1.8,10.7l9.3-5l9.3,5l-1.8-10.7L68,11.3 M107,11.3L96.6,9.7L92,0l-4.6,9.7L77,11.3l7.5,7.6 l-1.8,10.7l9.3-5l9.3,5l-1.8-10.7L107,11.3 M145,11.3l-10.4-1.6L130,0l-4.6,9.7L115,11.3l7.5,7.6l-1.8,10.7l9.3-5l9.3,5l-1.8-10.7 L145,11.3" fill="#ea2b16"/></svg>