<svg width="16" height="14" viewBox="0 0 16 14" xmlns="http://www.w3.org/2000/svg"><g id="UI_desktop" stroke="none" stroke-width="1" fill-rule="evenodd"><g id="UI_LEKKI" transform="translate(-428 -957)"><g id="Group-12" transform="translate(248 944)"><path d="M194.115161,15.2133468 C194.793215,14.776542 195.313494,14.0839232 195.557669,13.2588473 C194.922815,13.6643074 194.221283,13.9575329 193.472795,14.1162791 C192.875506,13.4287159 192.021835,13 191.077068,13 C189.264542,13 187.795739,14.5824065 187.795739,16.5338726 C187.795739,16.8109201 187.822974,17.0808898 187.879321,17.338726 C185.152081,17.1911021 182.733815,15.7856421 181.113811,13.6461072 C180.831132,14.1698686 180.669601,14.776542 180.669601,15.4236603 C180.669601,16.6491405 181.249046,17.7310415 182.129952,18.3660263 C181.59183,18.3478261 181.085637,18.1870576 180.642367,17.9241658 L180.642367,17.9676441 C180.642367,19.6804853 181.773082,21.1092012 183.276633,21.4327604 C183.000528,21.5156724 182.711275,21.5571284 182.410753,21.5571284 C182.199448,21.5571284 181.992839,21.5358948 181.793743,21.4944388 C182.210718,22.8978766 183.423138,23.9211325 184.860011,23.9484328 C183.735869,24.8968655 182.320596,25.4610718 180.783236,25.4610718 C180.518401,25.4610718 180.256383,25.445905 180,25.4125379 C181.452838,26.4145602 183.178024,27 185.031872,27 C191.070494,27 194.370605,21.6147624 194.370605,16.9443883 C194.370605,16.7906977 194.368727,16.6380182 194.362153,16.487361 C195.00358,15.9888777 195.561425,15.3660263 196,14.6572295 C195.411164,14.9383215 194.778189,15.1284125 194.115161,15.2133468 Z" id="Shape"/></g></g></g></svg>