<svg xmlns="http://www.w3.org/2000/svg" xmlns:xlink="http://www.w3.org/1999/xlink" width="24" height="24" viewBox="0 0 24 24">
    <defs>
        <path id="a" d="M13 21.146l7.445-3.723A1 1 0 0 0 21 16.53V7.377l-8 4v9.769zm-2 .005v-9.774l-8-4v9.149c-.003.38.21.729.547.899L11 21.15zM19.76 5.76l-7.315-3.657a.999.999 0 0 0-.887 0L4.241 5.76l7.76 3.88 7.758-3.88zM13.335.313l8 4A3 3 0 0 1 23 7v9.53a3 3 0 0 1-1.663 2.684l-8 4a3 3 0 0 1-2.684 0L2.65 19.212A2.997 2.997 0 0 1 1 16.519v-9.52a3 3 0 0 1 1.663-2.684L10.665.313a3 3 0 0 1 2.67 0z"/>
    </defs>
    <g fill="none" fill-rule="evenodd">
        <mask id="b" fill="#fff">
            <use xlink:href="#a"/>
        </mask>
        <use fill="#000" fill-rule="nonzero" xlink:href="#a"/>
        <g fill="#000" mask="url(#b)">
            <path d="M0 0h24v24H0z"/>
        </g>
    </g>
</svg>
