<svg xmlns="http://www.w3.org/2000/svg" width="65" height="60" viewBox="0 0 65 60">
    <g fill="#EA2B16" fill-rule="nonzero">
        <path d="M62.833 32.365H53.76c-1.76 0-2.708 1.218-2.708 2.437v.813c-.406 0-.812-.136-1.219-.136 3.115-5.687 6.094-13.812 6.094-20.041 0-13.948-17.469-20.313-26.406-9.75C20.583-4.876 3.115 1.49 3.115 15.438c0 5.958 1.49 11.645 4.604 17.197-1.76.542-3.115 2.167-3.115 4.063 0 .542.136 1.083.406 1.625-3.25 0-5.01 2.302-5.01 4.469 0 1.625.948 2.979 2.167 3.791-.407.677-.677 1.49-.677 2.302 0 2.438 2.03 4.334 4.604 4.334h1.218c-.135.406-.27.812-.27 1.354 0 3.25 3.114 4.74 6.77 4.74h19.365c4.469 0 9.073-.542 12.594-3.521 1.49-1.355 3.25-1.625 5.146-1.625 0 1.625 1.218 2.573 2.437 2.573h9.073a2.427 2.427 0 0 0 2.438-2.438v-19.5c.135-1.354-.813-2.437-2.032-2.437zM28.438 8.667c.541.812 1.76.812 2.302 0 6.635-10.157 22.614-5.417 22.614 6.77 0 6.094-3.385 14.355-6.094 19.094-1.625-.812-2.437-1.76-2.572-1.76-4.876-4.74-8.667-5.688-17.74-9.344-1.625-.677-3.52.136-4.063 1.76-.948 2.844 2.438 5.282 4.063 7.178h-16.25c-3.25-5.417-4.875-11.105-4.875-16.928 0-12.187 15.98-16.927 22.614-6.77zM44.145 53.49c-4.063 3.52-9.48 2.708-10.834 2.979h-19.5c-1.624 0-4.062-.407-4.062-2.032 0-.812.542-1.354.677-1.354H27.49c.812 0 1.354-.541 1.354-1.354 0-.812-.542-1.354-1.354-1.354H5.958c-1.083 0-1.896-.677-1.896-1.625s.813-1.625 1.896-1.625H27.49c.812 0 1.354-.542 1.354-1.354 0-.813-.542-1.354-1.354-1.354H4.469c-1.084 0-1.896-.677-1.896-1.625s.812-1.625 1.896-1.625h26.27c.813 0 1.355-.542 1.355-1.355 0-.812-.542-1.354-1.354-1.354H9.073c-1.083 0-1.896-.677-1.896-1.625s.813-1.625 1.896-1.625H29.52c.541 0 1.083-.406 1.354-.948.27-.541.135-1.218-.27-1.625-.136-.27-2.845-3.114-2.98-3.385-1.896-1.625-2.438-2.708-2.167-3.25h.407c10.291 4.198 12.864 5.01 16.791 8.667.136.135 2.98 3.385 8.396 3.791v12.865c-2.573 0-4.875.406-6.906 2.167zm18.146.27H53.76V35.073h8.532V53.76z"/>
        <path d="M56.146 51.323h1.896c.812 0 1.354-.542 1.354-1.354 0-.813-.542-1.354-1.354-1.354h-1.896c-.813 0-1.354.541-1.354 1.354 0 .812.541 1.354 1.354 1.354z"/>
    </g>
</svg>
