<svg xmlns="http://www.w3.org/2000/svg" width="48" height="58" viewBox="0 0 48 58">
    <g fill="#FFF" fill-rule="nonzero">
        <path d="M1.76 50.192a6.027 6.027 0 0 0 8.515 0l.895-.895a5.525 5.525 0 0 0 7.173-.545l1.669-1.67 9.201 9.186a3.916 3.916 0 0 0 2.799 1.134 4.91 4.91 0 0 0 4.761-4.461 3.927 3.927 0 0 0-1.123-3.11l-9.164-9.174c3.611-3.207 7.266-4.015 12.131-4.216l.573.572a4.522 4.522 0 0 0 6.393 0l.049-.049a4.516 4.516 0 0 0 0-6.387L21.375 6.321a4.522 4.522 0 0 0-6.387 0l-.055.054a4.522 4.522 0 0 0 0 6.387l.573.573c-.213 5.264-1.145 9.115-5.05 13.02l-7.25 7.25a5.525 5.525 0 0 0-.545 7.172l-.9.9a6.027 6.027 0 0 0 0 8.515zm1.926-1.931a3.273 3.273 0 0 1 0-4.659l.846-.845 4.658 4.658-.846.846a3.273 3.273 0 0 1-4.658.005v-.005zm29.744 5.781c-.704.699-1.751.84-2.291.295l-9.196-9.19 2.601-2.586 9.186 9.196c.54.54.403 1.587-.3 2.285zM16.859 8.312l.054-.055c.7-.696 1.831-.696 2.531 0l24.262 24.245a1.79 1.79 0 0 1 0 2.531l-.049.05c-.7.696-1.83.696-2.53 0L16.858 10.831a1.795 1.795 0 0 1 0-2.52zm19.2 25.576c-4.304.425-7.931 1.636-11.504 4.838L13.226 27.402c3.218-3.567 4.413-7.2 4.838-11.503L36.06 33.888zM5.137 35.524l6.186-6.174 11.28 11.28-6.186 6.185a2.81 2.81 0 0 1-3.97 0l-7.31-7.309a2.81 2.81 0 0 1 0-3.97v-.012zM40.604 5.455l-2.968 2.994a1.364 1.364 0 0 0 1.92 1.915l2.99-2.962a1.375 1.375 0 1 0-1.942-1.947zM46.576 15.022l-4.03.196a1.364 1.364 0 0 0 .065 2.727h.065l4.015-.19a1.365 1.365 0 0 0-.131-2.728l.016-.005zM31.43 6.742a1.364 1.364 0 0 0 1.357-1.287l.191-4.015a1.365 1.365 0 1 0-2.727-.13l-.191 4.014a1.364 1.364 0 0 0 1.298 1.429l.071-.011z"/>
    </g>
</svg>
