<svg xmlns="http://www.w3.org/2000/svg" width="64" height="63" viewBox="0 0 64 63">
    <g fill="#EA2B16" fill-rule="nonzero">
        <path d="M63.2 39.837c-1.467-6.792-8.267-11.102-15.2-9.666l-22 4.572V12.539C26 5.486 20.267 0 13.333 0 6.267 0 .533 5.616.533 12.539v37.616C.4 57.992 7.867 64.131 16 62.563l19.733-4.049 17.6-3.918C60 53.29 64.667 46.759 63.2 39.836zM13.333 2.612c5.467 0 10.134 4.31 10.134 9.927V29.91H3.2V12.54c0-5.486 4.533-9.927 10.133-9.927zM3.2 32.522h20.133v2.743l-12.8 2.613c-3.066.653-5.6 2.35-7.466 4.571v-9.927H3.2zM15.467 59.82c-6.4 1.307-12.267-3.526-12.134-9.796 0-4.702 3.334-8.62 8-9.534l17.334-3.657c4.133 19.2 3.333 15.281 4.266 19.33L15.467 59.82zM52.8 52.114l-17.333 3.657-4.267-19.33 17.333-3.657c5.467-1.176 10.8 2.22 12 7.575 1.2 5.486-2.533 10.58-7.733 11.755z"/>
        <path d="M40.533 23.771c6.4 2.874 14 .262 16.934-6.008 2.933-6.27.266-13.714-6.134-16.587-6.4-2.874-14-.262-17.066 6.008-2.934 6.27-.134 13.714 6.266 16.587zm14.4-7.053C52.8 21.29 47.6 23.38 42.8 21.943L51.2 4.31c4.267 2.482 6 7.837 3.733 12.408zM36.8 8.36c2.133-4.44 7.333-6.661 12.133-5.224l-8.4 17.632c-4.266-2.612-6-7.967-3.733-12.408z"/>
    </g>
</svg>
