<?xml version="1.0" encoding="UTF-8"?>
<svg width="14px" height="14px" viewBox="0 0 14 14" version="1.1" xmlns="http://www.w3.org/2000/svg" xmlns:xlink="http://www.w3.org/1999/xlink">
    <!-- Generator: sketchtool 50.2 (55047) - http://www.bohemiancoding.com/sketch -->
    <title>6E98FE80-B0A0-400E-9573-820421BCE553</title>
    <desc>Created with sketchtool.</desc>
    <defs></defs>
    <g id="UI_desktop" stroke="none" stroke-width="1" fill-rule="evenodd">
        <g id="UI_LEKKI" transform="translate(-668.000000, -978.000000)" fill-rule="nonzero">
            <g id="x" transform="translate(668.000000, 950.000000)">
                <g id="Combined-Shape-Copy">
                    <path d="M8.41421356,35 L13.7071068,40.2928932 C14.0976311,40.6834175 14.0976311,41.3165825 13.7071068,41.7071068 C13.3165825,42.0976311 12.6834175,42.0976311 12.2928932,41.7071068 L7,36.4142136 L1.70710678,41.7071068 C1.31658249,42.0976311 0.683417511,42.0976311 0.292893219,41.7071068 C-0.0976310729,41.3165825 -0.0976310729,40.6834175 0.292893219,40.2928932 L5.58578644,35 L0.292893219,29.7071068 C-0.0976310729,29.3165825 -0.0976310729,28.6834175 0.292893219,28.2928932 C0.683417511,27.9023689 1.31658249,27.9023689 1.70710678,28.2928932 L7,33.5857864 L12.2928932,28.2928932 C12.6834175,27.9023689 13.3165825,27.9023689 13.7071068,28.2928932 C14.0976311,28.6834175 14.0976311,29.3165825 13.7071068,29.7071068 L8.41421356,35 Z"></path>
                </g>
            </g>
        </g>
    </g>
</svg>