<svg xmlns="http://www.w3.org/2000/svg" xmlns:xlink="http://www.w3.org/1999/xlink" width="16" height="13" viewBox="0 0 16 13">
    <defs>
        <path id="a" d="M14.667 3.792c.409 0 .74.404.74.902 0 .499-.331.903-.74.903H1.333c-.409 0-.74-.404-.74-.903 0-.498.331-.902.74-.902h13.334zm0-3.611c.409 0 .74.404.74.902 0 .499-.331.903-.74.903H1.333c-.409 0-.74-.404-.74-.903 0-.498.331-.902.74-.902h13.334zm0 7.222c.409 0 .74.404.74.903 0 .498-.331.902-.74.902H1.333c-.409 0-.74-.404-.74-.902 0-.499.331-.903.74-.903h13.334zm0 3.61c.409 0 .74.405.74.904 0 .498-.331.902-.74.902H1.333c-.409 0-.74-.404-.74-.902 0-.499.331-.903.74-.903h13.334z"/>
    </defs>
    <g fill="none" fill-rule="evenodd">
        <mask id="b" fill="#fff">
            <use xlink:href="#a"/>
        </mask>
        <use fill="#2B2B2B" fill-rule="nonzero" xlink:href="#a"/>
        <g fill="#2B2B2B" mask="url(#b)">
            <path d="M-.889-4.333H16.89v21.667H-.889z"/>
        </g>
    </g>
</svg>
