<svg xmlns="http://www.w3.org/2000/svg" width="40" height="40" viewBox="0 0 40 40">
    <path fill="#EA2B16" fill-rule="nonzero" d="M37 3.333h-5V2.257C32 1.012 30.654 0 29 0s-3 1.012-3 2.257v1.076H14V2.257C14 1.012 12.654 0 11 0S8 1.012 8 2.257v1.076H3c-1.654 0-3 1.122-3 2.5V37.5C0 38.878 1.346 40 3 40h34c1.654 0 3-1.122 3-2.5V5.833c0-1.378-1.346-2.5-3-2.5zM2 15h36v10h-9c-1.654 0-3 1.122-3 2.5V35H3c-.552 0-1-.373-1-.833V15zm26 12.5c0-.46.448-.833 1-.833h7.586L28 33.822V27.5zm0-25.243c0-.32.458-.59 1-.59s1 .27 1 .59v5.695c0 .32-.458.59-1 .59s-1-.27-1-.59V2.257zm-18 0c0-.32.458-.59 1-.59s1 .27 1 .59v5.695c0 .32-.458.59-1 .59s-1-.27-1-.59V2.257zM3 5h5v2.952c0 1.245 1.346 2.256 3 2.256s3-1.011 3-2.256V5h12v2.952c0 1.245 1.346 2.256 3 2.256s3-1.011 3-2.256V5h5c.552 0 1 .373 1 .833v7.5H2v-7.5C2 5.373 2.448 5 3 5zm34 33.333H3c-.552 0-1-.373-1-.833v-.987c.314.094.648.154 1 .154h24c.13 0 .26-.022.382-.065.118-.04.222-.1.312-.174l.012-.006L38 27.845V37.5c0 .46-.448.833-1 .833z"/>
</svg>
