<svg xmlns="http://www.w3.org/2000/svg" width="48" height="40" viewBox="0 0 48 40">
    <path fill="#EA2B16" fill-rule="nonzero" d="M44.03 2.776C39.424-1.189 32.416-.89 27.91 3.57L23.504 7.93 19.8 4.164c-4.506-4.46-11.915-4.46-16.42 0-4.506 4.461-4.506 11.797 0 16.258l18.723 18.537a3.53 3.53 0 0 0 5.006 0c.801-.793 1.201-1.487 1.201-2.676v-.1c1.202 0 2.003-.495 2.704-1.19.7-.693 1.001-1.585 1.001-2.477.901 0 1.902-.397 2.503-.992.801-.694 1.202-1.487 1.202-2.676v-.1c1.101 0 1.902-.396 2.703-1.189.701-.694 1.102-1.685 1.001-2.676l5.107-5.453c4.706-4.361 4.706-12.094-.5-16.654zM37.122 26.27c-.902.893-1.803.793-2.404.199l-6.508-6.246a.975.975 0 0 0-1.401 0c-.4.397-.4.992 0 1.388l6.508 6.444c.1.099.2.198.3.198.3.694.1 1.289-.5 1.884-.601.594-1.603.594-2.203 0l-6.508-6.444a.975.975 0 0 0-1.402 0c-.4.397-.4.991 0 1.388l6.508 6.443c.6.595.6 1.586 0 2.181-.801.793-1.702.793-2.303.198l-6.508-6.443a.975.975 0 0 0-1.402 0c-.4.397-.4.991 0 1.388l6.508 6.443c.601.595.701 1.487-.2 2.28-.6.595-1.602.595-2.203 0L4.781 19.034c-3.805-3.767-3.805-9.715 0-13.482a9.617 9.617 0 0 1 13.617 0l3.805 3.767-7.71 7.831a3.346 3.346 0 0 0-.8 2.578c.4 2.478 3.504 3.271 5.106 1.487l5.306-5.254c.901-.991 1.903-.694 4.105-.595l8.811 8.724c.701.594.701 1.586.1 2.18zm6.107-8.03L38.724 23c-.401-.397-7.11-7.138-7.51-7.535h.6c.602 0 1.002-.396 1.002-.991s-.4-.991-1.001-.991c-5.908-.199-7.51-.694-9.112 1.09l-5.306 5.254c-.601.595-1.602.297-1.702-.496-.1-.297 0-.595.2-.793l8.31-8.426 5.107-5.056c3.704-3.667 9.612-3.965 13.417-.693 4.205 3.568 4.405 9.913.5 13.878z"/>
</svg>
