<svg xmlns="http://www.w3.org/2000/svg" width="67" height="56" viewBox="0 0 67 56">
    <g fill="#EA2B16" fill-rule="nonzero">
        <path d="M62.281.243H4.005A4.008 4.008 0 0 0 0 4.248v39.219c0 2.071 1.795 3.866 4.005 3.866h14.362l-4.557 6.215c-.691.966 0 2.21 1.104 2.21H51.51c1.104 0 1.795-1.244 1.104-2.21l-4.695-6.215h14.362a4.008 4.008 0 0 0 4.005-4.004V4.248A4.008 4.008 0 0 0 62.28.243zM4.005 3.005h58.414c.69 0 1.243.552 1.243 1.243v31.21h-60.9V4.247c0-.69.552-1.243 1.243-1.243zm44.743 49.99h-31.21l4.143-5.662h22.786l4.28 5.662zm13.533-8.424H4.005c-.69 0-1.243-.552-1.243-1.242V38.08h60.762v5.248c0 .69-.553 1.242-1.243 1.242z"/>
        <path d="M21.543 23.857h7.319v7.32c0 .828.552 1.38 1.38 1.38h5.939c.829 0 1.38-.552 1.38-1.38v-7.32h7.32c.829 0 1.38-.552 1.38-1.38v-5.939c0-.828-.551-1.38-1.38-1.38h-7.32v-7.32c0-.828-.551-1.38-1.38-1.38h-5.938c-.829 0-1.381.552-1.381 1.38v7.32h-7.32c-.828 0-1.38.552-1.38 1.38v5.938c0 .69.552 1.381 1.38 1.381zm1.38-5.938h7.32c.828 0 1.38-.552 1.38-1.38v-7.32H34.8v7.32c0 .828.552 1.38 1.381 1.38H43.5v3.176h-7.319c-.829 0-1.381.553-1.381 1.381v7.32h-3.176v-7.32c0-.828-.553-1.38-1.381-1.38h-7.32v-3.177z"/>
    </g>
</svg>
