<svg xmlns="http://www.w3.org/2000/svg" xmlns:xlink="http://www.w3.org/1999/xlink" width="24" height="24" viewBox="0 0 24 24">
    <defs>
        <path id="a" d="M19 9h-5a1 1 0 0 1-1-1V3H6a1 1 0 0 0-1 1v16a1 1 0 0 0 1 1h12a1 1 0 0 0 1-1V9h1a1 1 0 0 0 1-1v12a3 3 0 0 1-3 3H6a3 3 0 0 1-3-3V4a3 3 0 0 1 3-3h8a1 1 0 0 1 .707.293l6 6a1 1 0 0 1 .217.324zm-4-4.586V7h2.586L15 4.414zM16 12a1 1 0 0 1 0 2H8a1 1 0 0 1 0-2h8zm0 4a1 1 0 0 1 0 2H8a1 1 0 0 1 0-2h8zm-6-8a1 1 0 0 1 0 2H8a1 1 0 1 1 0-2h2z"/>
    </defs>
    <g fill="none" fill-rule="evenodd">
        <mask id="b" fill="#fff">
            <use xlink:href="#a"/>
        </mask>
        <use fill="#000" fill-rule="nonzero" xlink:href="#a"/>
        <g fill="#000" mask="url(#b)">
            <path d="M0 0h24v24H0z"/>
        </g>
    </g>
</svg>
