<svg xmlns="http://www.w3.org/2000/svg" xmlns:xlink="http://www.w3.org/1999/xlink" width="18" height="18" viewBox="0 0 18 18">
    <defs>
        <path id="a" d="M4.49 5.551a13.088 13.088 0 0 0-2.883 3.451 13.885 13.885 0 0 0 1.846 2.485c1.63 1.737 3.488 2.763 5.535 2.763a6.803 6.803 0 0 0 3.29-.91l-1.74-1.742a3 3 0 0 1-4.136-4.135L4.49 5.55zm9.487 7.365a.75.75 0 0 1 .016.016l3.787 3.788a.75.75 0 0 1-1.06 1.06l-3.35-3.35A8.317 8.317 0 0 1 9 15.75c-2.535 0-4.754-1.224-6.64-3.237a15.37 15.37 0 0 1-1.69-2.169 11.39 11.39 0 0 1-.59-1.009.75.75 0 0 1 .01-.69 14.588 14.588 0 0 1 3.336-4.158L.22 1.28A.75.75 0 0 1 1.28.22l3.787 3.786a.75.75 0 0 1 .016.016l2.854 2.855a.76.76 0 0 1 .006.005l3.175 3.175a.762.762 0 0 1 .005.006l2.854 2.853zM7.52 8.582a1.5 1.5 0 0 0 1.897 1.897L7.521 8.582zm7.535 2.328c.502-.597.95-1.236 1.337-1.912a13.885 13.885 0 0 0-1.847-2.485C12.919 4.776 11.06 3.75 8.999 3.75a6.09 6.09 0 0 0-1.402.16.75.75 0 0 1-.342-1.46A7.586 7.586 0 0 1 9 2.25c2.535 0 4.754 1.224 6.64 3.237a15.37 15.37 0 0 1 1.69 2.169c.288.446.485.798.59 1.009a.75.75 0 0 1-.009.689 14.625 14.625 0 0 1-1.707 2.521.75.75 0 1 1-1.148-.965z"/>
    </defs>
    <g fill="none" fill-rule="evenodd">
        <path fill="#FFF" d="M-989-427H355v1456H-989z"/>
        <g>
            <mask id="b" fill="#fff">
                <use xlink:href="#a"/>
            </mask>
            <use fill="#000" xlink:href="#a"/>
            <g fill="#000" mask="url(#b)">
                <path d="M0 0h18v18H0z"/>
            </g>
        </g>
    </g>
</svg>
