<svg xmlns="http://www.w3.org/2000/svg" width="18" height="14" viewBox="0 0 18 14">
    <g fill="none" fill-rule="evenodd">
        <path fill="#FFF" d="M-989-485H355V971H-989z"/>
        <path fill="#EA2B16" fill-rule="nonzero" d="M.08 6.665c.105-.211.302-.563.59-1.01a15.37 15.37 0 0 1 1.69-2.168C4.245 1.474 6.464.25 9 .25c2.535 0 4.754 1.224 6.64 3.237a15.37 15.37 0 0 1 1.69 2.169c.288.446.485.798.59 1.009a.75.75 0 0 1 0 .67c-.105.211-.302.563-.59 1.01a15.37 15.37 0 0 1-1.69 2.168C13.755 12.526 11.536 13.75 9 13.75c-2.535 0-4.754-1.224-6.64-3.237A15.37 15.37 0 0 1 .67 8.344a11.39 11.39 0 0 1-.59-1.009.75.75 0 0 1 0-.67zm1.85.866c.432.667.941 1.335 1.523 1.956C5.083 11.224 6.941 12.25 9 12.25c2.059 0 3.918-1.026 5.547-2.763A13.885 13.885 0 0 0 16.394 7a13.885 13.885 0 0 0-1.848-2.487C12.919 2.776 11.06 1.75 9 1.75S5.082 2.776 3.453 4.513A13.885 13.885 0 0 0 1.606 7c.094.163.202.341.325.53zM9 10a3 3 0 1 1 0-6 3 3 0 0 1 0 6zm0-1.5a1.5 1.5 0 1 0 0-3 1.5 1.5 0 0 0 0 3z"/>
    </g>
</svg>
