<svg xmlns="http://www.w3.org/2000/svg" xmlns:xlink="http://www.w3.org/1999/xlink" width="635" height="500" viewBox="0 0 635 500">
    <defs>
        <text id="b" fill="#FFF" font-family="Rubik-Bold, Rubik" font-size="300" font-weight="bold" letter-spacing="-29.2">
            <tspan x="0" y="314">404</tspan>
        </text>
        <filter id="a" width="130.7%" height="140.3%" x="-13.5%" y="-19.6%" filterUnits="objectBoundingBox">
            <feOffset dy="2" in="SourceAlpha" result="shadowOffsetOuter1"/>
            <feGaussianBlur in="shadowOffsetOuter1" result="shadowBlurOuter1" stdDeviation="23.5"/>
            <feColorMatrix in="shadowBlurOuter1" values="0 0 0 0 0 0 0 0 0 0 0 0 0 0 0 0 0 0 0.15 0"/>
        </filter>
    </defs>
    <g fill="none" fill-rule="evenodd">
        <path fill="#FFF" d="M-107-134h1344v768H-107z"/>
        <path fill="#EA2B16" fill-rule="nonzero" d="M540.58 214.971c-9.073-30.844-19.959-61.689-33.87-90.719-11.49-24.192-24.796-48.988-41.125-70.156-12.096-15.725-26.611-32.66-43.546-42.94-3.628-2.42-7.257-4.234-11.49-6.049-2.42-1.21-5.444-1.814-7.863-3.024-3.024-.605-6.653-1.21-9.677-1.814-4.233-.605-8.467 0-12.096 0-19.958 1.814-40.521 9.677-58.665 18.144-24.192 11.49-47.779 26.61-68.947 42.94-26.006 19.354-50.198 41.126-71.97 64.713-22.378 23.587-43.546 48.384-61.69 74.995-15.724 22.378-29.635 45.965-40.521 70.761-4.234 10.282-8.467 20.563-10.886 31.45-2.42 9.072-4.234 18.144-4.234 27.82 0 4.839 0 9.677.605 14.515 0 .605 0 1.815.605 2.42 1.21 5.443 3.024 10.281 5.443 15.12 1.814 3.023 3.024 6.047 5.443 8.467 11.491 16.33 28.425 30.844 44.755 41.73 22.377 15.12 47.174 27.821 71.97 38.103 29.636 12.7 61.085 22.377 91.93 30.24 31.449 7.862 63.503 13.305 95.557 16.329 26.611 2.42 54.432 2.42 81.648-.605 19.958-2.419 41.73-6.653 59.27-16.33 3.024-1.209 5.443-3.023 7.862-4.838 9.677-6.048 16.33-15.724 21.168-26.006 4.234-8.467 6.653-17.539 9.072-26.61 2.42-10.887 4.234-21.774 4.838-33.265 1.815-27.216.605-54.431-3.024-81.647-4.838-30.845-11.49-62.899-20.563-93.744z"/>
        <g fill="#FFF" transform="translate(38)">
            <use filter="url(#a)" xlink:href="#b"/>
            <use xlink:href="#b"/>
        </g>
        <path fill="#FFF" fill-rule="nonzero" d="M373.222 393.518c-1.033-3.518-2.271-7.035-3.854-10.347-1.307-2.759-2.82-5.587-4.679-8.001-1.376-1.794-3.027-3.725-4.954-4.898a7.838 7.838 0 0 0-1.307-.69c-.276-.137-.62-.206-.895-.344-.344-.07-.757-.138-1.1-.207-.482-.07-.964 0-1.377 0-2.27.207-4.61 1.103-6.674 2.069-2.753 1.31-5.436 3.035-7.845 4.898a59.598 59.598 0 0 0-8.188 7.38c-2.546 2.69-4.954 5.519-7.019 8.554-1.789 2.552-3.371 5.242-4.61 8.07-.481 1.173-.963 2.346-1.238 3.587-.276 1.035-.482 2.07-.482 3.174 0 .551 0 1.103.069 1.655 0 .07 0 .207.069.276a7.35 7.35 0 0 0 .619 1.724c.206.345.344.69.62.966 1.307 1.863 3.233 3.518 5.091 4.76 2.546 1.724 5.367 3.173 8.188 4.346 3.372 1.448 6.95 2.552 10.46 3.449a73.106 73.106 0 0 0 10.871 1.862c3.028.276 6.193.276 9.29-.069 2.27-.276 4.747-.759 6.743-1.862.344-.138.619-.345.894-.552 1.101-.69 1.858-1.794 2.409-2.966.481-.966.756-2 1.032-3.036.275-1.241.481-2.483.55-3.793.207-3.105.069-6.209-.344-9.313-.55-3.518-1.307-7.174-2.34-10.692z"/>
        <path fill="#EA2B16" d="M349.453 376.31c.209-.345.417-.69.695-.965.069-.07.138-.07.208-.138.07-.07.139-.07.139-.07.069 0 .069-.068.138-.068.07 0 .14 0 .278-.069.417 0 .833.069 1.18.207.486.138.972.344 1.458.62.555.276 1.11.62 1.596 1.033.486.414.972.827 1.389 1.24.347.414.694.759.971 1.241.14.207.209.345.278.551.07.138.139.345.139.552.07.206.07.413-.07.62 0 .069-.069.138-.069.138-.139.344-.486.689-.763.895-.417.345-.833.69-1.25.965-.555.345-1.11.62-1.666.827-.208.069-.347.138-.555.207a5.222 5.222 0 0 1 2.152 2.687c1.25 3.032-.209 6.477-3.263 7.787-3.054 1.24-6.525-.207-7.844-3.239-.486-1.171-.555-2.343-.347-3.514-.07 0-.139.069-.208.069-.555.206-1.18.413-1.805.55a5.958 5.958 0 0 1-1.596.208c-.417 0-.833 0-1.18-.138-.07 0-.14-.07-.209-.07-.069-.068-.208-.068-.277-.206l-.07-.069-.208-.206c-.07-.138-.208-.345-.278-.483l-.208-.62c-.139-.482-.139-1.034-.208-1.585 0-.62 0-1.24.139-1.86.07-.62.208-1.24.416-1.86.14-.483.347-.966.625-1.448.208-.344.417-.689.694-.965.07-.068.139-.068.208-.137.07-.07.14-.07.14-.07.069 0 .069-.068.138-.068.07 0 .139 0 .278-.07.416 0 .833.07 1.18.208 9.926 3.1 2.776 6.27 7.635-2.688zm.486 29.767c.07.207-2.637-4.065-1.874-8.613v-.07c0-.068.07-.275.07-.206-2.291 4.961-6.456 7.373-8.608 8.82-.347.207-.347.551-.347.62.486 2.137 4.928 3.79 7.497 4.617.208.07-3.402-1.585-4.582-2.412-.624-.413-.347-.55.486-.344 1.389.344 2.36.827 3.61 1.447 1.11.551 2.638 1.102 5.97 1.585.138 0-1.32.069-2.777-.138-.07 0-.07.069.07.276l.069.069c2.152 3.307 2.846 6.821 1.943 10.68-.138.483-.138.758.07.483 1.25-1.654 2.152-3.032 2.776-4.273.14-.275.278-.551.347-.758.14-.275.209-.62.348-.896.069-.206.138-.344.138-.55 0-.139.07-.276.07-.345v-.207-.345c0-.275-3.471-5.994-.972-2.205.625.965 2.013 2.619 2.915 3.584 3.124 3.238 9.163-2.481 11.593-4.548l.208-.207a3.115 3.115 0 0 0 1.041-2.343c0-.207-.07-.551-.208-.896a13.427 13.427 0 0 0-.833-1.791 33.316 33.316 0 0 0-.833-1.585c-2.36-3.997-6.664-7.029-10.829-8.751-.139-.07-.277-.07-.277-.07-.209.139 1.18.828 2.29 1.586 1.388.964 1.18.895.278 1.309-.347.138-.625.344-.903.482-.485.276-.416.207-.347.827.07.551.278 1.516.278 2.687 0 .138 0 .552.208.414.07 0 .07-.069.14-.069.485-.276.902-.069 1.11.207.416.551.624.896.763 1.033.278.345.625.827 1.11.483l1.39-.965c.485-.345 1.04.069 1.11.207 1.319 1.93 1.319 1.791 1.319 1.93.347.481 0 .895-.209 1.102-.555.413 0 0-1.318.964a.624.624 0 0 0-.278.758c0 .07.07.138.208.345.208.275.417.62.625.896.416.55.486 1.033-.208 1.516-.417.275-1.32.895-1.736 1.171-.347.207-.763.207-1.04-.138 0-.069-.07-.069-.07-.069-.347-.482-.694-.964-.972-1.378-.208-.275-.555-.275-.833-.138-.278.138-.833.552-1.11.758-.556.414-.973.552-1.389.07-.208-.207-1.388-1.861-1.458-2.137-.07-.276 0-.62.486-1.033.833-.552.764-.552.833-.552v-.069c-.07-1.653-.694-3.79-1.666-5.168a4.833 4.833 0 0 1-.416-.62c-.07-.138-1.32.69-2.43 1.792-.763.758-1.596 1.86-1.596 1.86.902-2.136 3.748-3.996 3.748-3.996l-.139-.138c-.486-.483-1.388-.827-2.013-1.103-.902-.344-.555-1.102.07-1.102.138 0 .208.069.347.069 1.11.62 3.956 3.238 4.303 7.993.07.896.209.758.347.207 0-.07 0-.138.07-.207.139-.69.278-1.447.278-2.136.069-1.034.069-2.136-.07-3.17-.07-1.034-.278-2.136-.555-3.17-.208-.827-.486-1.722-.903-2.55-1.457-2.893-4.442-3.169-6.316-1.929-3.054 1.86-1.458 7.925-.417 10.543z"/>
        <path fill="#FFF" d="M394.759 397.523h6.413c5.725 0 5.587 8.11.07 8.11h-10.828c-2.345 0-4.414-1.703-4.414-4.089v-22.969c0-5.998 8.759-6.202 8.759.136v18.812zm21.31-15.063v3.408h5.724c5.655 0 5.517 8.179 0 8.179h-5.724v3.544h6.207c6 0 5.862 8.11 0 8.11h-10.483c-2.62 0-4.483-1.703-4.483-4.293v-22.765c0-2.453 1.724-4.362 4.207-4.362h10.69c5.517 0 5.655 8.11 0 8.11h-6.138v.07zm23.38 1.772l7.861-8.383c4.414-4.703 11.173 1.295 6.414 5.793l-7.38 7.361 8.828 9.474c4.345 4.703-2.344 10.7-7.172 5.248l-8.552-9.474v7.089c0 5.93-8.758 6.134-8.758.068v-22.901c0-5.793 8.758-6.202 8.758.136v5.59zm29.517 0l7.862-8.383c4.413-4.703 11.172 1.295 6.413 5.793l-7.379 7.361 8.828 9.474c4.276 4.703-2.276 10.837-7.173 5.248l-8.551-9.474v7.089c0 5.93-8.76 6.134-8.76.068v-22.901c0-5.793 8.76-6.202 8.76.136v5.59zm20.275-5.657c0-6.066 8.759-6.134 8.759 0v22.765c0 6.27-8.759 6.134-8.759.068v-22.833z"/>
        <path fill="#FFF" fill-rule="nonzero" d="M386 419.962v-6.647c0-.346.069-.623.207-.83.138-.208.345-.277.62-.277.345 0 .552.069.76.277.206.138.275.415.275.692v4.154l3.586-4.5c.138-.208.276-.346.414-.485.138-.138.345-.138.552-.138.276 0 .552.069.69.277.206.207.275.484.275.761v6.646c0 .277-.069.554-.276.762-.137.208-.413.277-.758.277-.276 0-.552-.07-.69-.277a1.173 1.173 0 0 1-.207-.692v-4.085l-3.586 4.5c-.207.208-.345.346-.483.415-.138.07-.345.139-.482.139-.276 0-.483-.07-.69-.277-.138-.277-.207-.485-.207-.692zm9.448-6.785c0-.346.07-.623.276-.762.207-.138.414-.277.69-.277.276 0 .483.07.69.277.206.139.275.416.275.762v2.354h3.655v-2.354c0-.346.07-.623.276-.762.207-.138.414-.277.69-.277.276 0 .552.07.69.277.207.139.276.416.276.831v6.646c0 .277-.07.554-.276.762-.138.208-.414.277-.759.277-.276 0-.552-.07-.69-.277a1.173 1.173 0 0 1-.207-.692V417.4h-3.655v2.492a1.4 1.4 0 0 1-.207.762c-.138.208-.413.277-.69.346-.344 0-.62-.07-.758-.277-.138-.208-.276-.415-.276-.761v-6.785zm10.69 6.646v-5.815h-1.035c-.344 0-.551-.07-.758-.208-.207-.138-.276-.346-.276-.623 0-.623.345-.9 1.034-.9h4.138c.69 0 1.035.277 1.035.9 0 .277-.07.485-.276.623-.207.138-.414.208-.759.208h-1.172v5.815c0 .346-.069.623-.276.762-.207.207-.414.277-.69.277-.275 0-.551-.07-.69-.277-.206-.139-.275-.416-.275-.762zm5.31-4.154v-2.492c0-.346.07-.554.276-.762.207-.138.414-.277.62-.277h3.104c.276 0 .483.07.69.208.138.139.276.416.276.692 0 .277-.07.485-.207.624a.918.918 0 0 1-.69.276h-2.069v1.524h1.931c.276 0 .483.069.69.276.138.208.276.416.276.624 0 .276-.07.484-.276.623-.138.207-.414.277-.69.277h-1.93v1.592h2.068c.345 0 .552.07.759.277.138.138.207.346.207.623s-.07.484-.207.692c-.138.208-.414.277-.759.277h-2.965c-.345 0-.552-.07-.759-.277-.207-.208-.276-.415-.276-.692v-4.085h-.069zm6.414-2.492c0-.208.069-.485.276-.692.138-.208.414-.277.759-.277h2.206c.621 0 1.242.138 1.656.415.482.277.827.623 1.034 1.039.207.415.345.969.345 1.523 0 .553-.138 1.038-.345 1.453-.207.416-.552.762-.965 1.039-.414.277-.897.346-1.449.346h-1.586v1.8c0 .346-.069.623-.276.762-.207.207-.414.277-.69.277-.62 0-.965-.416-.965-1.039v-6.646zm1.931.761v2.354h1.104c.344 0 .62-.138.827-.346.207-.208.345-.484.345-.83 0-.347-.138-.624-.345-.9-.207-.208-.552-.347-.965-.347h-.966v.07zm5.655-.761c0-.346.07-.623.276-.762.207-.138.414-.277.69-.277.276 0 .483.07.69.277.206.139.275.416.275.762v2.354h3.655v-2.354c0-.346.07-.623.276-.762.207-.138.414-.277.69-.277.276 0 .552.07.69.277.207.139.276.416.276.831v6.646c0 .277-.07.554-.276.762-.138.208-.414.277-.759.277-.276 0-.552-.07-.69-.277a1.173 1.173 0 0 1-.207-.692V417.4h-3.655v2.492a1.4 1.4 0 0 1-.207.762c-.138.208-.413.277-.69.346-.344 0-.62-.07-.758-.277-.138-.208-.276-.415-.276-.761v-6.785zm9.31 2.492v-2.492c0-.346.07-.554.276-.762.207-.138.414-.277.621-.277h3.104c.275 0 .482.07.69.208.137.139.275.416.275.692 0 .277-.069.485-.207.624a.918.918 0 0 1-.69.276h-2.068v1.524h1.93c.277 0 .552.069.69.276.138.208.276.416.276.624 0 .276-.069.484-.276.623-.138.207-.413.277-.69.277h-1.93v1.592h2.069c.344 0 .551.07.758.277.138.138.207.346.207.623s-.069.484-.207.692c-.138.208-.414.277-.758.277h-2.966c-.345 0-.552-.07-.759-.277-.206-.208-.275-.415-.275-.692v-4.085h-.07zm7.794 4.154v-5.815h-1.035c-.345 0-.551-.07-.758-.208-.207-.138-.276-.346-.276-.623 0-.623.345-.9 1.034-.9h4.138c.69 0 1.035.277 1.035.9 0 .277-.07.485-.276.623-.207.138-.414.208-.759.208h-1.103v5.815c0 .346-.07.623-.276.762-.207.207-.414.277-.69.277-.276 0-.552-.07-.69-.277-.275-.139-.344-.416-.344-.762zm8.758-3.185c.276 0 .483.07.621.208a.788.788 0 0 1 .207.554.788.788 0 0 1-.207.554c-.138.138-.345.208-.62.208h-2.69c-.276 0-.483-.07-.69-.208-.138-.139-.276-.346-.276-.554 0-.208.138-.415.276-.554.138-.138.414-.208.69-.208h2.69zm1.862 2.354l2.07-5.538c.344-.97.827-1.454 1.517-1.454s1.172.415 1.517 1.315l2.138 5.747c.138.346.138.692.138.9 0 .276-.07.484-.276.623a1.162 1.162 0 0 1-.69.207c-.483 0-.827-.277-1.034-.9l-.276-.83h-3.173l-.275.83c-.07.277-.207.485-.345.693-.138.138-.414.207-.69.207-.62 0-.896-.277-.896-.83.069-.208.137-.554.275-.97zm2.552-1.73h2.07l-.966-3.116-1.104 3.116zm6.828-5.193h4.276c.275 0 .482.07.69.277.206.139.275.416.275.762v6.646a1.4 1.4 0 0 1-.207.761c-.138.208-.414.277-.69.347-.344 0-.62-.07-.758-.277-.138-.208-.276-.416-.276-.762v-5.815h-2.414v5.815a1.4 1.4 0 0 1-.207.762c-.138.207-.413.277-.69.346-.344 0-.62-.07-.758-.277-.138-.208-.276-.416-.276-.762v-6.23c0-.208 0-.416.07-.693.068-.277.137-.415.206-.484.138-.347.414-.416.759-.416-.07 0-.07 0 0 0zm8.276 7.754v-5.815h-1.035c-.345 0-.552-.07-.759-.208-.206-.138-.275-.346-.275-.623 0-.623.344-.9 1.034-.9h4.138c.69 0 1.035.277 1.035.9 0 .277-.07.485-.276.623-.207.138-.414.208-.759.208h-1.103v5.815c0 .346-.07.623-.276.762-.207.207-.414.277-.69.277-.276 0-.552-.07-.69-.277-.206-.139-.344-.416-.344-.762zm5.31-4.154v-2.492c0-.346.069-.554.276-.762.207-.138.414-.277.62-.277h3.104c.276 0 .483.07.69.208.138.139.275.416.275.692 0 .277-.069.485-.206.624a.918.918 0 0 1-.69.276h-2.07v1.524h1.932c.276 0 .552.069.69.276.138.208.275.416.275.624 0 .276-.068.484-.275.623-.138.207-.414.277-.69.277h-1.931v1.592h2.069c.345 0 .552.07.759.277.137.138.206.346.206.623s-.069.484-.206.692c-.138.208-.414.277-.76.277h-2.965c-.344 0-.551-.07-.758-.277-.207-.208-.276-.415-.276-.692v-4.085h-.07zm6.483-2.492c0-.346.069-.554.276-.762.206-.207.413-.277.69-.277.62 0 .965.347.965 1.039v2.354l2.758-2.977c.276-.277.552-.416.897-.416.276 0 .483.139.69.347.206.207.275.415.275.623 0 .277-.138.554-.413.761l-2.276 2.354 2.69 2.977c.206.208.275.415.344.623 0 .346-.069.623-.276.83-.207.209-.413.278-.758.278-.345 0-.62-.208-.966-.554l-2.965-3.323v2.838c0 .346-.07.623-.276.762-.207.138-.483.277-.759.277a.873.873 0 0 1-.62-.277c-.138-.208-.276-.416-.276-.692v-6.785zm8 5.815l2.069-5.538c.344-.97.827-1.454 1.517-1.454s1.172.415 1.517 1.315l2.138 5.747c.138.346.138.692.138.9 0 .276-.069.484-.276.623a1.162 1.162 0 0 1-.69.207c-.482 0-.827-.277-1.034-.9l-.207-.83h-3.172l-.276.83c-.07.277-.207.485-.345.693-.138.138-.345.207-.62.207-.621 0-.897-.277-.897-.83-.138-.208-.07-.554.138-.97zm2.482-1.73h2.07l-.966-3.116-1.104 3.116z"/>
    </g>
</svg>
