<svg xmlns="http://www.w3.org/2000/svg" xmlns:xlink="http://www.w3.org/1999/xlink" width="24" height="24" viewBox="0 0 24 24">
    <defs>
        <path id="a" d="M19 19v3a1 1 0 0 1-1 1H6a1 1 0 0 1-1-1v-3H4a3 3 0 0 1-3-3v-5a3 3 0 0 1 3-3h1V2a1 1 0 0 1 1-1h12a1 1 0 0 1 1 1v6h1a3 3 0 0 1 3 3v5a3 3 0 0 1-3 3h-1zm0-2h1a1 1 0 0 0 1-1v-5a1 1 0 0 0-1-1H4a1 1 0 0 0-1 1v5a1 1 0 0 0 1 1h1v-3a1 1 0 0 1 1-1h12a1 1 0 0 1 1 1v3zM7 8h10V3H7v5zm0 13h10v-6H7v6z"/>
    </defs>
    <g fill="none" fill-rule="evenodd">
        <mask id="b" fill="#fff">
            <use xlink:href="#a"/>
        </mask>
        <use fill="#000" fill-rule="nonzero" xlink:href="#a"/>
        <g fill="#000" mask="url(#b)">
            <path d="M0 0h24v24H0z"/>
        </g>
    </g>
</svg>
