<svg xmlns="http://www.w3.org/2000/svg" width="64" height="64" viewBox="0 0 64 64"><g fill="#EA2B16"><path d="M32 0C14.4 0 0 14.4 0 32s14.4 32 32 32 32-14.4 32-32S49.6 0 32 0zm0 61.333c-16.133 0-29.333-13.2-29.333-29.333S15.867 2.667 32 2.667 61.333 15.867 61.333 32 48.133 61.333 32 61.333z"/><path d="M32 11.333c.8 0 1.333-.533 1.333-1.333V8.267c0-.8-.533-1.334-1.333-1.334-.8 0-1.333.534-1.333 1.334V10c0 .667.533 1.333 1.333 1.333zM32 52.667c-.8 0-1.333.533-1.333 1.333v1.733c0 .8.533 1.334 1.333 1.334.8 0 1.333-.534 1.333-1.334V54c0-.667-.533-1.333-1.333-1.333zM55.733 30.667H54c-.8 0-1.333.533-1.333 1.333 0 .8.533 1.333 1.333 1.333h1.733c.8 0 1.334-.533 1.334-1.333 0-.8-.667-1.333-1.334-1.333zM10 30.667H8.267c-.8 0-1.334.533-1.334 1.333 0 .8.534 1.333 1.334 1.333H10c.8 0 1.333-.533 1.333-1.333 0-.8-.666-1.333-1.333-1.333zM16.133 14.267a1.289 1.289 0 0 0-1.866 0 1.289 1.289 0 0 0 0 1.866l1.2 1.2a1.289 1.289 0 0 0 1.866 0 1.289 1.289 0 0 0 0-1.866l-1.2-1.2zM48.533 46.667a1.289 1.289 0 0 0-1.866 0 1.289 1.289 0 0 0 0 1.866l1.2 1.2a1.289 1.289 0 0 0 1.866 0 1.289 1.289 0 0 0 0-1.866l-1.2-1.2zM47.867 14.267l-1.2 1.2a1.289 1.289 0 0 0 0 1.866 1.289 1.289 0 0 0 1.866 0l1.2-1.2a1.289 1.289 0 0 0 0-1.866 1.289 1.289 0 0 0-1.866 0zM15.467 46.667l-1.2 1.2a1.289 1.289 0 0 0 0 1.866 1.289 1.289 0 0 0 1.866 0l1.2-1.2a1.289 1.289 0 0 0 0-1.866 1.289 1.289 0 0 0-1.866 0zM33.333 27.467V16c0-.8-.533-1.333-1.333-1.333-.8 0-1.333.533-1.333 1.333v11.467c-2 .533-3.467 2.4-3.467 4.533 0 2.133 1.467 4 3.467 4.533v8.4c0 .8.533 1.334 1.333 1.334.8 0 1.333-.534 1.333-1.334v-8.4c2-.533 3.467-2.4 3.467-4.533 0-2.133-1.467-4-3.467-4.533zM32 34.133c-1.2 0-2.133-.933-2.133-2.133S30.8 29.867 32 29.867s2.133.933 2.133 2.133S33.2 34.133 32 34.133z"/></g></svg>