<svg xmlns="http://www.w3.org/2000/svg" width="46" height="31" viewBox="0 0 46 31"><path fill="#EA2B16" d="M10.408 13.411H1.036c-.57 0-1.036-.464-1.036-1.032 0-.567.466-1.031 1.036-1.031h9.372c.57 0 1.036.464 1.036 1.031 0 .568-.466 1.032-1.036 1.032zm35.005 11.657c-.57.826-1.502 1.29-2.538 1.29h-1.709C40.908 28.988 38.681 31 35.988 31c-2.692 0-4.919-2.063-5.178-4.642H20.35C20.091 28.988 17.865 31 15.172 31s-4.92-2.063-5.178-4.642H7.198c-1.14 0-2.02-.929-2.02-2.012v-8.975a1.037 1.037 0 0 1 2.071 0v8.924h3.004a5.19 5.19 0 0 1 4.97-3.611c2.331 0 4.299 1.547 4.972 3.61h7.922V2.013H7.25v2.476a1.037 1.037 0 0 1-2.07 0V2.012C5.178.877 6.11 0 7.197 0h20.92c1.139 0 2.019.928 2.019 2.012v2.63H41.27c1.605 0 2.952 1.187 3.107 2.786l1.398 10.625v3.972l.104.258c.259.928.103 1.96-.466 2.785zm-27.082.774c0-1.702-1.398-3.095-3.107-3.095-1.709 0-3.107 1.393-3.107 3.095 0 1.702 1.398 3.095 3.107 3.095 1.709 0 3.107-1.393 3.107-3.095zm16.518-11.915c0 .567.466 1.031 1.036 1.031h7.405l-.933-7.324c-.051-.516-.517-.929-1.087-.929h-6.42v7.222zm4.298 11.915c0-1.702-1.398-3.095-3.107-3.095-1.709 0-3.107 1.393-3.107 3.095 0 1.702 1.398 3.095 3.107 3.095 1.709 0 3.107-1.393 3.107-3.095zm4.712-2.889l-.155-.567v-1.754H42.46c-.57 0-1.036-.464-1.036-1.031 0-.568.466-1.032 1.036-1.032h1.243v-.464l-.156-1.083h-7.663c-1.709 0-3.107-1.393-3.107-3.095V6.654h-2.59v17.64h.881a5.19 5.19 0 0 1 4.971-3.61c2.33 0 4.298 1.547 4.971 3.61h1.916c.31 0 .621-.154.829-.412.155-.31.207-.62.103-.929zM3.107 9.233h10.408c.57 0 1.036-.464 1.036-1.032 0-.567-.466-1.031-1.036-1.031H3.107c-.57 0-1.036.464-1.036 1.031 0 .568.466 1.032 1.036 1.032zm33.45 15.732c-.05-.052-.103-.052-.154-.103-.052-.052-.104-.052-.208-.052a1.18 1.18 0 0 0-.932.258c-.207.207-.31.464-.31.722v.207c0 .051.051.154.051.206 0 .052.052.103.104.206.052.052.104.103.104.155.103.103.207.155.31.206.104.052.26.052.415.052.155 0 .258 0 .414-.052.103-.051.259-.103.31-.206.052-.052.104-.103.104-.155.052-.051.052-.103.104-.206 0-.052.051-.103.051-.206v-.207c0-.258-.103-.515-.31-.722.051 0 0-.051-.052-.103zm-22.11.155c-.207.206-.31.464-.31.722 0 .258.103.516.31.722.207.206.466.31.725.31.155 0 .259 0 .414-.052.104-.052.26-.103.311-.206.207-.207.31-.465.31-.722 0-.258-.103-.516-.31-.723-.362-.464-1.036-.464-1.45-.051zM12.79 11.657c-.052.052-.103.103-.103.155-.052.052-.052.103-.104.155-.052.051-.052.103-.052.206v.413c0 .051.052.154.052.206 0 .052.052.103.104.155.051.051.051.103.103.154.207.207.466.31.725.31.259 0 .518-.103.725-.31.052-.051.104-.103.104-.154.051-.052.051-.103.103-.155 0-.052.052-.103.052-.206v-.207c0-.258-.104-.515-.31-.722-.311-.412-1.036-.412-1.399 0z"/></svg>