<svg xmlns="http://www.w3.org/2000/svg" width="40" height="40" viewBox="0 0 40 40"><path fill="#EA2B16" d="M29.692 24.163a1.74 1.74 0 0 0 1.738-1.739 1.74 1.74 0 0 0-1.738-1.738 1.74 1.74 0 0 0-1.738 1.738c0 .959.78 1.739 1.738 1.739zm8.193 2.051h-9.854l-3.378-3.79 3.378-3.79h9.854v7.58zm1.058-9.695h-.705V7.881c0-.583-.475-1.057-1.057-1.057h-2.027v-3.79c0-.583-.474-1.058-1.057-1.058H29.17a1.056 1.056 0 1 0 0 2.115h3.87v2.733h-5.911a1.056 1.056 0 0 0-.881 1.642c.196.296.526.473.88.473h8.995v7.58h-8.565c-.302 0-.59.129-.79.354l-4.322 4.847a1.058 1.058 0 0 0 0 1.408l4.322 4.848c.201.225.49.353.79.353h8.565v7.58H14.88a1.056 1.056 0 0 0-.88 1.643c.196.296.525.472.88.472h22.302c.582 0 1.057-.474 1.057-1.057v-8.638h.705c.583 0 1.057-.474 1.057-1.057v-9.696c0-.583-.474-1.057-1.057-1.057zM26.626.084a1.056 1.056 0 0 0-1.385.564L9.286 38.532a1.05 1.05 0 0 0-.005.81 1.05 1.05 0 0 0 .979.658c.426 0 .81-.254.975-.647L27.189 1.47a1.057 1.057 0 0 0-.563-1.385zM7.306 35.91H5.462a3.353 3.353 0 0 1-3.348-3.35V8.668c.414.176.881.27 1.344.27h16.096a1.055 1.055 0 1 0 0-2.115H3.456c-.74 0-1.341-.602-1.341-1.341v-.045c0-.742.603-1.346 1.344-1.346h18.137a1.056 1.056 0 0 0 .882-1.642 1.055 1.055 0 0 0-.882-.473H3.46A3.46 3.46 0 0 0 0 5.431V32.56a5.47 5.47 0 0 0 5.463 5.464h1.842c.427 0 .81-.253.974-.647a1.055 1.055 0 0 0-.974-1.467z"/></svg>