<svg xmlns="http://www.w3.org/2000/svg" xmlns:xlink="http://www.w3.org/1999/xlink" width="572" height="442" viewBox="0 0 572 442"><defs><filter id="a" width="129.8%" height="174.9%" x="-14.9%" y="-36.4%" filterUnits="objectBoundingBox"><feOffset dy="2" in="SourceAlpha" result="shadowOffsetOuter1"/><feGaussianBlur in="shadowOffsetOuter1" result="shadowBlurOuter1" stdDeviation="23.5"/><feColorMatrix in="shadowBlurOuter1" values="0 0 0 0 0 0 0 0 0 0 0 0 0 0 0 0 0 0 0.15 0"/></filter><path id="b" d="M91.182 275.58c-1.326-1.326-1.989-2.873-1.989-4.64v-29.172H6.983c-1.768 0-3.314-.663-4.64-1.989-1.326-1.326-1.99-2.873-1.99-4.64v-26.785c0-2.652.973-5.304 2.918-7.956L80.177 96.442c2.475-3.006 5.746-4.508 9.812-4.508h40.31c1.944 0 3.58.618 4.905 1.856 1.326 1.238 1.99 2.829 1.99 4.774v102.099h23.336c2.122 0 3.801.663 5.04 1.989 1.237 1.326 1.855 2.873 1.855 4.64v27.846c0 1.768-.618 3.315-1.856 4.641s-2.829 1.989-4.773 1.989h-23.603v29.171c0 1.945-.663 3.536-1.989 4.774-1.326 1.237-2.96 1.856-4.906 1.856H95.823c-1.768 0-3.315-.663-4.64-1.989zm-43.624-73.06l42.696-59.67v59.67H47.558zm136.751 58.342c-12.729-12.73-19.712-29.525-20.95-50.387-.353-9.547-.53-18.121-.53-25.724 0-7.779.177-16.618.53-26.519.707-13.26 4.022-25.06 9.945-35.403s14.497-18.52 25.724-24.53c11.226-6.012 24.884-9.017 40.972-9.017s29.79 3.005 41.105 9.016c11.315 6.011 19.934 14.188 25.856 24.53 5.923 10.343 9.238 22.144 9.945 35.404.354 4.95.53 13.79.53 26.52 0 12.375-.176 20.95-.53 25.723-1.237 20.862-8.22 37.658-20.95 50.387-12.73 12.73-31.381 19.182-55.956 19.359-24.398-.177-42.961-6.63-55.69-19.36zm74.255-28.774c-4.067 5.393-10.255 8.089-18.564 8.089-15.912 0-24.31-10.343-25.193-31.028-.177-5.127-.266-13.436-.266-24.928s.089-19.624.266-24.398c.884-20.685 9.281-31.027 25.193-31.027 8.31 0 14.497 2.784 18.564 8.353 4.066 5.57 6.276 13.127 6.63 22.674.353 4.774.53 12.906.53 24.398 0 11.492-.177 19.801-.53 24.928-.354 9.9-2.564 17.547-6.63 22.94zm144.84 43.492c-1.327-1.326-1.99-2.873-1.99-4.64v-29.172h-82.21c-1.768 0-3.314-.663-4.64-1.989-1.326-1.326-1.99-2.873-1.99-4.64v-26.785c0-2.652.973-5.304 2.918-7.956l76.906-103.956c2.475-3.006 5.746-4.508 9.812-4.508h40.31c1.944 0 3.58.618 4.905 1.856 1.326 1.238 1.99 2.829 1.99 4.774v102.099h23.336c2.122 0 3.801.663 5.04 1.989 1.237 1.326 1.855 2.873 1.855 4.64v27.846c0 1.768-.618 3.315-1.856 4.641s-2.829 1.989-4.773 1.989h-23.603v29.171c0 1.945-.663 3.536-1.989 4.774-1.326 1.237-2.96 1.856-4.906 1.856h-34.475c-1.768 0-3.315-.663-4.64-1.989zm-43.625-73.06h42.696v-59.67l-42.696 59.67z"/></defs><g fill="none" fill-rule="evenodd"><path fill="#FFF" d="M-98-150h768V874H-98z"/><path fill="#EA2B16" fill-rule="nonzero" d="M483.197 190.12c-8.02-27.278-17.642-54.557-29.939-80.231-10.158-21.396-21.92-43.326-36.354-62.047C406.21 33.935 393.38 18.96 378.41 9.866c-3.207-2.14-6.415-3.745-10.157-5.35-2.139-1.069-4.812-1.604-6.95-2.674-2.674-.535-5.881-1.07-8.555-1.604-3.742-.535-7.484 0-10.692 0-17.643 1.604-35.82 8.558-51.859 16.046-21.385 10.163-42.235 23.535-60.947 37.977-22.99 17.116-44.374 36.372-63.62 57.232-19.782 20.86-38.494 42.79-54.533 66.326-13.9 19.79-26.196 40.65-35.82 62.58-3.742 9.094-7.485 18.187-9.623 27.815-2.139 8.023-3.742 16.046-3.742 24.604 0 4.28 0 8.558.534 12.837 0 .535 0 1.605.535 2.14 1.07 4.814 2.673 9.093 4.811 13.372 1.604 2.674 2.674 5.349 4.812 7.488 10.158 14.442 25.128 27.28 39.562 36.907 19.782 13.372 41.701 24.605 63.621 33.698 26.197 11.232 53.997 19.79 81.263 26.744 27.8 6.953 56.136 11.767 84.471 14.442 23.524 2.14 48.117 2.14 72.175-.535 17.642-2.14 36.889-5.884 52.393-14.442 2.673-1.07 4.812-2.675 6.95-4.28 8.554-5.348 14.435-13.906 18.712-23 3.743-7.487 5.881-15.51 8.02-23.534 2.138-9.628 3.742-19.256 4.277-29.418 1.604-24.07.534-48.14-2.673-72.21-4.277-27.278-10.158-55.627-18.178-82.906z"/><g transform="translate(46)"><use fill="#000" filter="url(#a)" xlink:href="#b"/><use fill="#FFF" xlink:href="#b"/></g><path fill="#FFF" d="M190.972 200.663h35.359v32.707h-35.359zM344.785 198.011h35.359v35.359h-35.359z"/><path fill="#FFF" fill-rule="nonzero" d="M335.257 347.862c-.913-3.11-2.008-6.22-3.407-9.147-1.155-2.439-2.493-4.939-4.136-7.073-1.216-1.586-2.676-3.293-4.38-4.33a6.928 6.928 0 0 0-1.155-.61c-.243-.121-.547-.182-.79-.304-.305-.061-.67-.122-.974-.183-.426-.061-.851 0-1.216 0-2.008.183-4.076.976-5.9 1.83-2.433 1.158-4.806 2.682-6.935 4.329a52.683 52.683 0 0 0-7.238 6.524c-2.25 2.378-4.38 4.878-6.204 7.561-1.582 2.256-2.98 4.634-4.075 7.134-.426 1.037-.852 2.074-1.095 3.171-.244.915-.426 1.83-.426 2.805 0 .488 0 .976.06 1.464 0 .06 0 .182.062.243.121.55.304 1.037.547 1.525.183.305.304.61.547.854 1.156 1.646 2.86 3.11 4.502 4.207 2.25 1.524 4.744 2.805 7.238 3.841 2.98 1.281 6.143 2.257 9.245 3.05a64.624 64.624 0 0 0 9.61 1.646c2.677.244 5.475.244 8.212-.061 2.008-.244 4.197-.671 5.961-1.647.304-.122.548-.305.791-.488.973-.61 1.642-1.585 2.129-2.622.426-.853.669-1.768.912-2.682.244-1.098.426-2.196.487-3.354.182-2.744.06-5.488-.304-8.232-.487-3.11-1.156-6.342-2.068-9.451z"/><path fill="#EA2B16" d="M314.246 332.649c.184-.305.368-.61.614-.853.061-.06.122-.06.184-.122.061-.06.122-.06.122-.06.062 0 .062-.061.123-.061.062 0 .123 0 .246-.061.368 0 .736.06 1.043.182.43.122.859.305 1.288.549.491.243.982.548 1.412.913.43.366.859.731 1.227 1.097.307.365.613.67.859 1.096.123.183.184.305.245.487.062.122.123.305.123.488a.588.588 0 0 1-.061.548c0 .06-.062.122-.062.122-.122.304-.43.609-.675.792-.368.304-.736.609-1.104.852-.491.305-.982.549-1.473.731-.184.061-.307.122-.49.183a4.616 4.616 0 0 1 1.902 2.376c1.104 2.68-.185 5.726-2.884 6.883-2.7 1.096-5.768-.183-6.934-2.863-.43-1.036-.491-2.071-.307-3.107-.061 0-.123.061-.184.061-.491.183-1.043.366-1.595.488-.43.121-.92.182-1.412.182-.368 0-.736 0-1.043-.121-.061 0-.123-.061-.184-.061-.061-.061-.184-.061-.245-.183l-.062-.061-.184-.183c-.061-.122-.184-.304-.245-.426l-.184-.548c-.123-.427-.123-.914-.184-1.401 0-.549 0-1.097.122-1.645a7.927 7.927 0 0 1 .368-1.645 5.76 5.76 0 0 1 .553-1.279c.184-.304.368-.609.613-.853.062-.06.123-.06.184-.121.062-.061.123-.061.123-.061.061 0 .061-.061.123-.061.061 0 .123 0 .245-.061.368 0 .737.06 1.043.183 8.775 2.74 2.455 5.543 6.75-2.376zm.43 26.314c.061.183-2.332-3.594-1.657-7.614v-.06c0-.062.061-.244.061-.183-2.025 4.385-5.706 6.517-7.609 7.796-.306.183-.306.488-.306.549.43 1.888 4.356 3.35 6.627 4.08.184.062-3.007-1.4-4.05-2.131-.552-.366-.307-.488.43-.305 1.227.305 2.086.731 3.19 1.28.982.487 2.332.974 5.277 1.4.123 0-1.166.061-2.454-.122-.062 0-.062.061.061.244l.061.061c1.903 2.924 2.516 6.03 1.719 9.441-.123.427-.123.67.06.427 1.105-1.462 1.903-2.68 2.455-3.777.123-.243.246-.487.307-.67.123-.243.184-.548.307-.792.061-.182.123-.304.123-.487 0-.122.061-.244.061-.304v-.183-.305c0-.243-3.068-5.3-.859-1.949.552.853 1.78 2.315 2.577 3.167 2.761 2.863 8.1-2.192 10.247-4.02l.184-.182c.491-.427.92-1.158.92-2.072 0-.182-.06-.487-.183-.791a11.87 11.87 0 0 0-.737-1.584c-.245-.487-.49-.975-.736-1.401-2.086-3.533-5.89-6.213-9.572-7.736-.123-.06-.246-.06-.246-.06-.184.121 1.044.73 2.025 1.4 1.228.853 1.043.792.246 1.157-.307.122-.553.305-.798.427-.43.243-.368.183-.307.73.062.488.246 1.34.246 2.376 0 .122 0 .488.184.366.061 0 .061-.061.122-.061.43-.244.798-.061.982.183.368.487.553.792.675.913.246.305.552.731.982.427l1.227-.853c.43-.305.92.06.982.183 1.166 1.705 1.166 1.583 1.166 1.705.307.427 0 .792-.184.975-.491.365 0 0-1.166.853a.552.552 0 0 0-.246.67c0 .06.062.121.185.304.184.244.368.548.552.792.368.487.43.914-.184 1.34-.368.244-1.166.792-1.534 1.036-.307.182-.675.182-.92-.122 0-.061-.062-.061-.062-.061a49.146 49.146 0 0 1-.86-1.218c-.183-.244-.49-.244-.735-.122-.246.122-.737.487-.982.67-.491.365-.86.487-1.227.06-.185-.182-1.228-1.644-1.289-1.887-.061-.244 0-.549.43-.914.736-.487.674-.487.736-.487v-.061c-.062-1.462-.614-3.35-1.473-4.569a4.273 4.273 0 0 1-.368-.548c-.061-.122-1.166.61-2.148 1.584-.675.67-1.41 1.644-1.41 1.644.797-1.888 3.313-3.533 3.313-3.533l-.123-.121c-.43-.427-1.227-.731-1.78-.975-.797-.305-.49-.975.062-.975.122 0 .184.061.307.061.981.549 3.497 2.863 3.804 7.066.061.792.184.67.307.183 0-.061 0-.122.061-.183.123-.609.246-1.279.246-1.888.06-.914.06-1.888-.062-2.802-.061-.914-.245-1.888-.49-2.802-.185-.731-.43-1.523-.798-2.254-1.289-2.558-3.928-2.802-5.584-1.705-2.7 1.644-1.289 7.005-.368 9.32z"/><path fill="#FFF" d="M354.295 351.401h5.67c5.06 0 4.938 7.17.06 7.17h-9.57c-2.074 0-3.903-1.506-3.903-3.615v-20.304c0-5.302 7.743-5.483 7.743.12v16.63zm18.838-13.315v3.013h5.06c4.999 0 4.877 7.23 0 7.23h-5.06v3.133h5.487c5.303 0 5.181 7.17 0 7.17h-9.267c-2.317 0-3.963-1.507-3.963-3.796v-20.124c0-2.169 1.524-3.856 3.72-3.856h9.449c4.877 0 4.999 7.17 0 7.17h-5.426v.06zm20.667 1.567l6.95-7.411c3.901-4.157 9.876 1.145 5.67 5.121l-6.524 6.507 7.803 8.375c3.841 4.157-2.072 9.46-6.34 4.64l-7.56-8.376v6.266c0 5.242-7.742 5.423-7.742.06v-20.243c0-5.121 7.743-5.483 7.743.12v4.94zm26.092 0l6.95-7.411c3.902-4.157 9.876 1.145 5.67 5.121l-6.523 6.507 7.803 8.375c3.78 4.157-2.012 9.58-6.34 4.64l-7.56-8.376v6.266c0 5.242-7.742 5.423-7.742.06v-20.243c0-5.121 7.742-5.483 7.742.12v4.94zm17.924-5.001c0-5.362 7.742-5.422 7.742 0v20.123c0 5.543-7.742 5.423-7.742.06v-20.183z"/><path fill="#FFF" fill-rule="nonzero" d="M346.552 371.237v-5.875c0-.306.061-.551.183-.735.122-.183.305-.245.55-.245.304 0 .487.062.67.245.183.123.244.367.244.612v3.672l3.17-3.978c.122-.183.243-.306.365-.428.122-.123.305-.123.488-.123.244 0 .488.062.61.245.183.184.244.429.244.673v5.876c0 .244-.061.49-.244.673-.122.183-.366.244-.67.244-.245 0-.489-.06-.61-.244a1.037 1.037 0 0 1-.183-.612v-3.611l-3.17 3.978c-.183.184-.305.306-.427.367a1.127 1.127 0 0 1-.427.122.781.781 0 0 1-.61-.244c-.122-.245-.183-.429-.183-.612zm8.353-5.998c0-.306.06-.55.243-.673.183-.122.366-.245.61-.245s.427.061.61.245c.183.122.244.367.244.673v2.081h3.23v-2.08c0-.307.062-.552.244-.674.183-.122.366-.245.61-.245s.488.061.61.245c.183.122.244.367.244.734v5.876c0 .244-.061.49-.244.673-.122.183-.366.244-.67.244-.245 0-.489-.06-.61-.244a1.037 1.037 0 0 1-.183-.612v-2.265h-3.231v2.204c0 .244-.061.49-.183.673-.122.183-.366.244-.61.306-.305 0-.549-.062-.67-.245-.123-.184-.244-.367-.244-.673v-5.998zm9.449 5.875v-5.14h-.914c-.305 0-.488-.062-.671-.184-.183-.122-.244-.306-.244-.55 0-.552.305-.796.915-.796h3.657c.61 0 .915.244.915.795 0 .245-.061.429-.244.551-.183.122-.366.184-.67.184h-1.037v5.14c0 .306-.061.551-.244.674a.781.781 0 0 1-.61.244c-.243 0-.487-.06-.61-.244-.182-.123-.243-.368-.243-.674zm4.694-3.672v-2.203c0-.306.061-.49.244-.673.183-.122.366-.245.549-.245h2.743c.244 0 .427.061.61.184a.937.937 0 0 1 .244.612c0 .245-.061.428-.183.55a.811.811 0 0 1-.61.245h-1.829v1.347h1.707c.244 0 .427.061.61.245.122.183.244.367.244.55 0 .245-.061.429-.244.551-.122.184-.366.245-.61.245h-1.707v1.408h1.83c.304 0 .487.06.67.244.122.123.183.306.183.551 0 .245-.061.429-.183.612-.122.184-.366.245-.67.245h-2.622c-.305 0-.488-.061-.671-.245a.787.787 0 0 1-.244-.612v-3.61h-.06zm5.67-2.203c0-.183.06-.428.244-.612.122-.183.365-.245.67-.245h1.951c.549 0 1.098.123 1.463.368.427.244.732.55.915.918.183.367.305.856.305 1.346 0 .49-.122.918-.305 1.285-.183.367-.488.673-.854.918s-.792.306-1.28.306h-1.402v1.591c0 .306-.061.551-.244.674a.781.781 0 0 1-.61.244c-.548 0-.853-.367-.853-.918v-5.875zm1.707.673v2.081h.975c.305 0 .549-.122.732-.306.183-.183.305-.428.305-.734s-.122-.551-.305-.796c-.183-.183-.488-.306-.854-.306h-.853v.061zm4.999-.673c0-.306.06-.55.244-.673.183-.122.366-.245.61-.245.243 0 .426.061.609.245.183.122.244.367.244.673v2.081h3.231v-2.08c0-.307.06-.552.244-.674.183-.122.366-.245.61-.245.243 0 .487.061.61.245.182.122.243.367.243.734v5.876c0 .244-.061.49-.244.673-.122.183-.366.244-.67.244-.244 0-.488-.06-.61-.244a1.037 1.037 0 0 1-.183-.612v-2.265h-3.231v2.204c0 .244-.061.49-.183.673-.122.183-.366.244-.61.306-.304 0-.548-.062-.67-.245-.122-.184-.244-.367-.244-.673v-5.998zm8.23 2.203v-2.203c0-.306.061-.49.244-.673.183-.122.366-.245.549-.245h2.743c.244 0 .427.061.61.184a.937.937 0 0 1 .243.612c0 .245-.06.428-.182.55a.811.811 0 0 1-.61.245h-1.829v1.347h1.707c.244 0 .488.061.61.245.122.183.243.367.243.55 0 .245-.06.429-.243.551-.122.184-.366.245-.61.245h-1.707v1.408h1.829c.305 0 .488.06.67.244.122.123.183.306.183.551 0 .245-.06.429-.182.612-.122.184-.366.245-.671.245h-2.622c-.304 0-.487-.061-.67-.245a.787.787 0 0 1-.244-.612v-3.61h-.061zm6.889 3.672v-5.14h-.914c-.305 0-.488-.062-.671-.184-.183-.122-.244-.306-.244-.55 0-.552.305-.796.915-.796h3.657c.61 0 .915.244.915.795 0 .245-.061.429-.244.551-.183.122-.366.184-.67.184h-.976v5.14c0 .306-.061.551-.244.674a.781.781 0 0 1-.61.244c-.243 0-.487-.06-.61-.244-.243-.123-.304-.368-.304-.674zm7.742-2.815c.244 0 .427.061.55.184a.696.696 0 0 1 .182.49.696.696 0 0 1-.183.489c-.122.122-.305.184-.549.184h-2.377c-.244 0-.427-.062-.61-.184-.122-.122-.244-.306-.244-.49 0-.183.122-.367.244-.49.122-.122.366-.183.61-.183h2.377zm1.646 2.08l1.83-4.895c.304-.857.73-1.285 1.34-1.285.61 0 1.037.367 1.342 1.163l1.89 5.08c.122.305.122.611.122.795 0 .245-.061.428-.244.55a1.027 1.027 0 0 1-.61.184c-.427 0-.732-.245-.914-.795l-.244-.735h-2.805l-.243.735c-.061.244-.183.428-.305.612-.122.122-.366.183-.61.183-.549 0-.792-.245-.792-.734.06-.184.121-.49.243-.857zm2.256-1.529h1.829l-.853-2.754-.976 2.754zm6.036-4.59h3.779c.244 0 .427.061.61.245.183.122.244.367.244.673v5.875c0 .245-.061.49-.183.673-.122.184-.366.245-.61.306-.305 0-.548-.06-.67-.244s-.244-.368-.244-.674v-5.14h-2.134v5.14c0 .245-.06.49-.183.674-.122.183-.366.244-.61.305-.304 0-.548-.06-.67-.244s-.244-.367-.244-.673v-5.508c0-.184 0-.368.061-.612.061-.245.122-.368.183-.429.122-.306.366-.367.67-.367-.06 0-.06 0 0 0zm7.315 6.854v-5.14h-.914c-.305 0-.488-.062-.67-.184-.184-.122-.245-.306-.245-.55 0-.552.305-.796.915-.796h3.658c.61 0 .914.244.914.795 0 .245-.06.429-.244.551-.183.122-.366.184-.67.184h-.976v5.14c0 .306-.06.551-.244.674a.781.781 0 0 1-.61.244c-.243 0-.487-.06-.609-.244-.183-.123-.305-.368-.305-.674zm4.694-3.672v-2.203c0-.306.061-.49.244-.673.183-.122.366-.245.549-.245h2.743c.244 0 .427.061.61.184a.937.937 0 0 1 .244.612c0 .245-.061.428-.183.55a.811.811 0 0 1-.61.245H428v1.347h1.707c.244 0 .488.061.61.245.122.183.244.367.244.55 0 .245-.061.429-.244.551-.122.184-.366.245-.61.245H428v1.408h1.83c.304 0 .487.06.67.244.122.123.183.306.183.551 0 .245-.061.429-.183.612-.122.184-.366.245-.67.245h-2.622c-.305 0-.488-.061-.67-.245a.787.787 0 0 1-.245-.612v-3.61h-.06zm5.731-2.203c0-.306.061-.49.244-.673a.781.781 0 0 1 .61-.245c.548 0 .853.306.853.918v2.081l2.439-2.632c.243-.244.487-.367.792-.367.244 0 .427.123.61.306a.749.749 0 0 1 .244.551c0 .245-.122.49-.366.673l-2.012 2.081 2.378 2.632c.183.183.243.367.304.55 0 .306-.06.551-.243.735-.183.183-.366.244-.671.244-.305 0-.549-.183-.854-.49l-2.621-2.937v2.51c0 .306-.06.55-.244.673-.183.122-.427.244-.67.244a.771.771 0 0 1-.55-.244c-.121-.184-.243-.367-.243-.612v-5.998zm7.072 5.14l1.829-4.895c.305-.857.731-1.285 1.341-1.285s1.036.367 1.341 1.163l1.89 5.08c.122.305.122.611.122.795 0 .245-.061.428-.244.55a1.027 1.027 0 0 1-.61.184c-.426 0-.731-.245-.914-.795l-.183-.735h-2.804l-.244.735c-.061.244-.183.428-.305.612-.122.122-.305.183-.549.183-.548 0-.792-.245-.792-.734-.122-.184-.061-.49.122-.857zm2.195-1.529h1.828l-.853-2.754-.975 2.754z"/></g></svg>