<svg xmlns="http://www.w3.org/2000/svg" xmlns:xlink="http://www.w3.org/1999/xlink" width="315" height="209" viewBox="0 0 315 209"><defs><filter id="a" width="163.6%" height="259.8%" x="-31.8%" y="-77.7%" filterUnits="objectBoundingBox"><feOffset dy="2" in="SourceAlpha" result="shadowOffsetOuter1"/><feGaussianBlur in="shadowOffsetOuter1" result="shadowBlurOuter1" stdDeviation="23.5"/><feColorMatrix in="shadowBlurOuter1" values="0 0 0 0 0 0 0 0 0 0 0 0 0 0 0 0 0 0 0.15 0"/></filter><path id="b" d="M42.576 129.178c-.622-.621-.932-1.347-.932-2.175v-13.674H3.108c-.829 0-1.554-.311-2.176-.933-.621-.621-.932-1.346-.932-2.175V97.666c0-1.243.456-2.486 1.367-3.73l36.05-48.729c1.16-1.409 2.693-2.113 4.6-2.113h18.895c.911 0 1.678.29 2.3.87.62.58.932 1.326.932 2.238V94.06h10.939c.994 0 1.782.31 2.362.932.58.622.87 1.347.87 2.176v13.052c0 .829-.29 1.554-.87 2.175-.58.622-1.326.933-2.238.933H64.144v13.674c0 .911-.311 1.657-.933 2.237-.621.58-1.388.87-2.3.87h-16.16c-.828 0-1.553-.31-2.175-.932zM22.127 94.931l20.014-27.97v27.97H22.127zm64.102 27.348c-5.967-5.967-9.24-13.84-9.82-23.619a328.976 328.976 0 0 1-.249-12.058c0-3.646.083-7.79.249-12.43.331-6.216 1.885-11.748 4.661-16.596 2.777-4.848 6.796-8.681 12.058-11.499 5.263-2.817 11.665-4.226 19.206-4.226 7.542 0 13.964 1.409 19.268 4.226 5.304 2.818 9.344 6.65 12.12 11.499 2.777 4.848 4.33 10.38 4.662 16.595.166 2.32.249 6.464.249 12.431 0 5.801-.083 9.82-.249 12.058-.58 9.78-3.854 17.652-9.82 23.619-5.967 5.967-14.71 8.992-26.23 9.075-11.436-.083-20.138-3.108-26.105-9.075zm34.807-13.488c-1.906 2.528-4.807 3.792-8.702 3.792-7.458 0-11.395-4.848-11.81-14.544-.082-2.404-.123-6.299-.123-11.685 0-5.387.041-9.2.124-11.437.414-9.696 4.35-14.544 11.81-14.544 3.894 0 6.795 1.305 8.7 3.916 1.907 2.61 2.943 6.153 3.109 10.628.165 2.238.248 6.05.248 11.437 0 5.386-.083 9.281-.248 11.685-.166 4.64-1.202 8.225-3.108 10.752zm67.894 20.387c-.622-.621-.933-1.347-.933-2.175v-13.674h-38.536c-.828 0-1.554-.311-2.175-.933-.622-.621-.932-1.346-.932-2.175V97.666c0-1.243.455-2.486 1.367-3.73l36.05-48.729c1.16-1.409 2.693-2.113 4.6-2.113h18.894c.912 0 1.678.29 2.3.87.621.58.932 1.326.932 2.238V94.06h10.94c.994 0 1.781.31 2.361.932.58.622.87 1.347.87 2.176v13.052c0 .829-.29 1.554-.87 2.175-.58.622-1.326.933-2.237.933h-11.064v13.674c0 .911-.31 1.657-.932 2.237-.622.58-1.388.87-2.3.87h-16.16c-.829 0-1.554-.31-2.175-.932zm-20.45-34.247h20.014V66.96l-20.013 27.97z"/></defs><g fill="none" fill-rule="evenodd"><path fill="#FFF" d="M-2-79h320v600H-2z"/><path fill="#EA2B16" fill-rule="nonzero" d="M250.77 90.12c-3.759-12.788-8.27-25.575-14.033-37.61-4.762-10.029-10.275-20.309-17.042-29.084-5.012-6.519-11.026-13.54-18.043-17.801-1.504-1.003-3.008-1.756-4.762-2.508-1.002-.501-2.255-.752-3.258-1.253-1.253-.251-2.756-.502-4.01-.753-1.754-.25-3.508 0-5.012 0-8.27.753-16.79 4.012-24.308 7.522-10.025 4.764-19.798 11.032-28.57 17.802a216.91 216.91 0 0 0-29.822 26.827c-9.272 9.779-18.043 20.058-25.561 31.09-6.516 9.277-12.28 19.056-16.791 29.335-1.754 4.263-3.509 8.525-4.51 13.038-1.003 3.761-1.755 7.522-1.755 11.534 0 2.005 0 4.011.25 6.017 0 .25 0 .752.251 1.003.501 2.256 1.253 4.262 2.255 6.268.752 1.254 1.254 2.507 2.256 3.51 4.761 6.77 11.778 12.787 18.545 17.3 9.272 6.268 19.547 11.534 29.822 15.796 12.28 5.265 25.311 9.277 38.092 12.536a266.742 266.742 0 0 0 39.596 6.77c11.026 1.003 22.554 1.003 33.832-.25 8.27-1.004 17.291-2.759 24.56-6.77 1.252-.502 2.255-1.254 3.257-2.006 4.01-2.508 6.766-6.52 8.771-10.781 1.754-3.51 2.757-7.272 3.76-11.032 1.002-4.513 1.753-9.027 2.004-13.79.752-11.283.25-22.566-1.253-33.848-2.005-12.787-4.761-26.076-8.52-38.863z"/><g transform="translate(46 1)"><use fill="#000" filter="url(#a)" xlink:href="#b"/><use fill="#FFF" xlink:href="#b"/></g><path fill="#FFF" d="M113.79 95.061h16.575v15.331H113.79zM185.89 93.818h16.575v16.575H185.89z"/><path fill="#FFF" fill-rule="nonzero" d="M181.423 164.06c-.427-1.458-.94-2.915-1.596-4.287-.542-1.144-1.17-2.315-1.94-3.316-.57-.743-1.254-1.543-2.052-2.03a3.248 3.248 0 0 0-.542-.285c-.114-.057-.256-.086-.37-.143-.143-.029-.314-.057-.457-.086-.2-.028-.399 0-.57 0-.94.086-1.91.458-2.766.858-1.14.543-2.252 1.257-3.25 2.03a24.695 24.695 0 0 0-3.393 3.057c-1.055 1.115-2.053 2.287-2.908 3.545-.741 1.057-1.397 2.172-1.91 3.344-.2.486-.4.972-.514 1.486-.114.429-.2.858-.2 1.315 0 .229 0 .457.03.686 0 .029 0 .086.028.114.057.258.142.486.256.715.086.143.143.286.257.4.542.772 1.34 1.458 2.11 1.972 1.055.715 2.224 1.315 3.393 1.801 1.397.6 2.88 1.058 4.334 1.43 1.482.37 2.993.628 4.505.77 1.254.115 2.566.115 3.849-.028.94-.114 1.967-.314 2.794-.771.142-.058.257-.143.37-.23.457-.285.77-.742.999-1.228.2-.4.313-.83.427-1.258.114-.514.2-1.029.228-1.572a19.429 19.429 0 0 0-.142-3.859 35.198 35.198 0 0 0-.97-4.43z"/><path fill="#EA2B16" d="M171.575 156.93c.086-.144.172-.286.287-.4.029-.029.058-.029.087-.058.028-.028.057-.028.057-.028.029 0 .029-.029.058-.029.028 0 .057 0 .115-.028.172 0 .345.028.489.085.2.058.402.143.604.257.23.115.46.257.661.429.201.171.403.342.575.514.144.17.288.314.403.514a.852.852 0 0 1 .115.228.535.535 0 0 1 .058.228.276.276 0 0 1-.03.257c0 .029-.028.057-.028.057-.057.143-.201.286-.316.372a6.312 6.312 0 0 1-.518.4c-.23.142-.46.256-.69.342-.087.029-.144.057-.23.086.402.257.719.628.891 1.113.518 1.257-.086 2.684-1.352 3.227a2.515 2.515 0 0 1-3.25-1.342 2.547 2.547 0 0 1-.144-1.456c-.028 0-.057.028-.086.028-.23.086-.489.171-.748.229a2.469 2.469 0 0 1-.661.085c-.173 0-.345 0-.49-.057-.028 0-.057-.028-.086-.028-.028-.029-.086-.029-.115-.086l-.028-.029-.087-.085c-.028-.057-.086-.143-.115-.2l-.086-.257c-.058-.2-.058-.428-.086-.657 0-.257 0-.514.057-.77.029-.258.087-.515.173-.772.057-.2.144-.4.259-.6.086-.142.172-.285.287-.4.03-.028.058-.028.087-.056.028-.029.057-.029.057-.029.029 0 .029-.028.058-.028.028 0 .057 0 .115-.029.172 0 .345.029.489.086 4.113 1.285 1.15 2.598 3.164-1.114zm.2 12.334c.03.086-1.092-1.685-.776-3.57v-.028c0-.028.03-.114.03-.085-.95 2.056-2.676 3.055-3.567 3.654-.144.086-.144.229-.144.257.201.886 2.042 1.57 3.106 1.913.086.029-1.41-.656-1.898-.999-.26-.171-.144-.228.201-.143.575.143.978.343 1.496.6.46.228 1.093.457 2.473.657.058 0-.546.028-1.15-.057-.029 0-.029.028.029.114l.028.028c.892 1.37 1.18 2.827.806 4.426-.058.2-.058.314.028.2.518-.685.892-1.256 1.151-1.77.058-.115.115-.229.144-.314.057-.115.086-.257.144-.372.028-.085.057-.142.057-.228 0-.057.029-.114.029-.143v-.086-.142c0-.114-1.438-2.484-.403-.914.26.4.834 1.085 1.208 1.485 1.295 1.342 3.797-1.028 4.804-1.885l.086-.085c.23-.2.431-.543.431-.971 0-.086-.028-.229-.086-.371a5.564 5.564 0 0 0-.345-.743c-.115-.228-.23-.457-.345-.656-.978-1.656-2.761-2.913-4.487-3.627-.058-.028-.115-.028-.115-.028-.087.057.489.342.949.657.575.4.489.37.115.542-.144.057-.259.143-.374.2-.201.114-.173.086-.144.343.029.228.115.628.115 1.113 0 .057 0 .229.087.171.028 0 .028-.028.057-.028a.34.34 0 0 1 .46.086c.173.228.26.37.317.428.115.143.259.342.46.2l.575-.4c.202-.143.432.029.46.086.547.8.547.742.547.8.144.199 0 .37-.086.456-.23.171 0 0-.547.4a.259.259 0 0 0-.115.314c0 .028.029.057.086.143.087.114.173.256.26.37.172.23.2.429-.087.629-.173.114-.547.371-.72.485-.143.086-.316.086-.43-.057 0-.028-.03-.028-.03-.028-.143-.2-.287-.4-.402-.571-.086-.115-.23-.115-.345-.058a4.39 4.39 0 0 0-.46.315c-.23.17-.403.228-.576.028-.086-.086-.575-.77-.604-.885-.028-.114 0-.257.202-.428.345-.229.316-.229.345-.229v-.028c-.029-.686-.288-1.57-.69-2.142a2.003 2.003 0 0 1-.173-.257c-.029-.057-.547.286-1.007.743-.316.314-.661.77-.661.77.374-.885 1.553-1.656 1.553-1.656l-.058-.057c-.201-.2-.575-.342-.834-.456-.374-.143-.23-.457.029-.457.058 0 .086.028.144.028.46.257 1.64 1.342 1.783 3.312.029.372.086.314.144.086 0-.029 0-.057.029-.086.057-.285.115-.6.115-.885a6.685 6.685 0 0 0-.029-1.313 6.989 6.989 0 0 0-.23-1.314 5.16 5.16 0 0 0-.374-1.056c-.604-1.2-1.84-1.314-2.617-.8-1.266.771-.605 3.284-.173 4.369z"/><path fill="#FFF" d="M190.347 165.72h2.658c2.372 0 2.315 3.36.029 3.36h-4.487c-.971 0-1.829-.706-1.829-1.694v-9.518c0-2.485 3.63-2.57 3.63.057v7.794zm8.83-6.242v1.412h2.373c2.343 0 2.286 3.39 0 3.39h-2.372v1.468h2.572c2.486 0 2.429 3.36 0 3.36h-4.344c-1.086 0-1.858-.706-1.858-1.779v-9.433c0-1.016.715-1.807 1.744-1.807h4.43c2.285 0 2.342 3.36 0 3.36h-2.544v.029zm9.688.734l3.258-3.474c1.829-1.948 4.63.537 2.658 2.401l-3.058 3.05 3.658 3.926c1.8 1.949-.972 4.434-2.972 2.174l-3.544-3.925v2.937c0 2.457-3.629 2.542-3.629.028v-9.49c0-2.4 3.63-2.57 3.63.057v2.316zm12.231 0l3.258-3.474c1.829-1.948 4.63.537 2.658 2.401l-3.058 3.05 3.658 3.926c1.772 1.949-.943 4.49-2.972 2.174l-3.544-3.925v2.937c0 2.457-3.63 2.542-3.63.028v-9.49c0-2.4 3.63-2.57 3.63.057v2.316zm8.402-2.344c0-2.513 3.63-2.542 3.63 0v9.433c0 2.598-3.63 2.542-3.63.028v-9.46z"/><path fill="#FFF" fill-rule="nonzero" d="M186.718 175.017v-2.754c0-.143.029-.258.086-.344.057-.086.143-.115.257-.115.143 0 .229.029.314.115.086.057.115.172.115.287v1.721l1.486-1.865c.057-.086.114-.143.171-.2.057-.058.143-.058.229-.058.114 0 .228.029.286.115.085.086.114.2.114.316v2.754c0 .114-.029.229-.114.315-.058.086-.172.115-.315.115-.114 0-.228-.029-.285-.115a.486.486 0 0 1-.086-.287v-1.692l-1.486 1.864c-.086.086-.143.144-.2.172a.528.528 0 0 1-.2.058.366.366 0 0 1-.286-.115.643.643 0 0 1-.086-.287zm3.915-2.811c0-.144.029-.258.115-.316.085-.057.171-.114.285-.114.115 0 .2.028.286.114.086.058.114.172.114.316v.975h1.515v-.975c0-.144.029-.258.114-.316.086-.057.172-.114.286-.114.114 0 .229.028.286.114.086.058.114.172.114.345v2.754c0 .114-.028.229-.114.315-.057.086-.172.115-.315.115-.114 0-.228-.029-.285-.115a.486.486 0 0 1-.086-.287v-1.061h-1.515v1.033a.58.58 0 0 1-.085.315c-.057.086-.172.115-.286.144-.143 0-.257-.03-.314-.115-.058-.086-.115-.172-.115-.316v-2.811zm4.43 2.754v-2.41h-.429a.512.512 0 0 1-.314-.086c-.086-.057-.115-.143-.115-.258 0-.258.143-.373.429-.373h1.715c.285 0 .428.115.428.373 0 .115-.028.2-.114.258a.512.512 0 0 1-.314.086h-.486v2.41c0 .143-.029.258-.114.315a.366.366 0 0 1-.286.115c-.115 0-.229-.029-.286-.115-.086-.057-.114-.172-.114-.315zm2.2-1.721v-1.033c0-.144.029-.23.114-.316.086-.057.172-.114.258-.114h1.286c.114 0 .2.028.285.086a.44.44 0 0 1 .115.287c0 .114-.029.2-.086.258a.38.38 0 0 1-.286.114h-.857v.632h.8c.114 0 .2.028.286.114.057.086.114.172.114.258 0 .115-.029.201-.114.259-.057.086-.172.114-.286.114h-.8v.66h.857c.143 0 .229.029.314.115.058.057.086.143.086.258 0 .115-.028.201-.086.287-.057.086-.171.115-.314.115h-1.229c-.143 0-.228-.029-.314-.115a.369.369 0 0 1-.114-.287v-1.692h-.029zm2.658-1.033c0-.086.028-.2.114-.287.057-.086.172-.115.314-.115h.915c.257 0 .514.058.686.172.2.115.343.259.428.43.086.173.143.402.143.632 0 .23-.057.43-.143.602a1.148 1.148 0 0 1-.4.43c-.171.115-.371.144-.6.144h-.657v.746c0 .143-.029.258-.114.315a.366.366 0 0 1-.286.115c-.257 0-.4-.172-.4-.43v-2.754zm.8.315v.976h.457a.472.472 0 0 0 .343-.144.476.476 0 0 0 .143-.344.606.606 0 0 0-.143-.373.564.564 0 0 0-.4-.143h-.4v.028zm2.343-.315c0-.144.029-.258.115-.316.085-.057.171-.114.285-.114.115 0 .2.028.286.114.086.058.114.172.114.316v.975h1.515v-.975c0-.144.029-.258.114-.316.086-.057.172-.114.286-.114.114 0 .229.028.286.114.086.058.114.172.114.345v2.754c0 .114-.028.229-.114.315-.057.086-.172.115-.315.115-.114 0-.228-.029-.285-.115a.486.486 0 0 1-.086-.287v-1.061h-1.515v1.033a.58.58 0 0 1-.085.315c-.058.086-.172.115-.286.144-.143 0-.257-.03-.314-.115a.523.523 0 0 1-.115-.316v-2.811zm3.858 1.033v-1.033c0-.144.029-.23.114-.316.086-.057.172-.114.258-.114h1.286c.114 0 .2.028.285.086a.44.44 0 0 1 .115.287c0 .114-.029.2-.086.258a.38.38 0 0 1-.286.114h-.857v.632h.8c.114 0 .229.028.286.114.057.086.114.172.114.258 0 .115-.029.201-.114.259-.057.086-.172.114-.286.114h-.8v.66h.857c.143 0 .229.029.314.115.058.057.086.143.086.258 0 .115-.028.201-.086.287-.057.086-.171.115-.314.115h-1.229c-.143 0-.228-.029-.314-.115a.369.369 0 0 1-.114-.287v-1.692h-.029zm3.23 1.72v-2.409h-.43a.512.512 0 0 1-.314-.086c-.085-.057-.114-.143-.114-.258 0-.258.143-.373.429-.373h1.714c.286 0 .429.115.429.373 0 .115-.029.2-.114.258a.512.512 0 0 1-.315.086h-.457v2.41c0 .143-.029.258-.114.315a.366.366 0 0 1-.286.115c-.114 0-.229-.029-.286-.115-.114-.057-.143-.172-.143-.315zm3.629-1.319c.114 0 .2.029.257.086a.326.326 0 0 1 .085.23.326.326 0 0 1-.085.23c-.057.057-.143.085-.257.085h-1.115a.481.481 0 0 1-.286-.086c-.057-.057-.114-.143-.114-.23 0-.085.057-.171.114-.229.057-.057.172-.086.286-.086h1.115zm.771.976l.857-2.295c.143-.402.343-.603.63-.603.285 0 .485.172.628.545l.886 2.381c.057.144.057.287.057.373 0 .115-.029.201-.114.258a.481.481 0 0 1-.286.086c-.2 0-.343-.114-.429-.372l-.114-.345h-1.315l-.114.345c-.029.114-.086.2-.143.286-.057.058-.171.086-.286.086-.257 0-.371-.114-.371-.344.028-.086.057-.23.114-.401zm1.057-.718h.858l-.4-1.29-.458 1.29zm2.83-2.151h1.771c.115 0 .2.029.286.115.086.057.114.172.114.315v2.754a.58.58 0 0 1-.085.316c-.057.086-.172.114-.286.143-.143 0-.257-.029-.314-.115a.523.523 0 0 1-.115-.315v-2.41h-1v2.41a.58.58 0 0 1-.086.315c-.057.086-.171.115-.285.144-.143 0-.258-.029-.315-.115a.523.523 0 0 1-.114-.315v-2.582c0-.086 0-.172.028-.287.03-.115.058-.172.086-.201.057-.143.172-.172.315-.172-.029 0-.029 0 0 0zm3.429 3.213v-2.41h-.429a.512.512 0 0 1-.314-.086c-.086-.057-.115-.143-.115-.258 0-.258.143-.373.43-.373h1.714c.286 0 .428.115.428.373 0 .115-.028.2-.114.258a.512.512 0 0 1-.314.086h-.457v2.41c0 .143-.03.258-.115.315a.366.366 0 0 1-.286.115c-.114 0-.228-.029-.285-.115-.086-.057-.143-.172-.143-.315zm2.2-1.721v-1.033c0-.144.029-.23.115-.316.085-.057.171-.114.257-.114h1.286c.114 0 .2.028.285.086a.44.44 0 0 1 .115.287c0 .114-.029.2-.086.258a.38.38 0 0 1-.286.114h-.857v.632h.8c.114 0 .229.028.286.114.057.086.114.172.114.258 0 .115-.028.201-.114.259-.057.086-.172.114-.286.114h-.8v.66h.857c.143 0 .229.029.315.115.057.057.085.143.085.258 0 .115-.028.201-.085.287-.058.086-.172.115-.315.115h-1.229c-.142 0-.228-.029-.314-.115a.369.369 0 0 1-.114-.287v-1.692h-.029zm2.686-1.033c0-.144.029-.23.115-.316a.366.366 0 0 1 .286-.114c.257 0 .4.143.4.43v.975l1.143-1.233a.502.502 0 0 1 .371-.172c.114 0 .2.057.286.143a.351.351 0 0 1 .114.258c0 .115-.057.23-.171.316l-.943.975 1.114 1.234a.587.587 0 0 1 .143.258c0 .143-.028.258-.114.344-.086.086-.172.115-.315.115-.142 0-.257-.086-.4-.23l-1.228-1.377v1.177c0 .143-.029.258-.115.315a.598.598 0 0 1-.314.115.362.362 0 0 1-.257-.115c-.057-.086-.115-.172-.115-.287v-2.811zm3.315 2.41l.858-2.295c.143-.402.343-.603.628-.603.286 0 .486.172.629.545l.886 2.381c.057.144.057.287.057.373 0 .115-.029.201-.114.258a.481.481 0 0 1-.286.086c-.2 0-.343-.114-.429-.372l-.085-.345h-1.315l-.114.345a.899.899 0 0 1-.143.286c-.057.058-.143.086-.257.086-.257 0-.372-.114-.372-.344-.057-.086-.028-.23.057-.401zm1.03-.718h.856l-.4-1.29-.457 1.29z"/></g></svg>