<svg xmlns="http://www.w3.org/2000/svg" width="45" height="42" viewBox="0 0 45 42"><g fill="#EA2B16"><path d="M37.93 29.455l-7.688-3.967a3.63 3.63 0 0 0-4.5.98l-2.297 2.893c-2.203-1.213-4.078-2.52-6.281-4.713-2.25-2.24-3.563-4.107-4.782-6.347l2.907-2.24a3.593 3.593 0 0 0 .984-4.48L12.29 3.928c-.47-.887-1.313-1.587-2.297-1.82-.985-.233-2.063-.093-2.906.467L2.164 5.84c-1.453.98-2.25 2.66-2.157 4.387.141 1.96.329 3.5.61 4.573 1.5 5.647 5.062 11.48 9.984 16.427 4.969 4.947 10.828 8.447 16.5 9.94 1.078.28 2.625.467 4.594.607h.328c1.64 0 3.188-.84 4.078-2.24l3.188-4.947c.562-.84.703-1.913.468-2.847a3.448 3.448 0 0 0-1.828-2.286zm-.376 4.013l-3.187 4.947c-.563.84-1.5 1.353-2.531 1.26-1.829-.14-3.282-.327-4.22-.56-5.343-1.4-10.827-4.714-15.515-9.38C7.414 25.068 4.086 19.56 2.68 14.288c-.234-.933-.422-2.38-.562-4.2-.047-.98.422-1.96 1.219-2.473l4.921-3.267c.235-.187.516-.233.844-.233.14 0 .235 0 .375.046.422.094.75.374.938.747l3.984 7.653c.328.654.14 1.4-.422 1.867l-3.61 2.8a1.024 1.024 0 0 0-.28 1.307c1.453 2.706 2.906 4.946 5.578 7.653 2.625 2.613 4.828 4.06 7.547 5.507.468.233 1.03.14 1.312-.28l2.813-3.64c.421-.56 1.218-.747 1.875-.42l7.734 3.966c.375.187.656.514.75.934.14.42.094.84-.14 1.213z"/><path d="M35.64 0H28c-4.969 0-9 4.013-9 8.96 0 4.667 3.656 8.54 8.25 8.913-.094.607-.234 1.26-.469 1.82-.281.84-.047 1.727.657 2.287.375.327.843.467 1.265.467.375 0 .703-.094 1.031-.28 1.922-1.167 3.563-2.894 4.688-4.247h1.172c4.968 0 9-4.013 9-8.96A8.942 8.942 0 0 0 35.64 0zm0 15.773h-1.687c-.328 0-.61.14-.844.374-.984 1.26-2.53 2.94-4.312 4.06.375-1.074.562-2.194.61-3.36 0-.28-.095-.56-.282-.747a1.108 1.108 0 0 0-.75-.327H28c-3.797 0-6.89-3.08-6.89-6.86 0-3.78 3.093-6.86 6.89-6.86h7.688c3.796 0 6.89 3.08 6.89 6.86a6.927 6.927 0 0 1-6.937 6.86z"/><ellipse cx="26.828" cy="8.82" rx="1.828" ry="1.82"/><ellipse cx="31.828" cy="8.82" rx="1.828" ry="1.82"/><ellipse cx="36.828" cy="8.82" rx="1.828" ry="1.82"/></g></svg>