<svg xmlns="http://www.w3.org/2000/svg" width="85" height="26" viewBox="0 0 85 26"><defs><linearGradient id="a" x1="91.488%" x2="-38.352%" y1="4.948%" y2="71.907%"><stop offset="0%" stop-color="#00A0FF"/><stop offset="1%" stop-color="#00A1FF"/><stop offset="26%" stop-color="#00BEFF"/><stop offset="51%" stop-color="#00D2FF"/><stop offset="76%" stop-color="#00DFFF"/><stop offset="100%" stop-color="#00E3FF"/></linearGradient><linearGradient id="b" x1="107.685%" x2="-130.64%" y1="50%" y2="50%"><stop offset="0%" stop-color="#FFE000"/><stop offset="41%" stop-color="#FFBD00"/><stop offset="78%" stop-color="orange"/><stop offset="100%" stop-color="#FF9C00"/></linearGradient><linearGradient id="c" x1="86.219%" x2="-50.15%" y1="17.877%" y2="194.703%"><stop offset="0%" stop-color="#FF3A44"/><stop offset="100%" stop-color="#C31162"/></linearGradient><linearGradient id="d" x1="-18.754%" x2="42.121%" y1="-54.052%" y2="24.917%"><stop offset="0%" stop-color="#32A071"/><stop offset="7%" stop-color="#2DA771"/><stop offset="48%" stop-color="#15CF74"/><stop offset="80%" stop-color="#06E775"/><stop offset="100%" stop-color="#00F076"/></linearGradient></defs><g fill="none"><rect width="84.24" height="26" fill="#2B2B2B" rx="3"/><path fill="#FFF" d="M42.341 13.863c-1.468.007-2.652 1.222-2.648 2.716.005 1.493 1.197 2.7 2.665 2.699 1.467-.003 2.656-1.214 2.656-2.708a2.694 2.694 0 0 0-.772-1.93 2.6 2.6 0 0 0-1.9-.777zm0 4.35a1.611 1.611 0 0 1-1.57-.93 1.666 1.666 0 0 1 .275-1.828 1.596 1.596 0 0 1 1.772-.411 1.643 1.643 0 0 1 1.025 1.526c.02.422-.127.835-.41 1.144-.283.31-.677.49-1.092.5zm-5.828-4.35c-1.468.003-2.656 1.217-2.654 2.711.002 1.495 1.194 2.705 2.662 2.704 1.469-.002 2.659-1.213 2.659-2.708a2.694 2.694 0 0 0-.773-1.93 2.6 2.6 0 0 0-1.9-.777h.006zm0 4.35a1.61 1.61 0 0 1-1.574-.925 1.666 1.666 0 0 1 .27-1.83 1.596 1.596 0 0 1 1.773-.414 1.643 1.643 0 0 1 1.027 1.526c.02.422-.128.835-.41 1.144-.283.31-.677.49-1.092.5h.006zm-6.942-3.516v1.147h2.704a2.422 2.422 0 0 1-.626 1.446 2.742 2.742 0 0 1-2.085.84c-1.659 0-3.004-1.368-3.004-3.057 0-1.689 1.345-3.058 3.004-3.058a2.853 2.853 0 0 1 2.047.822l.796-.81a3.903 3.903 0 0 0-2.836-1.19 4.121 4.121 0 0 0-3.718 2.055 4.275 4.275 0 0 0 0 4.305 4.121 4.121 0 0 0 3.718 2.055 3.722 3.722 0 0 0 2.886-1.178 3.862 3.862 0 0 0 .976-2.689 3.804 3.804 0 0 0-.062-.72l-3.8.032zm28.364.892a2.51 2.51 0 0 0-2.279-1.726 2.484 2.484 0 0 0-1.828.801 2.575 2.575 0 0 0-.676 1.906c-.015.72.257 1.414.756 1.925.498.51 1.179.793 1.886.783a2.636 2.636 0 0 0 2.216-1.198l-.908-.637a1.516 1.516 0 0 1-1.308.752 1.35 1.35 0 0 1-1.29-.822l3.562-1.497-.131-.287zm-3.631.905a1.5 1.5 0 0 1 .369-1.087c.261-.298.629-.475 1.02-.493a1.03 1.03 0 0 1 .99.573l-2.38 1.007zm-2.892 2.624h1.17v-7.963h-1.17v7.963zm-1.916-4.65h-.044a1.864 1.864 0 0 0-1.402-.637c-1.42.07-2.537 1.263-2.537 2.71 0 1.448 1.116 2.641 2.537 2.711.537.01 1.05-.224 1.402-.637h.038v.389c0 1.038-.545 1.592-1.421 1.592a1.473 1.473 0 0 1-1.34-.962l-1.02.434a2.535 2.535 0 0 0 2.36 1.599c1.37 0 2.504-.822 2.504-2.823v-4.822h-1.077v.446zm-1.34 3.746a1.639 1.639 0 0 1-1.478-1.644c0-.855.642-1.568 1.479-1.644.404.022.783.208 1.05.517.268.31.401.716.37 1.127.035.413-.098.822-.368 1.133a1.48 1.48 0 0 1-1.059.51h.007zm15.262-7.059H60.62v7.963h1.17v-3.02h1.635c.909.067 1.779-.389 2.253-1.181a2.516 2.516 0 0 0 0-2.58 2.423 2.423 0 0 0-2.253-1.182h-.007zm0 3.822h-1.634v-2.713h1.66c.741 0 1.342.611 1.342 1.366 0 .755-.601 1.367-1.343 1.367l-.025-.02zm7.218-1.146a2.185 2.185 0 0 0-2.084 1.217l1.039.44c.209-.394.626-.623 1.064-.587.3-.036.602.053.837.246.236.193.385.474.415.78v.082a2.55 2.55 0 0 0-1.22-.305c-1.121 0-2.254.637-2.254 1.79.022.497.24.963.606 1.293.366.33.847.495 1.334.459.6.044 1.177-.25 1.503-.765h.037v.637h1.127v-3.064c0-1.395-1.04-2.204-2.373-2.204l-.03-.02zm-.144 4.364c-.382 0-.914-.198-.914-.676 0-.637.664-.847 1.252-.847.372-.01.74.083 1.064.268a1.425 1.425 0 0 1-1.37 1.274l-.032-.02zm6.654-4.173l-1.34 3.453h-.037l-1.39-3.453h-1.251l2.084 4.829-1.19 2.682h1.221l3.206-7.511h-1.303zm-10.523 5.096h1.171v-7.963h-1.17v7.963z"/><path fill="url(#a)" d="M6.601 4.919c-.199.245-.3.559-.28.877v13.866c-.02.318.081.632.28.877l.043.044 7.572-7.76v-.182L6.644 4.875l-.043.044z"/><path fill="url(#b)" d="M16.768 15.167l-2.553-2.614v-.183l2.553-2.62.056.032 3.056 1.765c.871.5.871 1.323 0 1.829l-3.044 1.759-.068.032z"/><path fill="url(#c)" d="M16.842 15.123l-2.663-2.665-7.861 7.87c.371.326.923.342 1.312.037l9.218-5.242"/><path fill="url(#d)" d="M16.848 9.793L7.63 4.552a1.028 1.028 0 0 0-1.312.038l7.868 7.868 2.662-2.665z"/><path fill="#000" d="M16.772 15.167l-9.147 5.121a1.069 1.069 0 0 1-1.263 0l-.044.044.044.043c.374.278.89.278 1.263 0l9.223-5.152-.076-.056z" opacity=".2"/><path fill="#000" d="M6.604 20.486a1.35 1.35 0 0 1-.284-.913v.098a1.35 1.35 0 0 0 .284.912l.043-.045-.043-.052zm13.312-7.18l-3.087 1.843.055.059 3.032-1.811a1.14 1.14 0 0 0 .617-.939c-.07.368-.298.681-.617.847z" opacity=".12"/><path fill="#FFF" d="M7.886 4.633l12.03 7.004c.32.16.547.464.617.821a1.106 1.106 0 0 0-.617-.91L7.886 4.544c-.864-.499-1.568-.082-1.568.93v.094c.019-1.017.71-1.434 1.568-.935z" opacity=".25"/><path fill="#FFF" stroke="#FFF" stroke-width=".2" d="M26.26 9.208h-.462V7.894h.394c.363-.405.536-.96.474-1.512V4.429h2.496v3.458h.418v1.315h-.462v-.829H26.26v.835zm.868-2.807a2.74 2.74 0 0 1-.356 1.512h1.872V4.916h-1.516V6.4zm6.184 1.46a1.878 1.878 0 0 1-2.746 0 2.213 2.213 0 0 1 0-2.926 1.887 1.887 0 0 1 1.373-.602c.516 0 1.01.217 1.373.602.74.82.74 2.106 0 2.926zm-2.39-.329a1.39 1.39 0 0 0 2.034 0 1.75 1.75 0 0 0 0-2.261 1.39 1.39 0 0 0-2.034 0 1.75 1.75 0 0 0 0 2.261zm5.367.927a1.86 1.86 0 0 1-1.39-.591 2.07 2.07 0 0 1-.557-1.467 2.07 2.07 0 0 1 .556-1.466 1.86 1.86 0 0 1 1.39-.591A1.693 1.693 0 0 1 37.662 5l-.337.342a1.223 1.223 0 0 0-1.042-.5 1.38 1.38 0 0 0-1.036.434 1.757 1.757 0 0 0 0 2.281 1.38 1.38 0 0 0 1.036.434 1.453 1.453 0 0 0 1.142-.585l.337.355c-.17.217-.383.392-.624.513a1.88 1.88 0 0 1-.848.184zm3.432-.086h-.48V4.916h-1.05v-.487h2.572v.487H39.72v3.457zm4.35-3.944l-1.417 3.327a.952.952 0 0 1-.861.703.92.92 0 0 1-.375-.086l.125-.466a.486.486 0 0 0 .25.072.425.425 0 0 0 .262-.066.618.618 0 0 0 .168-.25l.137-.315-1.248-2.912h.568l.924 2.261.898-2.268h.568zm.542 3.944V4.43h2.709v3.944h-.48V4.916h-1.748v3.457h-.48zm3.564 0V4.43h.48v1.69h1.872v-1.69h.48v3.944h-.48V6.592h-1.872v1.781h-.48zm6.758-.512a1.878 1.878 0 0 1-2.746 0 2.213 2.213 0 0 1 0-2.926 1.887 1.887 0 0 1 1.373-.602c.515 0 1.01.217 1.373.602.74.82.74 2.106 0 2.926zm-2.39-.329a1.39 1.39 0 0 0 2.034 0 1.75 1.75 0 0 0 0-2.261 1.39 1.39 0 0 0-2.034 0 1.75 1.75 0 0 0 0 2.261zm4.905.841V4.43h1.354c.281-.005.554.103.761.303.211.193.33.474.325.769a.88.88 0 0 1-.505.815c.18.063.339.182.455.342.12.16.184.36.18.565.007.307-.116.6-.336.802a1.122 1.122 0 0 1-.799.322l-1.435.026zm.48-2.254h.874a.548.548 0 0 0 .437-.19.603.603 0 0 0 .025-.841.524.524 0 0 0-.418-.192h-.893l-.025 1.223zm0 1.768h.967a.561.561 0 0 0 .45-.204c.11-.12.172-.28.175-.447 0-.363-.28-.657-.625-.657h-.948l-.019 1.308z"/></g></svg>