<?xml version="1.0" encoding="UTF-8"?>
<svg width="16px" height="14px" viewBox="0 0 16 14" version="1.1" xmlns="http://www.w3.org/2000/svg" xmlns:xlink="http://www.w3.org/1999/xlink">
    <!-- Generator: sketchtool 50.2 (55047) - http://www.bohemiancoding.com/sketch -->
    <title>A9D3B04A-3F9B-48A5-B202-83169BC5CE67</title>
    <desc>Created with sketchtool.</desc>
    <defs></defs>
    <g id="UI_desktop" stroke="none" stroke-width="1" fill-rule="evenodd">
        <g id="UI_LEKKI" transform="translate(-161.000000, -293.000000)" fill-rule="nonzero">
            <g id="HEADER" transform="translate(48.000000, 152.000000)">
                <path d="M114.066667,143 C113.477563,143 113,142.552285 113,142 C113,141.447715 113.477563,141 114.066667,141 L127.933333,141 C128.522437,141 129,141.447715 129,142 C129,142.552285 128.522437,143 127.933333,143 L114.066667,143 Z M114.066667,149 C113.477563,149 113,148.552285 113,148 C113,147.447715 113.477563,147 114.066667,147 L127.933333,147 C128.522437,147 129,147.447715 129,148 C129,148.552285 128.522437,149 127.933333,149 L114.066667,149 Z M114.066667,155 C113.477563,155 113,154.552285 113,154 C113,153.447715 113.477563,153 114.066667,153 L127.933333,153 C128.522437,153 129,153.447715 129,154 C129,154.552285 128.522437,155 127.933333,155 L114.066667,155 Z" id="Combined-Shape"></path>
            </g>
        </g>
    </g>
</svg>