<svg xmlns="http://www.w3.org/2000/svg" width="14" height="17" viewBox="0 0 14 17">
    <path fill="#2B2B2B" fill-rule="evenodd" d="M13.18 11.82c-.358.838-.531 1.21-.995 1.953-.646 1.035-1.56 2.325-2.69 2.334-1.004.01-1.262-.687-2.626-.678-1.362.008-1.647.69-2.651.68-1.13-.01-1.995-1.173-2.642-2.209-1.81-2.892-2-6.288-.883-8.094.794-1.283 2.045-2.033 3.222-2.033 1.196 0 1.95.69 2.94.69.961 0 1.547-.692 2.932-.692 1.048 0 2.157.6 2.947 1.634-2.59 1.492-2.17 5.375.447 6.415zM8.738 2.615C9.24 1.937 9.622.978 9.484 0 8.66.059 7.699.609 7.138 1.325c-.51.649-.93 1.614-.768 2.551.9.03 1.829-.534 2.367-1.261z"/>
</svg>
