<?xml version="1.0" encoding="UTF-8"?>
<svg width="20px" height="18px" viewBox="0 0 20 18" version="1.1" xmlns="http://www.w3.org/2000/svg" xmlns:xlink="http://www.w3.org/1999/xlink">
    <!-- Generator: sketchtool 50.2 (55047) - http://www.bohemiancoding.com/sketch -->
    <title>FA93280C-7D32-4E97-9DE4-2D6CCB4E18EC</title>
    <desc>Created with sketchtool.</desc>
    <defs></defs>
    <g id="UI_desktop" stroke="none" stroke-width="1" fill-rule="evenodd">
        <g id="UI_LEKKI" transform="translate(-721.000000, -378.000000)" fill-rule="nonzero">
            <g id="Group-3" transform="translate(584.000000, 368.000000)">
                <path d="M155.724783,13.5672598 L141.844691,13.5672598 L141.687981,12.2480076 C141.571677,11.2585147 140.813962,10.4652433 139.829839,10.3026696 L138.03886,10.0119869 C137.804304,9.97324767 137.563952,10.0292574 137.370778,10.1676712 C137.177604,10.306085 137.047466,10.5155408 137.009047,10.7498737 C136.940761,11.2347726 137.266059,11.6876705 137.747826,11.7784432 L139.538805,12.0691259 C139.731252,12.0989891 139.878809,12.2555801 139.897001,12.4492495 L141.262623,23.7635144 C141.39487,24.8158301 142.242434,25.6344628 143.299862,25.7312126 C143.691763,26.6430979 144.589816,27.2341862 145.583361,27.2341862 C146.576907,27.2341862 147.474959,26.6430979 147.86686,25.7312126 L149.478742,25.7312126 C149.951449,26.8740125 151.200106,27.48866 152.395456,27.1669554 C153.590805,26.8452508 154.361223,25.687209 154.195061,24.4619085 C154.028899,23.236608 152.977814,22.3249827 151.739853,22.3324611 C150.711793,22.3410136 149.795154,22.9809965 149.433967,23.942396 L147.889247,23.942396 C147.54922,22.9736995 146.637963,22.3216257 145.610266,22.3116115 C144.582568,22.3015973 143.658747,22.9357895 143.299862,23.8976756 C143.158359,23.8324797 143.063878,23.6952184 143.053603,23.5399123 L142.874505,22.0864988 L153.060701,22.0864988 C154.092321,22.0938695 154.992614,21.3893372 155.232263,20.3871231 L156.597885,14.66291 C156.660932,14.3988194 156.603541,14.1204009 156.441174,13.9026629 C156.269708,13.6830097 156.003505,13.5583779 155.724783,13.5672598 Z M151.739853,24.1212777 C151.919841,24.1149641 152.094367,24.1836086 152.221715,24.3108036 C152.349064,24.4379986 152.417792,24.6123138 152.41147,24.7920839 C152.41147,25.16256 152.110777,25.4628901 151.739853,25.4628901 C151.389857,25.463098 151.102692,25.1861698 151.090623,24.8368043 L151.090623,24.7250033 C151.114193,24.3844497 151.398075,24.120465 151.739853,24.1212777 Z M145.583361,24.1212777 C145.759393,24.1152113 145.930338,24.180842 146.056978,24.3031129 C146.183618,24.4253839 146.255083,24.5938 146.254978,24.7697237 C146.2613,24.9494938 146.192572,25.123809 146.065223,25.251004 C145.937875,25.3781991 145.763349,25.4468436 145.583361,25.4405299 C145.217362,25.4289163 144.923372,25.1352812 144.911744,24.7697237 C144.923822,24.4080081 145.221007,24.1210766 145.583361,24.1212777 Z M154.60542,15.3560764 L154.269612,16.6976889 L142.225275,16.6976889 L142.068564,15.3560764 L154.60542,15.3560764 Z M153.060701,20.2976822 L142.650632,20.2976822 L142.42676,18.4865055 L153.844254,18.4865055 L153.486058,19.9622791 C153.443157,20.1615004 153.264673,20.3022383 153.060701,20.2976822 Z" id="Shape"></path>
            </g>
        </g>
    </g>
</svg>