<?xml version="1.0" encoding="UTF-8"?>
<svg width="17px" height="17px" viewBox="0 0 17 17" version="1.1" xmlns="http://www.w3.org/2000/svg" xmlns:xlink="http://www.w3.org/1999/xlink">
    <!-- Generator: sketchtool 50.2 (55047) - http://www.bohemiancoding.com/sketch -->
    <title>35A98A69-FDF6-41DD-9CC7-4524B97551BC</title>
    <desc>Created with sketchtool.</desc>
    <defs></defs>
    <g id="UI_desktop" stroke="none" stroke-width="1" fill-rule="evenodd">
        <g id="UI_LEKKI" transform="translate(-450.000000, -1072.000000)" fill-rule="nonzero">
            <g id="ICON" transform="translate(48.000000, 1071.000000)">
                <path d="M408.806024,6.95202757 C408.693561,7.17986427 408.476282,7.33785553 408.224872,7.37460287 L404.433705,7.92873876 L407.176362,10.6000869 C407.358628,10.7776141 407.441822,11.0334881 407.398811,11.2842608 L406.751708,15.0572022 L410.141174,13.2747159 C410.366334,13.1563068 410.635348,13.1563068 410.860508,13.2747159 L414.249974,15.0572022 L413.602871,11.2842608 C413.55986,11.0334881 413.643054,10.7776141 413.82532,10.6000869 L416.567977,7.92873876 L412.77681,7.37460287 C412.5254,7.33785553 412.308121,7.17986427 412.195658,6.95202757 L410.500841,3.51851472 L408.806024,6.95202757 Z M407.599821,5.90408744 L409.807931,1.4306997 C410.091394,0.856433433 410.910288,0.856433433 411.193751,1.4306997 L413.401861,5.90408744 L418.339872,6.62585167 C418.973442,6.71845748 419.225957,7.49724392 418.767271,7.94400399 L415.19479,11.4236007 L416.037902,16.3393756 C416.146176,16.9706646 415.483524,17.4520451 414.916629,17.1539204 L410.500841,14.831702 L406.085053,17.1539204 C405.518158,17.4520451 404.855506,16.9706646 404.96378,16.3393756 L405.806892,11.4236007 L402.234411,7.94400399 C401.775725,7.49724392 402.02824,6.71845748 402.66181,6.62585167 L407.599821,5.90408744 Z" id="Shape"></path>
            </g>
        </g>
    </g>
</svg>