<?xml version="1.0" encoding="UTF-8"?>
<svg width="19px" height="11px" viewBox="0 0 19 11" version="1.1" xmlns="http://www.w3.org/2000/svg" xmlns:xlink="http://www.w3.org/1999/xlink">
    <!-- Generator: sketchtool 50.2 (55047) - http://www.bohemiancoding.com/sketch -->
    <title>CE366E30-7210-4D5F-9E7A-75FF49E14D61</title>
    <desc>Created with sketchtool.</desc>
    <defs></defs>
    <g id="UI_desktop" stroke="none" stroke-width="1" fill-rule="evenodd">
        <g id="UI_LEKKI" transform="translate(-313.000000, -959.000000)">
            <g id="Group-12" transform="translate(248.000000, 944.000000)">
                <path d="M75.4317885,25.9496068 C75.4317885,25.9496068 75.7746968,25.9135194 75.9503327,25.7348424 C76.1111,25.5711286 76.1055243,25.2621847 76.1055243,25.2621847 C76.1055243,25.2621847 76.0841506,23.8195665 76.7913408,23.6065625 C77.4883089,23.3970792 78.3832158,25.0016509 79.3329509,25.6186584 C80.0503633,26.0851548 80.5949277,25.9830537 80.5949277,25.9830537 L83.1328206,25.9496068 C83.1328206,25.9496068 84.4598478,25.8721508 83.830718,24.8837065 C83.7786777,24.8027297 83.4636481,24.1522753 81.9442578,22.8161591 C80.3523828,21.4175499 80.5661197,21.6437567 82.4823171,19.2241365 C83.6495063,17.7507119 84.1160102,16.851166 83.9701116,16.4665264 C83.8316473,16.0986104 82.9729826,16.1963106 82.9729826,16.1963106 L80.116343,16.213034 C80.116343,16.213034 79.9044647,16.1857484 79.7474146,16.2746468 C79.5940816,16.3617848 79.4946475,16.5651068 79.4946475,16.5651068 C79.4946475,16.5651068 79.0430122,17.7049425 78.4399025,18.674903 C77.1677036,20.7204458 76.6593815,20.8287082 76.4512204,20.701962 C75.96706,20.4053407 76.0878678,19.511956 76.0878678,18.8773448 C76.0878678,16.8942949 76.4056852,16.067804 75.4698894,15.8539198 C75.1595063,15.7826251 74.9309008,15.7359754 74.1363573,15.7280538 C73.1169254,15.7183718 72.2545436,15.7315745 71.7657367,15.9577813 C71.4404849,16.1082924 71.1895764,16.4445219 71.3429094,16.4638859 C71.5315554,16.4876508 71.9590291,16.5730285 72.1857761,16.8652489 C72.4785026,17.2428469 72.4682804,18.089582 72.4682804,18.089582 C72.4682804,18.089582 72.6364821,20.4238245 72.0751905,20.7134044 C71.6904641,20.9123255 71.162627,20.5065616 70.027963,18.6502579 C69.4471563,17.6996614 69.0085311,16.6487241 69.0085311,16.6487241 C69.0085311,16.6487241 68.9239657,16.4524435 68.7724913,16.3468217 C68.589421,16.2191953 68.3338661,16.1795871 68.3338661,16.1795871 L65.6194079,16.1963106 C65.6194079,16.1963106 65.2114493,16.2068728 65.0618335,16.3749875 C64.9289449,16.5237383 65.0516113,16.8326821 65.0516113,16.8326821 C65.0516113,16.8326821 67.1768991,21.5425358 69.5837621,23.9163865 C71.7908275,26.0921963 74.2961953,25.9496068 74.2961953,25.9496068 L75.4317885,25.9496068 Z" id="Shape"></path>
            </g>
        </g>
    </g>
</svg>