<svg xmlns="http://www.w3.org/2000/svg" width="15" height="16" viewBox="0 0 15 16">
    <path fill-rule="nonzero" d="M1.5 2v3.75h3.75V2H1.5zM.75.5H6a.75.75 0 0 1 .75.75V6.5a.75.75 0 0 1-.75.75H.75A.75.75 0 0 1 0 6.5V1.25A.75.75 0 0 1 .75.5zM9 .5h5.25a.75.75 0 0 1 .75.75V6.5a.75.75 0 0 1-.75.75H9a.75.75 0 0 1-.75-.75V1.25A.75.75 0 0 1 9 .5zm.75 5.25h3.75V2H9.75v3.75zm-.75 3h5.25a.75.75 0 0 1 .75.75v5.25a.75.75 0 0 1-.75.75H9a.75.75 0 0 1-.75-.75V9.5A.75.75 0 0 1 9 8.75zM9.75 14h3.75v-3.75H9.75V14zm-9-5.25H6a.75.75 0 0 1 .75.75v5.25a.75.75 0 0 1-.75.75H.75a.75.75 0 0 1-.75-.75V9.5a.75.75 0 0 1 .75-.75zM1.5 14h3.75v-3.75H1.5V14z"/>
</svg>
