<!-- Generated by IcoMoon.io -->
<svg version="1.1" xmlns="http://www.w3.org/2000/svg" width="32" height="32" viewBox="0 0 32 32">
<title>doc</title>
<path d="M25.333 12h-6.667c-0.736 0-1.333-0.597-1.333-1.333v0-6.667h-9.333c-0.736 0-1.333 0.597-1.333 1.333v0 21.333c0 0.736 0.597 1.333 1.333 1.333v0h16c0.736 0 1.333-0.597 1.333-1.333v0-14.667h1.333c0.736 0 1.333-0.597 1.333-1.333v0 16c0 2.209-1.791 4-4 4v0h-16c-2.209 0-4-1.791-4-4v0-21.333c0-2.209 1.791-4 4-4v0h10.667c0.368 0 0.701 0.149 0.943 0.391l8 8c0.121 0.12 0.218 0.264 0.286 0.423l0.003 0.009zM20 5.885v3.448h3.448l-3.448-3.448zM21.333 16c0.736 0 1.333 0.597 1.333 1.333s-0.597 1.333-1.333 1.333v0h-10.667c-0.736 0-1.333-0.597-1.333-1.333s0.597-1.333 1.333-1.333v0h10.667zM21.333 21.333c0.736 0 1.333 0.597 1.333 1.333s-0.597 1.333-1.333 1.333v0h-10.667c-0.736 0-1.333-0.597-1.333-1.333s0.597-1.333 1.333-1.333v0h10.667zM13.333 10.667c0.736 0 1.333 0.597 1.333 1.333s-0.597 1.333-1.333 1.333v0h-2.667c-0.736 0-1.333-0.597-1.333-1.333s0.597-1.333 1.333-1.333v0h2.667z"></path>
</svg>
