<!-- Generated by IcoMoon.io -->
<svg version="1.1" xmlns="http://www.w3.org/2000/svg" width="32" height="32" viewBox="0 0 32 32">
<title>eye-off</title>
<path d="M8 9.9c-2 1.7-3.7 3.8-5.1 6v0.1c1 1.7 2.1 3.1 3.3 4.4v0c2.9 3.1 6.2 4.9 9.8 4.9 2.2 0 4.2-0.6 5.9-1.6h-0.1l-3.1-3.1c-0.8 0.5-1.8 0.8-2.8 0.8-2.9 0-5.3-2.4-5.3-5.3 0-1.1 0.3-2 0.8-2.9v0l-3.4-3.3zM24.8 23c0.1 0 0.1 0 0 0l6.8 6.8c0.2 0.2 0.4 0.6 0.4 0.9 0 0.7-0.6 1.3-1.3 1.3-0.4 0-0.7-0.1-0.9-0.4v0l-6-6c-2.2 1.5-4.9 2.4-7.8 2.4v0c-4.5 0-8.5-2.2-11.8-5.8-1.1-1.1-2.1-2.4-2.9-3.8l-0.1-0.1c-0.3-0.5-0.7-1.1-1-1.7l-0.1-0.1c0-0.1-0.1-0.3-0.1-0.5s0.1-0.4 0.2-0.6v0c1.5-2.9 3.5-5.4 5.9-7.4v0l-5.7-5.7c-0.2-0.3-0.4-0.6-0.4-0.9 0-0.8 0.6-1.4 1.4-1.4 0.3 0 0.6 0.2 0.9 0.4v0l6.7 6.7c0 0 0 0 0 0l5.1 5.1c0 0 0 0 0 0v0l5.6 5.6c0 0 0 0 0 0v0l5.1 5.2zM13.4 15.3c-0.1 0.3-0.1 0.5-0.1 0.8 0 1.5 1.2 2.7 2.7 2.7 0.3 0 0.6 0 0.9-0.1v0l-3.5-3.4zM26.8 19.4c0.9-1.1 1.7-2.2 2.4-3.4-1-1.7-2.1-3.1-3.3-4.4v0c-2.9-3.1-6.2-4.9-9.9-4.9 0 0 0 0 0 0-0.9 0-1.7 0.1-2.5 0.3h0.1c-0.1 0-0.2 0-0.3 0-0.7 0-1.3-0.6-1.3-1.3 0-0.6 0.4-1.1 1-1.3v0c0.8-0.3 1.9-0.4 3-0.4 0 0 0 0 0 0v0c4.5 0 8.5 2.2 11.8 5.8 1.1 1.1 2.1 2.4 2.9 3.8l0.1 0.1c0.5 0.8 0.9 1.4 1 1.8 0.1 0.2 0.1 0.4 0.1 0.6s-0.1 0.4-0.2 0.6v0c-0.9 1.7-1.9 3.2-3.1 4.5v0c-0.2 0.3-0.6 0.5-1 0.5-0.7 0-1.3-0.6-1.3-1.3 0.1-0.5 0.3-0.8 0.5-1v0 0z"></path>
</svg>
