<!-- Generated by IcoMoon.io -->
<svg version="1.1" xmlns="http://www.w3.org/2000/svg" width="41" height="32" viewBox="0 0 41 32">
<title>eye</title>
<path d="M0.183 14.663c0.24-0.482 0.69-1.287 1.349-2.309 1.207-1.859 2.479-3.478 3.881-4.975l-0.018 0.019c4.309-4.601 9.381-7.399 15.177-7.399 5.794 0 10.866 2.798 15.177 7.399 1.383 1.478 2.656 3.098 3.78 4.822l0.083 0.135c0.658 1.019 1.109 1.824 1.349 2.306 0.114 0.223 0.181 0.487 0.181 0.766s-0.067 0.543-0.185 0.775l0.005-0.010c-0.24 0.482-0.69 1.287-1.349 2.309-1.207 1.859-2.479 3.478-3.881 4.975l0.018-0.020c-4.309 4.601-9.381 7.399-15.177 7.399-5.794 0-10.866-2.798-15.177-7.399-1.383-1.478-2.656-3.098-3.78-4.822l-0.083-0.135c-0.423-0.632-0.871-1.387-1.28-2.164l-0.068-0.142c-0.114-0.223-0.18-0.487-0.18-0.766s0.067-0.543 0.185-0.775l-0.005 0.010zM4.411 16.642c0.987 1.525 2.151 3.051 3.481 4.471 3.726 3.97 7.973 6.315 12.679 6.315s8.955-2.345 12.679-6.315c1.562-1.671 2.958-3.533 4.141-5.537l0.081-0.148c-1.264-2.151-2.661-4.013-4.241-5.703l0.017 0.018c-3.719-3.97-7.968-6.315-12.677-6.315s-8.955 2.345-12.679 6.315c-1.562 1.671-2.958 3.533-4.141 5.537l-0.081 0.148c0.215 0.373 0.462 0.779 0.743 1.211zM20.571 22.286c-3.787 0-6.857-3.070-6.857-6.857s3.070-6.857 6.857-6.857v0c3.787 0 6.857 3.070 6.857 6.857s-3.070 6.857-6.857 6.857v0zM20.571 18.857c1.894 0 3.429-1.535 3.429-3.429s-1.535-3.429-3.429-3.429v0c-1.894 0-3.429 1.535-3.429 3.429s1.535 3.429 3.429 3.429v0z"></path>
</svg>
