<svg xmlns="http://www.w3.org/2000/svg" width="14" height="15" viewBox="0 0 14 15">
    <path fill="#2B2B2B" fill-rule="evenodd" d="M8.07 7.76L.78 14.795l-.008.009-.21.196 6.42-3.599 3.07-1.73-.097-.086L8.07 7.76zm2.36-2.268l-.044.043h-.01l-.07.076-.894.862-.956.92-.018.01v.007l-.07.06 1.939 1.876.07.077h.009l.043.042 2.939-1.653c.321-.181.34-.423.13-.589-.014-.012-.034-.023-.052-.034l-.052-.035c-.29-.151-2.64-1.48-2.965-1.662zM.087.068A.472.472 0 0 0 0 .358v14.378c0 .077.017.143.044.195l.01-.007h.008l.096-.103 7.614-7.35-.062-.06h-.008l-.027-.017L.202.17.123.094.088.068zM.614 0l.15.137.017.017h.008L8.07 7.19l.773-.742 1.113-1.075.097-.085-3.07-1.73L.693.025C.685.02.675.02.667.018.649.008.63.008.614 0z"/>
</svg>
