<svg xmlns="http://www.w3.org/2000/svg" width="15" height="18" viewBox="0 0 15 18">
    <path fill="#000" fill-rule="nonzero" d="M14.506 7.745l-2.478-.61-2.05-1.511a3.176 3.176 0 0 0 .349-4.475A3.296 3.296 0 0 0 5.79.703a3.177 3.177 0 0 0-.557 4.455h-.017a.657.657 0 0 0-.46.188L.19 9.84a.635.635 0 0 0 0 .908l1.304 1.284a.66.66 0 0 0 .869.047l2.201-1.733v1.156l-.571 2.25-1.747 1.145a.634.634 0 0 0-.18.89l1.303 1.927c.194.284.58.37.879.192l3.26-1.926a.644.644 0 0 0 .284-.348l.23-.68 1.869 2.76c.182.27.54.364.834.22l2.609-1.285a.645.645 0 0 0 .327-.371.633.633 0 0 0-.035-.49l-1.956-3.854a.672.672 0 0 0-.042-.069l-.958-1.413 2.917.479a.651.651 0 0 0 .727-.432l.652-1.927a.633.633 0 0 0-.047-.512.65.65 0 0 0-.414-.314zM5.87 3.231c0-1.064.876-1.926 1.957-1.926 1.08 0 1.956.862 1.956 1.926s-.875 1.927-1.956 1.927c-1.08 0-1.957-.863-1.957-1.927zM4.11 16.493l-.598-.883 1.414-.928a.642.642 0 0 0 .27-.38l.415-1.629 1.446 1.068-.427 1.262-2.52 1.49zm8.057-.707l-1.51.744-2.29-3.382a.573.573 0 0 0-.07-.072.533.533 0 0 0-.065-.064c-.007-.006-.012-.015-.019-.02l-2.343-1.734V9.01a.641.641 0 0 0-.37-.579.66.66 0 0 0-.69.078l-2.804 2.21-.43-.424 3.912-3.853h3.078l.572 3.944a.636.636 0 0 0 .103.265l1.281 1.891 1.645 3.244zm1.085-6.216l-2.986-.489-.267-1.838 1.35.997c.07.051.148.088.233.11l1.925.473-.255.747z"/>
</svg>
