<svg xmlns="http://www.w3.org/2000/svg" width="17" height="17" viewBox="0 0 17 17">
    <path fill="#EA2B16" fill-rule="nonzero" d="M15.346 12.284a.776.776 0 0 0-.656-.801c-.799-.105-1.583-.3-2.34-.583a.77.77 0 0 0-.81.17l-.98.98a.772.772 0 0 1-.927.126 13.118 13.118 0 0 1-4.92-4.92.772.772 0 0 1 .126-.926l.977-.977a.772.772 0 0 0 .173-.816 10.662 10.662 0 0 1-.581-2.33.774.774 0 0 0-.78-.664H2.314a.772.772 0 0 0-.769.83A14.506 14.506 0 0 0 3.798 8.73a14.284 14.284 0 0 0 4.398 4.396 14.486 14.486 0 0 0 6.31 2.248.772.772 0 0 0 .84-.775v-2.315zM9.47 10.96l.927-.125c-.17-.096-.337-.197-.5-.301l-.427.426zm7.42 3.637a2.315 2.315 0 0 1-2.537 2.314 16.034 16.034 0 0 1-6.99-2.485A15.81 15.81 0 0 1 2.5 9.563a16.053 16.053 0 0 1-2.49-7.04A2.315 2.315 0 0 1 2.313 0h2.308a2.317 2.317 0 0 1 2.316 1.998c.09.683.257 1.354.497 1.998.318.846.115 1.8-.524 2.445l-.553.553a11.575 11.575 0 0 0 3.538 3.539l.557-.557a2.314 2.314 0 0 1 2.44-.521c.646.24 1.316.408 2.006.499a2.315 2.315 0 0 1 1.992 2.339v2.303z"/>
</svg>
