<svg xmlns="http://www.w3.org/2000/svg" width="13" height="14" viewBox="0 0 13 14">
    <path fill="#2B2B2B" fill-rule="evenodd" d="M2.089 13.6a.438.438 0 0 1-.128-.323v-2.55H.451a.438.438 0 0 1-.451-.45v-.432a.438.438 0 0 1 .451-.451h1.51V8.276H.451A.438.438 0 0 1 0 7.825v-.628a.438.438 0 0 1 .451-.45h1.51V.47c0-.144.04-.259.118-.344A.431.431 0 0 1 2.412 0h4.962c1.477 0 2.638.356 3.481 1.069.843.712 1.265 1.749 1.265 3.108 0 1.334-.422 2.35-1.265 3.05-.843.7-2.004 1.05-3.481 1.05h-3.53v1.117h3.844a.438.438 0 0 1 .45.451v.432a.438.438 0 0 1-.45.45H3.844v2.55c0 .13-.046.239-.137.324a.472.472 0 0 1-.334.127h-.96a.438.438 0 0 1-.324-.127zm5.187-6.854c.98 0 1.72-.215 2.216-.647.497-.431.745-1.072.745-1.922 0-.823-.248-1.46-.745-1.912-.497-.45-1.235-.676-2.216-.676H3.824v5.157h3.452z"/>
</svg>
