<svg xmlns="http://www.w3.org/2000/svg" width="18" height="18" viewBox="0 0 18 18">
    <path fill-rule="evenodd" d="M1.738 17.348c0 .357.28.636.636.636a.63.63 0 0 0 .636-.636V4.737A2.408 2.408 0 0 0 2.39 0 2.395 2.395 0 0 0 0 2.407C0 3.51.745 4.442 1.753 4.721v12.627h-.015zM1.24 2.408a1.14 1.14 0 0 1 1.133-1.134c.62 0 1.133.512 1.133 1.133a1.14 1.14 0 0 1-1.133 1.134 1.14 1.14 0 0 1-1.133-1.134zM8.984 0a.63.63 0 0 1 .637.637V7.16a2.417 2.417 0 0 1 1.784 2.33c0 1.117-.76 2.05-1.784 2.329v5.544a.63.63 0 0 1-.637.637.63.63 0 0 1-.636-.637V11.82a2.403 2.403 0 0 1 0-4.628V.637A.63.63 0 0 1 8.984 0zm1.164 9.505A1.13 1.13 0 0 0 9.015 8.37a1.14 1.14 0 0 0-1.132 1.134 1.14 1.14 0 0 0 1.132 1.133 1.14 1.14 0 0 0 1.133-1.133zm6.083 3.758c1.024.28 1.784 1.212 1.769 2.314a2.398 2.398 0 0 1-2.405 2.407 2.408 2.408 0 0 1-2.406-2.407 2.4 2.4 0 0 1 1.77-2.314V.637A.63.63 0 0 1 15.594 0a.63.63 0 0 1 .636.637v12.626zm-.62 3.448a1.14 1.14 0 0 0 1.132-1.134 1.14 1.14 0 0 0-1.133-1.134 1.14 1.14 0 0 0-1.133 1.134 1.14 1.14 0 0 0 1.133 1.134z"/>
</svg>
