<?xml version="1.0" encoding="UTF-8"?>
<svg width="40px" height="40px" viewBox="0 0 40 40" version="1.1" xmlns="http://www.w3.org/2000/svg" xmlns:xlink="http://www.w3.org/1999/xlink">
    <!-- Generator: sketchtool 50.2 (55047) - http://www.bohemiancoding.com/sketch -->
    <title>F4A67A05-43D0-459F-9DFD-DB5BE13436F8</title>
    <desc>Created with sketchtool.</desc>
    <defs></defs>
    <g id="UI_desktop" stroke="none" stroke-width="1"  fill-rule="evenodd">
        <g id="UI_LEKKI" transform="translate(-257.000000, -368.000000)" >
            <g id="sale-10" transform="translate(257.000000, 368.000000)">
                <path d="M27.7454905,0.358328227 C28.0594066,0.491691597 28.3619856,0.655963745 28.6478662,0.837024325 C29.9925893,1.68933489 31.17884,3.02157297 32.1230029,4.29150094 C33.4120233,6.02506056 34.4939082,7.9670184 35.4098309,9.92178307 C36.5052629,12.25948 37.4003125,14.7074716 38.1167123,17.1877265 C38.8331122,19.6679404 39.3814216,22.2167036 39.7015996,24.7796693 C39.9692673,26.9226779 40.0899224,29.143923 39.9244514,31.3000668 C39.8563885,32.1884581 39.7378207,33.0805437 39.5396484,33.9496016 C39.37385,34.6774151 39.1483379,35.4071988 38.8285692,36.0826357 C38.4414333,36.9002611 37.8921007,37.6776189 37.1216353,38.1400191 C36.9142133,38.281633 36.6973779,38.4099476 36.4770637,38.5259889 C35.0687388,39.2678406 33.3251336,39.6320552 31.7566174,39.8171795 C29.6150714,40.069909 27.3973179,40.0387129 25.2515154,39.8568314 C22.6850982,39.6393616 20.123715,39.1928057 17.6239282,38.5749586 C15.1240185,37.9571114 12.6490339,37.1589015 10.2758367,36.155454 C8.29137151,35.3165659 6.31308641,34.3106556 4.53399682,33.0889174 C3.2307745,32.1939174 1.8555193,31.0589947 0.952243228,29.7458027 C0.802324776,29.5278814 0.662310846,29.2995752 0.538872667,29.0630594 C0.319827197,28.6905943 0.179117495,28.2784772 0.096484311,27.850639 C0.0829372163,27.7827875 0.0713137273,27.7148538 0.0615729161,27.6464276 C0.00447866531,27.26407 -0.00955956266,26.8724357 0.00578835421,26.4878616 C0.0355837768,25.7407558 0.174001523,24.9895452 0.364274764,24.2678068 C0.591546717,23.4058501 0.899896599,22.5607639 1.25109787,21.7423175 C2.10358256,19.7559052 3.23949212,17.8452256 4.46937186,16.0723424 C5.94031621,13.9521152 7.60664978,11.9506796 9.39003679,10.0883128 C11.1735466,8.22594612 13.1002217,6.47547492 15.1533637,4.91587466 C16.8699566,3.61175412 18.7277094,2.39641935 20.6722291,1.46197271 C22.0966795,0.777587526 23.7642818,0.150545715 25.3498649,0.0225595695 C25.6735627,-0.00350560135 26.0037271,-0.00863654049 26.3302079,0.0159098724 C26.5940284,0.0276494611 26.855516,0.07107773 27.1121741,0.139134507" id="Clip-5"></path>
            </g>
        </g>
    </g>
</svg>