<svg xmlns="http://www.w3.org/2000/svg" width="18" height="17" viewBox="0 0 18 17">
    <g fill="none" fill-rule="evenodd" stroke="#2B2B2B" stroke-linecap="round" stroke-linejoin="round" stroke-width="1.5">
        <path d="M16.619 15.476H1.381a.381.381 0 0 1-.381-.38V1.38c0-.21.17-.381.381-.381h15.238c.21 0 .381.17.381.381v13.714c0 .21-.17.381-.381.381z"/>
        <path d="M17 11.571h-2.286c-2.104 0-3.81-1.395-3.81-3.117v-.623c0-1.721 1.706-3.117 3.81-3.117H17"/>
        <path fill="#2B2B2B" d="M14.714 8.143a.381.381 0 1 1-.762 0 .381.381 0 0 1 .762 0z"/>
    </g>
</svg>
